<?xml version="1.0" encoding="utf-8" standalone="no"?>
<!DOCTYPE svg PUBLIC "-//W3C//DTD SVG 1.1//EN"
  "http://www.w3.org/Graphics/SVG/1.1/DTD/svg11.dtd">
<!-- Created with matplotlib (https://matplotlib.org/) -->
<svg height="345.6pt" version="1.1" viewBox="0 0 460.8 345.6" width="460.8pt" xmlns="http://www.w3.org/2000/svg" xmlns:xlink="http://www.w3.org/1999/xlink">
 <defs>
  <style type="text/css">
*{stroke-linecap:butt;stroke-linejoin:round;}
  </style>
 </defs>
 <g id="figure_1">
  <g id="patch_1">
   <path d="M 0 345.6 
L 460.8 345.6 
L 460.8 0 
L 0 0 
z
" style="fill:#ffffff;"/>
  </g>
  <g id="axes_1">
   <g id="LineCollection_1">
    <path clip-path="url(#p7e82efa16a)" d="M 74.173777 56.063839 
L 234.854572 185.837528 
" style="fill:none;stroke:#000000;stroke-opacity:0.5;stroke-width:0.5;"/>
    <path clip-path="url(#p7e82efa16a)" d="M 234.854572 185.837528 
L 300.449808 230.46534 
" style="fill:none;stroke:#000000;stroke-opacity:0.5;stroke-width:0.5;"/>
    <path clip-path="url(#p7e82efa16a)" d="M 398.146223 292.992161 
L 300.449808 230.46534 
" style="fill:none;stroke:#000000;stroke-opacity:0.5;stroke-width:0.5;"/>
   </g>
   <g id="PathCollection_1">
    <path clip-path="url(#p7e82efa16a)" d="M 74.173777 56.563839 
C 74.306379 56.563839 74.433567 56.511156 74.527331 56.417393 
C 74.621094 56.323629 74.673777 56.196441 74.673777 56.063839 
C 74.673777 55.931238 74.621094 55.80405 74.527331 55.710286 
C 74.433567 55.616523 74.306379 55.563839 74.173777 55.563839 
C 74.041176 55.563839 73.913987 55.616523 73.820224 55.710286 
C 73.72646 55.80405 73.673777 55.931238 73.673777 56.063839 
C 73.673777 56.196441 73.72646 56.323629 73.820224 56.417393 
C 73.913987 56.511156 74.041176 56.563839 74.173777 56.563839 
z
" style="fill:#008000;fill-opacity:0.5;stroke:#008000;stroke-opacity:0.5;"/>
    <path clip-path="url(#p7e82efa16a)" d="M 234.854572 186.544635 
C 235.042098 186.544635 235.22197 186.470129 235.354572 186.337528 
C 235.487173 186.204926 235.561678 186.025055 235.561678 185.837528 
C 235.561678 185.650001 235.487173 185.470129 235.354572 185.337528 
C 235.22197 185.204926 235.042098 185.130421 234.854572 185.130421 
C 234.667045 185.130421 234.487173 185.204926 234.354572 185.337528 
C 234.22197 185.470129 234.147465 185.650001 234.147465 185.837528 
C 234.147465 186.025055 234.22197 186.204926 234.354572 186.337528 
C 234.487173 186.470129 234.667045 186.544635 234.854572 186.544635 
z
" style="fill:#ff0000;fill-opacity:0.5;stroke:#ff0000;stroke-opacity:0.5;"/>
    <path clip-path="url(#p7e82efa16a)" d="M 398.146223 293.492161 
C 398.278824 293.492161 398.406013 293.439477 398.499776 293.345714 
C 398.59354 293.25195 398.646223 293.124762 398.646223 292.992161 
C 398.646223 292.859559 398.59354 292.732371 398.499776 292.638607 
C 398.406013 292.544844 398.278824 292.492161 398.146223 292.492161 
C 398.013621 292.492161 397.886433 292.544844 397.792669 292.638607 
C 397.698906 292.732371 397.646223 292.859559 397.646223 292.992161 
C 397.646223 293.124762 397.698906 293.25195 397.792669 293.345714 
C 397.886433 293.439477 398.013621 293.492161 398.146223 293.492161 
z
" style="fill:#008000;fill-opacity:0.5;stroke:#008000;stroke-opacity:0.5;"/>
    <path clip-path="url(#p7e82efa16a)" d="M 300.449808 231.172447 
C 300.637334 231.172447 300.817206 231.097942 300.949808 230.96534 
C 301.082409 230.832739 301.156914 230.652867 301.156914 230.46534 
C 301.156914 230.277813 301.082409 230.097942 300.949808 229.96534 
C 300.817206 229.832739 300.637334 229.758233 300.449808 229.758233 
C 300.262281 229.758233 300.082409 229.832739 299.949808 229.96534 
C 299.817206 230.097942 299.742701 230.277813 299.742701 230.46534 
C 299.742701 230.652867 299.817206 230.832739 299.949808 230.96534 
C 300.082409 231.097942 300.262281 231.172447 300.449808 231.172447 
z
" style="fill:#ff0000;fill-opacity:0.5;stroke:#ff0000;stroke-opacity:0.5;"/>
   </g>
  </g>
 </g>
 <defs>
  <clipPath id="p7e82efa16a">
   <rect height="266.112" width="357.12" x="57.6" y="41.472"/>
  </clipPath>
 </defs>
</svg>
