<?xml version="1.0" encoding="utf-8" standalone="no"?>
<!DOCTYPE svg PUBLIC "-//W3C//DTD SVG 1.1//EN"
  "http://www.w3.org/Graphics/SVG/1.1/DTD/svg11.dtd">
<!-- Created with matplotlib (https://matplotlib.org/) -->
<svg height="345.6pt" version="1.1" viewBox="0 0 460.8 345.6" width="460.8pt" xmlns="http://www.w3.org/2000/svg" xmlns:xlink="http://www.w3.org/1999/xlink">
 <defs>
  <style type="text/css">
*{stroke-linecap:butt;stroke-linejoin:round;}
  </style>
 </defs>
 <g id="figure_1">
  <g id="patch_1">
   <path d="M 0 345.6 
L 460.8 345.6 
L 460.8 0 
L 0 0 
z
" style="fill:#ffffff;"/>
  </g>
  <g id="axes_1">
   <g id="patch_2">
    <path clip-path="url(#p5d43d60748)" d="M 168.523636 295.488 
C 193.635959 295.488 217.723127 288.053353 235.48022 274.821454 
C 253.237314 261.589556 263.214545 243.640731 263.214545 224.928 
C 263.214545 206.215269 253.237314 188.266444 235.48022 175.034546 
C 217.723127 161.802647 193.635959 154.368 168.523636 154.368 
C 143.411314 154.368 119.324146 161.802647 101.567052 175.034546 
C 83.809959 188.266444 73.832727 206.215269 73.832727 224.928 
C 73.832727 243.640731 83.809959 261.589556 101.567052 274.821454 
C 119.324146 288.053353 143.411314 295.488 168.523636 295.488 
z
" style="fill:#ff0000;opacity:0.13;stroke:#ff0000;stroke-linejoin:miter;"/>
   </g>
   <g id="patch_3">
    <path clip-path="url(#p5d43d60748)" d="M 168.638159 224.952798 
Q 146.428618 214.611725 125.232629 204.742576 
" style="fill:none;stroke:#000000;stroke-linecap:round;"/>
    <path clip-path="url(#p5d43d60748)" d="M 125.371728 204.917651 
L 125.232629 204.742576 
L 125.456149 204.736341 
L 125.371728 204.917651 
z
" style="stroke:#000000;stroke-linecap:round;"/>
   </g>
   <g id="patch_4">
    <path clip-path="url(#p5d43d60748)" d="M 303.796364 194.688 
C 328.908686 194.688 352.995854 187.253353 370.752948 174.021454 
C 388.510041 160.789556 398.487273 142.840731 398.487273 124.128 
C 398.487273 105.415269 388.510041 87.466444 370.752948 74.234546 
C 352.995854 61.002647 328.908686 53.568 303.796364 53.568 
C 278.684041 53.568 254.596873 61.002647 236.83978 74.234546 
C 219.082686 87.466444 209.105455 105.415269 209.105455 124.128 
C 209.105455 142.840731 219.082686 160.789556 236.83978 174.021454 
C 254.596873 187.253353 278.684041 194.688 303.796364 194.688 
z
" style="fill:#008000;opacity:0.13;stroke:#008000;stroke-linejoin:miter;"/>
   </g>
   <g id="patch_5">
    <path clip-path="url(#p5d43d60748)" d="M 303.796887 124.144994 
Q 325.941649 115.079026 347.05173 106.436652 
" style="fill:none;stroke:#000000;stroke-linecap:round;"/>
    <path clip-path="url(#p5d43d60748)" d="M 346.828752 106.419882 
L 347.05173 106.436652 
L 346.904527 106.604972 
L 346.828752 106.419882 
z
" style="stroke:#000000;stroke-linecap:round;"/>
   </g>
   <g id="PathCollection_1">
    <path clip-path="url(#p5d43d60748)" d="M 168.638159 225.818823 
C 168.867832 225.818823 169.088129 225.727573 169.250532 225.56517 
C 169.412935 225.402767 169.504185 225.18247 169.504185 224.952798 
C 169.504185 224.723125 169.412935 224.502828 169.250532 224.340425 
C 169.088129 224.178022 168.867832 224.086772 168.638159 224.086772 
C 168.408487 224.086772 168.18819 224.178022 168.025787 224.340425 
C 167.863384 224.502828 167.772134 224.723125 167.772134 224.952798 
C 167.772134 225.18247 167.863384 225.402767 168.025787 225.56517 
C 168.18819 225.727573 168.408487 225.818823 168.638159 225.818823 
z
" style="fill:#ff0000;stroke:#ff0000;"/>
    <path clip-path="url(#p5d43d60748)" d="M 123.432727 204.770542 
C 123.6624 204.770542 123.882697 204.679292 124.0451 204.516889 
C 124.207503 204.354486 124.298753 204.134189 124.298753 203.904516 
C 124.298753 203.674844 124.207503 203.454547 124.0451 203.292144 
C 123.882697 203.129741 123.6624 203.038491 123.432727 203.038491 
C 123.203055 203.038491 122.982758 203.129741 122.820355 203.292144 
C 122.657952 203.454547 122.566702 203.674844 122.566702 203.904516 
C 122.566702 204.134189 122.657952 204.354486 122.820355 204.516889 
C 122.982758 204.679292 123.203055 204.770542 123.432727 204.770542 
z
" style="fill:#ff0000;stroke:#ff0000;"/>
   </g>
   <g id="PathCollection_2">
    <path clip-path="url(#p5d43d60748)" d="M 303.796887 125.01102 
C 304.026559 125.01102 304.246856 124.91977 304.409259 124.757367 
C 304.571662 124.594964 304.662912 124.374667 304.662912 124.144994 
C 304.662912 123.915322 304.571662 123.695025 304.409259 123.532622 
C 304.246856 123.370219 304.026559 123.278969 303.796887 123.278969 
C 303.567214 123.278969 303.346917 123.370219 303.184514 123.532622 
C 303.022111 123.695025 302.930861 123.915322 302.930861 124.144994 
C 302.930861 124.374667 303.022111 124.594964 303.184514 124.757367 
C 303.346917 124.91977 303.567214 125.01102 303.796887 125.01102 
z
" style="fill:#008000;stroke:#008000;"/>
    <path clip-path="url(#p5d43d60748)" d="M 348.887273 106.551214 
C 349.116945 106.551214 349.337242 106.459965 349.499645 106.297561 
C 349.662048 106.135158 349.753298 105.914862 349.753298 105.685189 
C 349.753298 105.455516 349.662048 105.23522 349.499645 105.072817 
C 349.337242 104.910413 349.116945 104.819164 348.887273 104.819164 
C 348.6576 104.819164 348.437303 104.910413 348.2749 105.072817 
C 348.112497 105.23522 348.021247 105.455516 348.021247 105.685189 
C 348.021247 105.914862 348.112497 106.135158 348.2749 106.297561 
C 348.437303 106.459965 348.6576 106.551214 348.887273 106.551214 
z
" style="fill:#008000;stroke:#008000;"/>
   </g>
   <g id="text_1">
    <!-- l1 -->
    <defs>
     <path d="M 9.421875 75.984375 
L 18.40625 75.984375 
L 18.40625 0 
L 9.421875 0 
z
" id="DejaVuSans-108"/>
     <path d="M 12.40625 8.296875 
L 28.515625 8.296875 
L 28.515625 63.921875 
L 10.984375 60.40625 
L 10.984375 69.390625 
L 28.421875 72.90625 
L 38.28125 72.90625 
L 38.28125 8.296875 
L 54.390625 8.296875 
L 54.390625 0 
L 12.40625 0 
z
" id="DejaVuSans-49"/>
    </defs>
    <g transform="translate(213.614545 325.728)scale(0.1 -0.1)">
     <use xlink:href="#DejaVuSans-108"/>
     <use x="27.783203" xlink:href="#DejaVuSans-49"/>
    </g>
   </g>
   <g id="text_2">
    <!-- l2 -->
    <defs>
     <path d="M 19.1875 8.296875 
L 53.609375 8.296875 
L 53.609375 0 
L 7.328125 0 
L 7.328125 8.296875 
Q 12.9375 14.109375 22.625 23.890625 
Q 32.328125 33.6875 34.8125 36.53125 
Q 39.546875 41.84375 41.421875 45.53125 
Q 43.3125 49.21875 43.3125 52.78125 
Q 43.3125 58.59375 39.234375 62.25 
Q 35.15625 65.921875 28.609375 65.921875 
Q 23.96875 65.921875 18.8125 64.3125 
Q 13.671875 62.703125 7.8125 59.421875 
L 7.8125 69.390625 
Q 13.765625 71.78125 18.9375 73 
Q 24.125 74.21875 28.421875 74.21875 
Q 39.75 74.21875 46.484375 68.546875 
Q 53.21875 62.890625 53.21875 53.421875 
Q 53.21875 48.921875 51.53125 44.890625 
Q 49.859375 40.875 45.40625 35.40625 
Q 44.1875 33.984375 37.640625 27.21875 
Q 31.109375 20.453125 19.1875 8.296875 
z
" id="DejaVuSans-50"/>
    </defs>
    <g transform="translate(348.887273 224.928)scale(0.1 -0.1)">
     <use xlink:href="#DejaVuSans-108"/>
     <use x="27.783203" xlink:href="#DejaVuSans-50"/>
    </g>
   </g>
  </g>
 </g>
 <defs>
  <clipPath id="p5d43d60748">
   <rect height="266.112" width="357.12" x="57.6" y="41.472"/>
  </clipPath>
 </defs>
</svg>
