<?xml version="1.0" encoding="utf-8" standalone="no"?>
<!DOCTYPE svg PUBLIC "-//W3C//DTD SVG 1.1//EN"
  "http://www.w3.org/Graphics/SVG/1.1/DTD/svg11.dtd">
<!-- Created with matplotlib (https://matplotlib.org/) -->
<svg height="345.6pt" version="1.1" viewBox="0 0 460.8 345.6" width="460.8pt" xmlns="http://www.w3.org/2000/svg" xmlns:xlink="http://www.w3.org/1999/xlink">
 <defs>
  <style type="text/css">
*{stroke-linecap:butt;stroke-linejoin:round;}
  </style>
 </defs>
 <g id="figure_1">
  <g id="patch_1">
   <path d="M 0 345.6 
L 460.8 345.6 
L 460.8 0 
L 0 0 
z
" style="fill:#ffffff;"/>
  </g>
  <g id="axes_1">
   <g id="LineCollection_1">
    <path clip-path="url(#p5da622c856)" d="M 75.157905 258.147399 
L 275.39994 54.978224 
" style="fill:none;stroke:#c4c4c4;"/>
    <path clip-path="url(#p5da622c856)" d="M 75.157905 258.147399 
L 397.162095 294.077776 
" style="fill:none;stroke:#c4c4c4;"/>
    <path clip-path="url(#p5da622c856)" d="M 275.39994 54.978224 
L 397.162095 294.077776 
" style="fill:none;stroke:#c4c4c4;"/>
   </g>
   <g id="PathCollection_1">
    <path clip-path="url(#p5da622c856)" d="M 75.157905 261.682932 
C 76.09554 261.682932 76.994898 261.310406 77.657905 260.647399 
C 78.320913 259.984391 78.693439 259.085033 78.693439 258.147399 
C 78.693439 257.209764 78.320913 256.310406 77.657905 255.647399 
C 76.994898 254.984391 76.09554 254.611865 75.157905 254.611865 
C 74.220271 254.611865 73.320913 254.984391 72.657905 255.647399 
C 71.994898 256.310406 71.622371 257.209764 71.622371 258.147399 
C 71.622371 259.085033 71.994898 259.984391 72.657905 260.647399 
C 73.320913 261.310406 74.220271 261.682932 75.157905 261.682932 
z
" style="fill:#440154;stroke:#440154;"/>
    <path clip-path="url(#p5da622c856)" d="M 275.39994 58.513758 
C 276.337574 58.513758 277.236932 58.141231 277.89994 57.478224 
C 278.562948 56.815216 278.935474 55.915858 278.935474 54.978224 
C 278.935474 54.040589 278.562948 53.141231 277.89994 52.478224 
C 277.236932 51.815216 276.337574 51.44269 275.39994 51.44269 
C 274.462305 51.44269 273.562948 51.815216 272.89994 52.478224 
C 272.236932 53.141231 271.864406 54.040589 271.864406 54.978224 
C 271.864406 55.915858 272.236932 56.815216 272.89994 57.478224 
C 273.562948 58.141231 274.462305 58.513758 275.39994 58.513758 
z
" style="fill:#fde725;stroke:#fde725;"/>
    <path clip-path="url(#p5da622c856)" d="M 397.162095 297.61331 
C 398.099729 297.61331 398.999087 297.240784 399.662095 296.577776 
C 400.325102 295.914769 400.697629 295.015411 400.697629 294.077776 
C 400.697629 293.140142 400.325102 292.240784 399.662095 291.577776 
C 398.999087 290.914769 398.099729 290.542242 397.162095 290.542242 
C 396.22446 290.542242 395.325102 290.914769 394.662095 291.577776 
C 393.999087 292.240784 393.626561 293.140142 393.626561 294.077776 
C 393.626561 295.015411 393.999087 295.914769 394.662095 296.577776 
C 395.325102 297.240784 396.22446 297.61331 397.162095 297.61331 
z
" style="fill:#fde725;stroke:#fde725;"/>
   </g>
  </g>
 </g>
 <defs>
  <clipPath id="p5da622c856">
   <rect height="266.112" width="357.12" x="57.6" y="41.472"/>
  </clipPath>
 </defs>
</svg>
