<?xml version="1.0" encoding="utf-8" standalone="no"?>
<!DOCTYPE svg PUBLIC "-//W3C//DTD SVG 1.1//EN"
  "http://www.w3.org/Graphics/SVG/1.1/DTD/svg11.dtd">
<!-- Created with matplotlib (https://matplotlib.org/) -->
<svg height="345.6pt" version="1.1" viewBox="0 0 460.8 345.6" width="460.8pt" xmlns="http://www.w3.org/2000/svg" xmlns:xlink="http://www.w3.org/1999/xlink">
 <defs>
  <style type="text/css">
*{stroke-linecap:butt;stroke-linejoin:round;}
  </style>
 </defs>
 <g id="figure_1">
  <g id="patch_1">
   <path d="M 0 345.6 
L 460.8 345.6 
L 460.8 0 
L 0 0 
z
" style="fill:#ffffff;"/>
  </g>
  <g id="axes_1">
   <g id="LineCollection_1">
    <path clip-path="url(#p8cea7fc881)" d="M 147.687822 294.166511 
L 75.190346 54.889489 
" style="fill:none;stroke:#c4c4c4;"/>
    <path clip-path="url(#p8cea7fc881)" d="M 147.687822 294.166511 
L 397.129654 128.988397 
" style="fill:none;stroke:#c4c4c4;"/>
    <path clip-path="url(#p8cea7fc881)" d="M 75.190346 54.889489 
L 397.129654 128.988397 
" style="fill:none;stroke:#c4c4c4;"/>
   </g>
   <g id="PathCollection_1">
    <path clip-path="url(#p8cea7fc881)" d="M 147.687822 297.702045 
C 148.625456 297.702045 149.524814 297.329519 150.187822 296.666511 
C 150.85083 296.003504 151.223356 295.104146 151.223356 294.166511 
C 151.223356 293.228877 150.85083 292.329519 150.187822 291.666511 
C 149.524814 291.003504 148.625456 290.630978 147.687822 290.630978 
C 146.750187 290.630978 145.85083 291.003504 145.187822 291.666511 
C 144.524814 292.329519 144.152288 293.228877 144.152288 294.166511 
C 144.152288 295.104146 144.524814 296.003504 145.187822 296.666511 
C 145.85083 297.329519 146.750187 297.702045 147.687822 297.702045 
z
" style="fill:#106ebe;stroke:#106ebe;"/>
    <path clip-path="url(#p8cea7fc881)" d="M 75.190346 58.425022 
C 76.127981 58.425022 77.027339 58.052496 77.690346 57.389489 
C 78.353354 56.726481 78.72588 55.827123 78.72588 54.889489 
C 78.72588 53.951854 78.353354 53.052496 77.690346 52.389489 
C 77.027339 51.726481 76.127981 51.353955 75.190346 51.353955 
C 74.252712 51.353955 73.353354 51.726481 72.690346 52.389489 
C 72.027339 53.052496 71.654813 53.951854 71.654813 54.889489 
C 71.654813 55.827123 72.027339 56.726481 72.690346 57.389489 
C 73.353354 58.052496 74.252712 58.425022 75.190346 58.425022 
z
" style="fill:#106ebe;stroke:#106ebe;"/>
    <path clip-path="url(#p8cea7fc881)" d="M 397.129654 132.523931 
C 398.067288 132.523931 398.966646 132.151405 399.629654 131.488397 
C 400.292661 130.825389 400.665187 129.926032 400.665187 128.988397 
C 400.665187 128.050763 400.292661 127.151405 399.629654 126.488397 
C 398.966646 125.825389 398.067288 125.452863 397.129654 125.452863 
C 396.192019 125.452863 395.292661 125.825389 394.629654 126.488397 
C 393.966646 127.151405 393.59412 128.050763 393.59412 128.988397 
C 393.59412 129.926032 393.966646 130.825389 394.629654 131.488397 
C 395.292661 132.151405 396.192019 132.523931 397.129654 132.523931 
z
" style="fill:#106ebe;stroke:#106ebe;"/>
   </g>
  </g>
 </g>
 <defs>
  <clipPath id="p8cea7fc881">
   <rect height="266.112" width="357.12" x="57.6" y="41.472"/>
  </clipPath>
 </defs>
</svg>
