<?xml version="1.0" encoding="utf-8" standalone="no"?>
<!DOCTYPE svg PUBLIC "-//W3C//DTD SVG 1.1//EN"
  "http://www.w3.org/Graphics/SVG/1.1/DTD/svg11.dtd">
<svg xmlns:xlink="http://www.w3.org/1999/xlink" width="576pt" height="576pt" viewBox="0 0 576 576" xmlns="http://www.w3.org/2000/svg" version="1.1">
 <metadata>
  <rdf:RDF xmlns:dc="http://purl.org/dc/elements/1.1/" xmlns:cc="http://creativecommons.org/ns#" xmlns:rdf="http://www.w3.org/1999/02/22-rdf-syntax-ns#">
   <cc:Work>
    <dc:type rdf:resource="http://purl.org/dc/dcmitype/StillImage"/>
    <dc:date>2025-01-15T09:53:52.104972</dc:date>
    <dc:format>image/svg+xml</dc:format>
    <dc:creator>
     <cc:Agent>
      <dc:title>Matplotlib v3.9.2, https://matplotlib.org/</dc:title>
     </cc:Agent>
    </dc:creator>
   </cc:Work>
  </rdf:RDF>
 </metadata>
 <defs>
  <style type="text/css">*{stroke-linejoin: round; stroke-linecap: butt}</style>
 </defs>
 <g id="figure_1">
  <g id="patch_1">
   <path d="M 0 576 
L 576 576 
L 576 0 
L 0 0 
L 0 576 
z
" style="fill: none"/>
  </g>
  <g id="axes_1">
   <g id="LineCollection_1">
    <path d="M 479.66281 290.88 
L 463.538985 215.92566 
" clip-path="url(#p269594ada7)" style="fill: none; stroke: #c4c4c4"/>
    <path d="M 479.66281 290.88 
L 417.955478 153.931598 
" clip-path="url(#p269594ada7)" style="fill: none; stroke: #c4c4c4"/>
    <path d="M 479.66281 290.88 
L 142.280144 182.561618 
" clip-path="url(#p269594ada7)" style="fill: none; stroke: #c4c4c4"/>
    <path d="M 463.538985 215.92566 
L 142.280144 182.561618 
" clip-path="url(#p269594ada7)" style="fill: none; stroke: #c4c4c4"/>
    <path d="M 463.538985 215.92566 
L 110.73719 252.565582 
" clip-path="url(#p269594ada7)" style="fill: none; stroke: #c4c4c4"/>
    <path d="M 417.955478 153.931598 
L 350.794095 115.61717 
" clip-path="url(#p269594ada7)" style="fill: none; stroke: #c4c4c4"/>
    <path d="M 417.955478 153.931598 
L 142.280155 399.198393 
" clip-path="url(#p269594ada7)" style="fill: none; stroke: #c4c4c4"/>
    <path d="M 417.955478 153.931598 
L 199.912002 450.47311 
" clip-path="url(#p269594ada7)" style="fill: none; stroke: #c4c4c4"/>
    <path d="M 350.794095 115.61717 
L 142.280155 399.198393 
" clip-path="url(#p269594ada7)" style="fill: none; stroke: #c4c4c4"/>
    <path d="M 350.794095 115.61717 
L 199.912002 450.47311 
" clip-path="url(#p269594ada7)" style="fill: none; stroke: #c4c4c4"/>
    <path d="M 350.794095 115.61717 
L 110.737201 329.19445 
" clip-path="url(#p269594ada7)" style="fill: none; stroke: #c4c4c4"/>
    <path d="M 350.794095 115.61717 
L 273.667669 474.152727 
" clip-path="url(#p269594ada7)" style="fill: none; stroke: #c4c4c4"/>
    <path d="M 273.667636 107.607273 
L 199.911974 131.286901 
" clip-path="url(#p269594ada7)" style="fill: none; stroke: #c4c4c4"/>
    <path d="M 273.667636 107.607273 
L 142.280144 182.561618 
" clip-path="url(#p269594ada7)" style="fill: none; stroke: #c4c4c4"/>
    <path d="M 199.911974 131.286901 
L 142.280144 182.561618 
" clip-path="url(#p269594ada7)" style="fill: none; stroke: #c4c4c4"/>
    <path d="M 142.280144 182.561618 
L 273.667669 474.152727 
" clip-path="url(#p269594ada7)" style="fill: none; stroke: #c4c4c4"/>
    <path d="M 142.280144 182.561618 
L 350.794123 466.142819 
" clip-path="url(#p269594ada7)" style="fill: none; stroke: #c4c4c4"/>
    <path d="M 142.280144 182.561618 
L 463.539007 365.834312 
" clip-path="url(#p269594ada7)" style="fill: none; stroke: #c4c4c4"/>
    <path d="M 142.280144 182.561618 
L 417.955511 427.828369 
" clip-path="url(#p269594ada7)" style="fill: none; stroke: #c4c4c4"/>
    <path d="M 110.73719 252.565582 
L 110.737201 329.19445 
" clip-path="url(#p269594ada7)" style="fill: none; stroke: #c4c4c4"/>
    <path d="M 110.73719 252.565582 
L 199.912002 450.47311 
" clip-path="url(#p269594ada7)" style="fill: none; stroke: #c4c4c4"/>
    <path d="M 110.73719 252.565582 
L 350.794123 466.142819 
" clip-path="url(#p269594ada7)" style="fill: none; stroke: #c4c4c4"/>
    <path d="M 110.737201 329.19445 
L 142.280155 399.198393 
" clip-path="url(#p269594ada7)" style="fill: none; stroke: #c4c4c4"/>
    <path d="M 110.737201 329.19445 
L 199.912002 450.47311 
" clip-path="url(#p269594ada7)" style="fill: none; stroke: #c4c4c4"/>
    <path d="M 142.280155 399.198393 
L 273.667669 474.152727 
" clip-path="url(#p269594ada7)" style="fill: none; stroke: #c4c4c4"/>
    <path d="M 273.667669 474.152727 
L 417.955511 427.828369 
" clip-path="url(#p269594ada7)" style="fill: none; stroke: #c4c4c4"/>
    <path d="M 350.794123 466.142819 
L 417.955511 427.828369 
" clip-path="url(#p269594ada7)" style="fill: none; stroke: #c4c4c4"/>
   </g>
   <g id="PathCollection_1">
    <path d="M 479.66281 293.38 
C 480.325818 293.38 480.96176 293.116584 481.430577 292.647767 
C 481.899394 292.17895 482.16281 291.543008 482.16281 290.88 
C 482.16281 290.216992 481.899394 289.58105 481.430577 289.112233 
C 480.96176 288.643416 480.325818 288.38 479.66281 288.38 
C 478.999802 288.38 478.36386 288.643416 477.895043 289.112233 
C 477.426226 289.58105 477.16281 290.216992 477.16281 290.88 
C 477.16281 291.543008 477.426226 292.17895 477.895043 292.647767 
C 478.36386 293.116584 478.999802 293.38 479.66281 293.38 
z
" clip-path="url(#p269594ada7)" style="fill: #02aff9; stroke: #02aff9"/>
    <path d="M 463.538985 220.255787 
C 464.687348 220.255787 465.788832 219.799538 466.600847 218.987522 
C 467.412863 218.175507 467.869112 217.074023 467.869112 215.92566 
C 467.869112 214.777297 467.412863 213.675813 466.600847 212.863798 
C 465.788832 212.051783 464.687348 211.595533 463.538985 211.595533 
C 462.390622 211.595533 461.289138 212.051783 460.477123 212.863798 
C 459.665108 213.675813 459.208858 214.777297 459.208858 215.92566 
C 459.208858 217.074023 459.665108 218.175507 460.477123 218.987522 
C 461.289138 219.799538 462.390622 220.255787 463.538985 220.255787 
z
" clip-path="url(#p269594ada7)" style="fill: #02aff9; stroke: #02aff9"/>
    <path d="M 417.955478 158.931598 
C 419.281494 158.931598 420.553377 158.404767 421.491012 157.467132 
C 422.428647 156.529497 422.955478 155.257614 422.955478 153.931598 
C 422.955478 152.605583 422.428647 151.333699 421.491012 150.396064 
C 420.553377 149.45843 419.281494 148.931598 417.955478 148.931598 
C 416.629463 148.931598 415.357579 149.45843 414.419944 150.396064 
C 413.48231 151.333699 412.955478 152.605583 412.955478 153.931598 
C 412.955478 155.257614 413.48231 156.529497 414.419944 157.467132 
C 415.357579 158.404767 416.629463 158.931598 417.955478 158.931598 
z
" clip-path="url(#p269594ada7)" style="fill: #02aff9; stroke: #02aff9"/>
    <path d="M 350.794095 120.61717 
C 352.120111 120.61717 353.391995 120.090338 354.329629 119.152704 
C 355.267264 118.215069 355.794095 116.943185 355.794095 115.61717 
C 355.794095 114.291154 355.267264 113.01927 354.329629 112.081636 
C 353.391995 111.144001 352.120111 110.61717 350.794095 110.61717 
C 349.46808 110.61717 348.196196 111.144001 347.258562 112.081636 
C 346.320927 113.01927 345.794095 114.291154 345.794095 115.61717 
C 345.794095 116.943185 346.320927 118.215069 347.258562 119.152704 
C 348.196196 120.090338 349.46808 120.61717 350.794095 120.61717 
z
" clip-path="url(#p269594ada7)" style="fill: #02aff9; stroke: #02aff9"/>
    <path d="M 273.667636 112.607273 
C 274.993651 112.607273 276.265535 112.080441 277.20317 111.142807 
C 278.140804 110.205172 278.667636 108.933288 278.667636 107.607273 
C 278.667636 106.281257 278.140804 105.009373 277.20317 104.071739 
C 276.265535 103.134104 274.993651 102.607273 273.667636 102.607273 
C 272.34162 102.607273 271.069736 103.134104 270.132102 104.071739 
C 269.194467 105.009373 268.667636 106.281257 268.667636 107.607273 
C 268.667636 108.933288 269.194467 110.205172 270.132102 111.142807 
C 271.069736 112.080441 272.34162 112.607273 273.667636 112.607273 
z
" clip-path="url(#p269594ada7)" style="fill: #02aff9; stroke: #02aff9"/>
    <path d="M 199.911974 135.617028 
C 201.060337 135.617028 202.161821 135.160778 202.973836 134.348763 
C 203.785852 133.536748 204.242101 132.435264 204.242101 131.286901 
C 204.242101 130.138538 203.785852 129.037054 202.973836 128.225039 
C 202.161821 127.413023 201.060337 126.956774 199.911974 126.956774 
C 198.763611 126.956774 197.662127 127.413023 196.850112 128.225039 
C 196.038097 129.037054 195.581847 130.138538 195.581847 131.286901 
C 195.581847 132.435264 196.038097 133.536748 196.850112 134.348763 
C 197.662127 135.160778 198.763611 135.617028 199.911974 135.617028 
z
" clip-path="url(#p269594ada7)" style="fill: #02aff9; stroke: #02aff9"/>
    <path d="M 142.280144 187.561618 
C 143.60616 187.561618 144.878044 187.034787 145.815678 186.097152 
C 146.753313 185.159517 147.280144 183.887634 147.280144 182.561618 
C 147.280144 181.235603 146.753313 179.963719 145.815678 179.026084 
C 144.878044 178.08845 143.60616 177.561618 142.280144 177.561618 
C 140.954129 177.561618 139.682245 178.08845 138.74461 179.026084 
C 137.806976 179.963719 137.280144 181.235603 137.280144 182.561618 
C 137.280144 183.887634 137.806976 185.159517 138.74461 186.097152 
C 139.682245 187.034787 140.954129 187.561618 142.280144 187.561618 
z
" clip-path="url(#p269594ada7)" style="fill: #02aff9; stroke: #02aff9"/>
    <path d="M 110.73719 257.565582 
C 112.063206 257.565582 113.335089 257.038751 114.272724 256.101116 
C 115.210359 255.163482 115.73719 253.891598 115.73719 252.565582 
C 115.73719 251.239567 115.210359 249.967683 114.272724 249.030049 
C 113.335089 248.092414 112.063206 247.565582 110.73719 247.565582 
C 109.411175 247.565582 108.139291 248.092414 107.201656 249.030049 
C 106.264022 249.967683 105.73719 251.239567 105.73719 252.565582 
C 105.73719 253.891598 106.264022 255.163482 107.201656 256.101116 
C 108.139291 257.038751 109.411175 257.565582 110.73719 257.565582 
z
" clip-path="url(#p269594ada7)" style="fill: #02aff9; stroke: #02aff9"/>
    <path d="M 110.737201 336.265518 
C 112.61247 336.265518 114.411186 335.520466 115.737201 334.19445 
C 117.063217 332.868435 117.808269 331.06972 117.808269 329.19445 
C 117.808269 327.319181 117.063217 325.520466 115.737201 324.19445 
C 114.411186 322.868435 112.61247 322.123383 110.737201 322.123383 
C 108.861932 322.123383 107.063217 322.868435 105.737201 324.19445 
C 104.411186 325.520466 103.666133 327.319181 103.666133 329.19445 
C 103.666133 331.06972 104.411186 332.868435 105.737201 334.19445 
C 107.063217 335.520466 108.861932 336.265518 110.737201 336.265518 
z
" clip-path="url(#p269594ada7)" style="fill: #02aff9; stroke: #02aff9"/>
    <path d="M 142.280155 402.733927 
C 143.21779 402.733927 144.117148 402.361401 144.780155 401.698393 
C 145.443163 401.035385 145.815689 400.136027 145.815689 399.198393 
C 145.815689 398.260758 145.443163 397.361401 144.780155 396.698393 
C 144.117148 396.035385 143.21779 395.662859 142.280155 395.662859 
C 141.342521 395.662859 140.443163 396.035385 139.780155 396.698393 
C 139.117148 397.361401 138.744622 398.260758 138.744622 399.198393 
C 138.744622 400.136027 139.117148 401.035385 139.780155 401.698393 
C 140.443163 402.361401 141.342521 402.733927 142.280155 402.733927 
z
" clip-path="url(#p269594ada7)" style="fill: #02aff9; stroke: #02aff9"/>
    <path d="M 199.912002 456.06328 
C 201.394532 456.06328 202.816542 455.474265 203.864849 454.425957 
C 204.913156 453.37765 205.502172 451.955641 205.502172 450.47311 
C 205.502172 448.99058 204.913156 447.56857 203.864849 446.520263 
C 202.816542 445.471956 201.394532 444.88294 199.912002 444.88294 
C 198.429471 444.88294 197.007462 445.471956 195.959155 446.520263 
C 194.910848 447.56857 194.321832 448.99058 194.321832 450.47311 
C 194.321832 451.955641 194.910848 453.37765 195.959155 454.425957 
C 197.007462 455.474265 198.429471 456.06328 199.912002 456.06328 
z
" clip-path="url(#p269594ada7)" style="fill: #02aff9; stroke: #02aff9"/>
    <path d="M 273.667669 478.482854 
C 274.816032 478.482854 275.917516 478.026605 276.729531 477.214589 
C 277.541547 476.402574 277.997796 475.30109 277.997796 474.152727 
C 277.997796 473.004364 277.541547 471.90288 276.729531 471.090865 
C 275.917516 470.27885 274.816032 469.8226 273.667669 469.8226 
C 272.519306 469.8226 271.417822 470.27885 270.605807 471.090865 
C 269.793792 471.90288 269.337542 473.004364 269.337542 474.152727 
C 269.337542 475.30109 269.793792 476.402574 270.605807 477.214589 
C 271.417822 478.026605 272.519306 478.482854 273.667669 478.482854 
z
" clip-path="url(#p269594ada7)" style="fill: #02aff9; stroke: #02aff9"/>
    <path d="M 350.794123 469.678353 
C 351.731758 469.678353 352.631115 469.305827 353.294123 468.642819 
C 353.957131 467.979812 354.329657 467.080454 354.329657 466.142819 
C 354.329657 465.205185 353.957131 464.305827 353.294123 463.642819 
C 352.631115 462.979812 351.731758 462.607286 350.794123 462.607286 
C 349.856489 462.607286 348.957131 462.979812 348.294123 463.642819 
C 347.631115 464.305827 347.258589 465.205185 347.258589 466.142819 
C 347.258589 467.080454 347.631115 467.979812 348.294123 468.642819 
C 348.957131 469.305827 349.856489 469.678353 350.794123 469.678353 
z
" clip-path="url(#p269594ada7)" style="fill: #02aff9; stroke: #02aff9"/>
    <path d="M 417.955511 432.828369 
C 419.281527 432.828369 420.553411 432.301537 421.491045 431.363903 
C 422.42868 430.426268 422.955511 429.154384 422.955511 427.828369 
C 422.955511 426.502353 422.42868 425.23047 421.491045 424.292835 
C 420.553411 423.3552 419.281527 422.828369 417.955511 422.828369 
C 416.629496 422.828369 415.357612 423.3552 414.419978 424.292835 
C 413.482343 425.23047 412.955511 426.502353 412.955511 427.828369 
C 412.955511 429.154384 413.482343 430.426268 414.419978 431.363903 
C 415.357612 432.301537 416.629496 432.828369 417.955511 432.828369 
z
" clip-path="url(#p269594ada7)" style="fill: #02aff9; stroke: #02aff9"/>
    <path d="M 463.539007 370.164439 
C 464.68737 370.164439 465.788854 369.70819 466.600869 368.896175 
C 467.412885 368.084159 467.869134 366.982676 467.869134 365.834312 
C 467.869134 364.685949 467.412885 363.584466 466.600869 362.77245 
C 465.788854 361.960435 464.68737 361.504185 463.539007 361.504185 
C 462.390644 361.504185 461.28916 361.960435 460.477145 362.77245 
C 459.66513 363.584466 459.20888 364.685949 459.20888 365.834312 
C 459.20888 366.982676 459.66513 368.084159 460.477145 368.896175 
C 461.28916 369.70819 462.390644 370.164439 463.539007 370.164439 
z
" clip-path="url(#p269594ada7)" style="fill: #02aff9; stroke: #02aff9"/>
   </g>
   <g id="text_1">
    <g clip-path="url(#p269594ada7)">
     <!-- 11 -->
     <g transform="translate(473.93656 293.363438) scale(0.09 -0.09)">
      <defs>
       <path id="DejaVuSerif-31" d="M 909 0 
L 909 331 
L 1722 331 
L 1722 4213 
L 781 3603 
L 781 4013 
L 1919 4750 
L 2350 4750 
L 2350 331 
L 3163 331 
L 3163 0 
L 909 0 
z
" transform="scale(0.015625)"/>
      </defs>
      <use xlink:href="#DejaVuSerif-31"/>
      <use xlink:href="#DejaVuSerif-31" x="63.623047"/>
     </g>
    </g>
   </g>
   <g id="text_2">
    <g clip-path="url(#p269594ada7)">
     <!-- 14 -->
     <g transform="translate(457.812735 218.409098) scale(0.09 -0.09)">
      <defs>
       <path id="DejaVuSerif-34" d="M 2234 1581 
L 2234 4063 
L 641 1581 
L 2234 1581 
z
M 3609 0 
L 1484 0 
L 1484 331 
L 2234 331 
L 2234 1247 
L 197 1247 
L 197 1588 
L 2241 4750 
L 2859 4750 
L 2859 1581 
L 3750 1581 
L 3750 1247 
L 2859 1247 
L 2859 331 
L 3609 331 
L 3609 0 
z
" transform="scale(0.015625)"/>
      </defs>
      <use xlink:href="#DejaVuSerif-31"/>
      <use xlink:href="#DejaVuSerif-34" x="63.623047"/>
     </g>
    </g>
   </g>
   <g id="text_3">
    <g clip-path="url(#p269594ada7)">
     <!-- 13 -->
     <g transform="translate(412.229228 156.415036) scale(0.09 -0.09)">
      <defs>
       <path id="DejaVuSerif-33" d="M 622 4469 
Q 988 4606 1323 4678 
Q 1659 4750 1953 4750 
Q 2638 4750 3022 4454 
Q 3406 4159 3406 3634 
Q 3406 3213 3140 2930 
Q 2875 2647 2388 2547 
Q 2963 2466 3280 2130 
Q 3597 1794 3597 1259 
Q 3597 606 3158 257 
Q 2719 -91 1894 -91 
Q 1528 -91 1179 -12 
Q 831 66 488 225 
L 488 1131 
L 838 1131 
Q 869 681 1141 450 
Q 1413 219 1906 219 
Q 2384 219 2661 495 
Q 2938 772 2938 1253 
Q 2938 1803 2653 2086 
Q 2369 2369 1819 2369 
L 1522 2369 
L 1522 2688 
L 1678 2688 
Q 2225 2688 2498 2914 
Q 2772 3141 2772 3597 
Q 2772 4006 2547 4223 
Q 2322 4441 1900 4441 
Q 1478 4441 1245 4241 
Q 1013 4041 972 3647 
L 622 3647 
L 622 4469 
z
" transform="scale(0.015625)"/>
      </defs>
      <use xlink:href="#DejaVuSerif-31"/>
      <use xlink:href="#DejaVuSerif-33" x="63.623047"/>
     </g>
    </g>
   </g>
   <g id="text_4">
    <g clip-path="url(#p269594ada7)">
     <!-- 10 -->
     <g transform="translate(345.067845 118.100607) scale(0.09 -0.09)">
      <defs>
       <path id="DejaVuSerif-30" d="M 2034 219 
Q 2513 219 2750 744 
Q 2988 1269 2988 2328 
Q 2988 3391 2750 3916 
Q 2513 4441 2034 4441 
Q 1556 4441 1318 3916 
Q 1081 3391 1081 2328 
Q 1081 1269 1318 744 
Q 1556 219 2034 219 
z
M 2034 -91 
Q 1275 -91 848 546 
Q 422 1184 422 2328 
Q 422 3475 848 4112 
Q 1275 4750 2034 4750 
Q 2797 4750 3222 4112 
Q 3647 3475 3647 2328 
Q 3647 1184 3222 546 
Q 2797 -91 2034 -91 
z
" transform="scale(0.015625)"/>
      </defs>
      <use xlink:href="#DejaVuSerif-31"/>
      <use xlink:href="#DejaVuSerif-30" x="63.623047"/>
     </g>
    </g>
   </g>
   <g id="text_5">
    <g clip-path="url(#p269594ada7)">
     <!-- 9 -->
     <g transform="translate(270.804511 110.09071) scale(0.09 -0.09)">
      <defs>
       <path id="DejaVuSerif-39" d="M 2994 2091 
Q 2784 1856 2512 1740 
Q 2241 1625 1900 1625 
Q 1206 1625 804 2044 
Q 403 2463 403 3188 
Q 403 3897 839 4323 
Q 1275 4750 2003 4750 
Q 2794 4750 3217 4161 
Q 3641 3572 3641 2478 
Q 3641 1253 3137 581 
Q 2634 -91 1722 -91 
Q 1475 -91 1203 -44 
Q 931 3 647 97 
L 647 872 
L 997 872 
Q 1038 556 1241 387 
Q 1444 219 1784 219 
Q 2391 219 2687 676 
Q 2984 1134 2994 2091 
z
M 1978 4441 
Q 1534 4441 1298 4117 
Q 1063 3794 1063 3188 
Q 1063 2581 1298 2256 
Q 1534 1931 1978 1931 
Q 2422 1931 2658 2245 
Q 2894 2559 2894 3150 
Q 2894 3772 2656 4106 
Q 2419 4441 1978 4441 
z
" transform="scale(0.015625)"/>
      </defs>
      <use xlink:href="#DejaVuSerif-39"/>
     </g>
    </g>
   </g>
   <g id="text_6">
    <g clip-path="url(#p269594ada7)">
     <!-- 12 -->
     <g transform="translate(194.185724 133.770338) scale(0.09 -0.09)">
      <defs>
       <path id="DejaVuSerif-32" d="M 819 3553 
L 469 3553 
L 469 4384 
Q 803 4563 1142 4656 
Q 1481 4750 1806 4750 
Q 2534 4750 2956 4397 
Q 3378 4044 3378 3438 
Q 3378 2753 2422 1800 
Q 2347 1728 2309 1691 
L 1131 513 
L 3078 513 
L 3078 1088 
L 3444 1088 
L 3444 0 
L 434 0 
L 434 341 
L 1850 1753 
Q 2319 2222 2519 2614 
Q 2719 3006 2719 3438 
Q 2719 3909 2473 4175 
Q 2228 4441 1797 4441 
Q 1350 4441 1106 4219 
Q 863 3997 819 3553 
z
" transform="scale(0.015625)"/>
      </defs>
      <use xlink:href="#DejaVuSerif-31"/>
      <use xlink:href="#DejaVuSerif-32" x="63.623047"/>
     </g>
    </g>
   </g>
   <g id="text_7">
    <g clip-path="url(#p269594ada7)">
     <!-- 8 -->
     <g transform="translate(139.417019 185.045056) scale(0.09 -0.09)">
      <defs>
       <path id="DejaVuSerif-38" d="M 2981 1275 
Q 2981 1775 2732 2051 
Q 2484 2328 2034 2328 
Q 1584 2328 1336 2051 
Q 1088 1775 1088 1275 
Q 1088 772 1336 495 
Q 1584 219 2034 219 
Q 2484 219 2732 495 
Q 2981 772 2981 1275 
z
M 2853 3541 
Q 2853 3966 2637 4203 
Q 2422 4441 2034 4441 
Q 1650 4441 1433 4203 
Q 1216 3966 1216 3541 
Q 1216 3113 1433 2875 
Q 1650 2638 2034 2638 
Q 2422 2638 2637 2875 
Q 2853 3113 2853 3541 
z
M 2516 2484 
Q 3047 2413 3344 2092 
Q 3641 1772 3641 1275 
Q 3641 619 3225 264 
Q 2809 -91 2034 -91 
Q 1263 -91 845 264 
Q 428 619 428 1275 
Q 428 1772 725 2092 
Q 1022 2413 1556 2484 
Q 1084 2569 832 2842 
Q 581 3116 581 3541 
Q 581 4103 968 4426 
Q 1356 4750 2034 4750 
Q 2713 4750 3100 4426 
Q 3488 4103 3488 3541 
Q 3488 3116 3236 2842 
Q 2984 2569 2516 2484 
z
" transform="scale(0.015625)"/>
      </defs>
      <use xlink:href="#DejaVuSerif-38"/>
     </g>
    </g>
   </g>
   <g id="text_8">
    <g clip-path="url(#p269594ada7)">
     <!-- 6 -->
     <g transform="translate(107.874065 255.04902) scale(0.09 -0.09)">
      <defs>
       <path id="DejaVuSerif-36" d="M 2094 219 
Q 2534 219 2771 542 
Q 3009 866 3009 1472 
Q 3009 2078 2771 2401 
Q 2534 2725 2094 2725 
Q 1647 2725 1412 2412 
Q 1178 2100 1178 1509 
Q 1178 888 1415 553 
Q 1653 219 2094 219 
z
M 1075 2569 
Q 1288 2803 1556 2918 
Q 1825 3034 2163 3034 
Q 2859 3034 3264 2615 
Q 3669 2197 3669 1472 
Q 3669 763 3233 336 
Q 2797 -91 2069 -91 
Q 1278 -91 853 498 
Q 428 1088 428 2181 
Q 428 3406 931 4078 
Q 1434 4750 2350 4750 
Q 2597 4750 2869 4703 
Q 3141 4656 3425 4563 
L 3425 3794 
L 3072 3794 
Q 3034 4109 2831 4275 
Q 2628 4441 2284 4441 
Q 1678 4441 1381 3981 
Q 1084 3522 1075 2569 
z
" transform="scale(0.015625)"/>
      </defs>
      <use xlink:href="#DejaVuSerif-36"/>
     </g>
    </g>
   </g>
   <g id="text_9">
    <g clip-path="url(#p269594ada7)">
     <!-- 7 -->
     <g transform="translate(107.874076 331.677888) scale(0.09 -0.09)">
      <defs>
       <path id="DejaVuSerif-37" d="M 3609 4347 
L 1784 0 
L 1319 0 
L 3059 4153 
L 903 4153 
L 903 3578 
L 538 3578 
L 538 4666 
L 3609 4666 
L 3609 4347 
z
" transform="scale(0.015625)"/>
      </defs>
      <use xlink:href="#DejaVuSerif-37"/>
     </g>
    </g>
   </g>
   <g id="text_10">
    <g clip-path="url(#p269594ada7)">
     <!-- 4 -->
     <g transform="translate(139.41703 401.68183) scale(0.09 -0.09)">
      <use xlink:href="#DejaVuSerif-34"/>
     </g>
    </g>
   </g>
   <g id="text_11">
    <g clip-path="url(#p269594ada7)">
     <!-- 3 -->
     <g transform="translate(197.048877 452.956548) scale(0.09 -0.09)">
      <use xlink:href="#DejaVuSerif-33"/>
     </g>
    </g>
   </g>
   <g id="text_12">
    <g clip-path="url(#p269594ada7)">
     <!-- 2 -->
     <g transform="translate(270.804544 476.636165) scale(0.09 -0.09)">
      <use xlink:href="#DejaVuSerif-32"/>
     </g>
    </g>
   </g>
   <g id="text_13">
    <g clip-path="url(#p269594ada7)">
     <!-- 1 -->
     <g transform="translate(347.930998 468.626257) scale(0.09 -0.09)">
      <use xlink:href="#DejaVuSerif-31"/>
     </g>
    </g>
   </g>
   <g id="text_14">
    <g clip-path="url(#p269594ada7)">
     <!-- 5 -->
     <g transform="translate(415.092386 430.311806) scale(0.09 -0.09)">
      <defs>
       <path id="DejaVuSerif-35" d="M 3219 4666 
L 3219 4153 
L 1081 4153 
L 1081 2816 
Q 1244 2928 1461 2984 
Q 1678 3041 1947 3041 
Q 2703 3041 3140 2622 
Q 3578 2203 3578 1478 
Q 3578 738 3136 323 
Q 2694 -91 1894 -91 
Q 1572 -91 1234 -12 
Q 897 66 544 225 
L 544 1131 
L 897 1131 
Q 925 688 1179 453 
Q 1434 219 1894 219 
Q 2388 219 2653 544 
Q 2919 869 2919 1478 
Q 2919 2084 2655 2407 
Q 2391 2731 1894 2731 
Q 1613 2731 1398 2631 
Q 1184 2531 1019 2322 
L 750 2322 
L 750 4666 
L 3219 4666 
z
" transform="scale(0.015625)"/>
      </defs>
      <use xlink:href="#DejaVuSerif-35"/>
     </g>
    </g>
   </g>
   <g id="text_15">
    <g clip-path="url(#p269594ada7)">
     <!-- 0 -->
     <g transform="translate(460.675882 368.31775) scale(0.09 -0.09)">
      <use xlink:href="#DejaVuSerif-30"/>
     </g>
    </g>
   </g>
  </g>
 </g>
 <defs>
  <clipPath id="p269594ada7">
   <rect x="72" y="69.12" width="446.4" height="443.52"/>
  </clipPath>
 </defs>
</svg>
