<?xml version="1.0" encoding="utf-8" standalone="no"?>
<!DOCTYPE svg PUBLIC "-//W3C//DTD SVG 1.1//EN"
  "http://www.w3.org/Graphics/SVG/1.1/DTD/svg11.dtd">
<svg xmlns:xlink="http://www.w3.org/1999/xlink" width="576pt" height="576pt" viewBox="0 0 576 576" xmlns="http://www.w3.org/2000/svg" version="1.1">
 <metadata>
  <rdf:RDF xmlns:dc="http://purl.org/dc/elements/1.1/" xmlns:cc="http://creativecommons.org/ns#" xmlns:rdf="http://www.w3.org/1999/02/22-rdf-syntax-ns#">
   <cc:Work>
    <dc:type rdf:resource="http://purl.org/dc/dcmitype/StillImage"/>
    <dc:date>2025-01-15T09:53:49.205161</dc:date>
    <dc:format>image/svg+xml</dc:format>
    <dc:creator>
     <cc:Agent>
      <dc:title>Matplotlib v3.9.2, https://matplotlib.org/</dc:title>
     </cc:Agent>
    </dc:creator>
   </cc:Work>
  </rdf:RDF>
 </metadata>
 <defs>
  <style type="text/css">*{stroke-linejoin: round; stroke-linecap: butt}</style>
 </defs>
 <g id="figure_1">
  <g id="patch_1">
   <path d="M 0 576 
L 576 576 
L 576 0 
L 0 0 
L 0 576 
z
" style="fill: none"/>
  </g>
  <g id="axes_1">
   <g id="LineCollection_1">
    <path d="M 136.601111 237.717545 
L 142.712366 299.703401 
" clip-path="url(#pc27512e6db)" style="fill: none; stroke: #000000"/>
    <path d="M 136.601111 237.717545 
L 107.424224 174.808165 
" clip-path="url(#pc27512e6db)" style="fill: none; stroke: #000000"/>
    <path d="M 136.601111 237.717545 
L 174.768235 264.785956 
" clip-path="url(#pc27512e6db)" style="fill: none; stroke: #000000"/>
    <path d="M 142.712366 299.703401 
L 174.768235 264.785956 
" clip-path="url(#pc27512e6db)" style="fill: none; stroke: #000000"/>
    <path d="M 142.712366 299.703401 
L 160.860112 315.585972 
" clip-path="url(#pc27512e6db)" style="fill: none; stroke: #000000"/>
    <path d="M 107.424224 174.808165 
L 89.607814 150.053498 
" clip-path="url(#pc27512e6db)" style="fill: none; stroke: #000000"/>
    <path d="M 107.424224 174.808165 
L 115.915258 107.607273 
" clip-path="url(#pc27512e6db)" style="fill: none; stroke: #000000"/>
    <path d="M 107.424224 174.808165 
L 113.561921 235.800623 
" clip-path="url(#pc27512e6db)" style="fill: none; stroke: #000000"/>
    <path d="M 89.607814 150.053498 
L 115.915258 107.607273 
" clip-path="url(#pc27512e6db)" style="fill: none; stroke: #000000"/>
    <path d="M 89.607814 150.053498 
L 113.561921 235.800623 
" clip-path="url(#pc27512e6db)" style="fill: none; stroke: #000000"/>
    <path d="M 257.301277 151.045406 
L 222.38547 199.084881 
" clip-path="url(#pc27512e6db)" style="fill: none; stroke: #000000"/>
    <path d="M 222.38547 199.084881 
L 174.768235 264.785956 
" clip-path="url(#pc27512e6db)" style="fill: none; stroke: #000000"/>
    <path d="M 174.768235 264.785956 
L 153.823691 151.335179 
" clip-path="url(#pc27512e6db)" style="fill: none; stroke: #000000"/>
    <path d="M 174.768235 264.785956 
L 188.954627 379.748873 
" clip-path="url(#pc27512e6db)" style="fill: none; stroke: #000000"/>
    <path d="M 174.768235 264.785956 
L 163.129143 376.057644 
" clip-path="url(#pc27512e6db)" style="fill: none; stroke: #000000"/>
    <path d="M 160.860112 315.585972 
L 203.100318 331.780189 
" clip-path="url(#pc27512e6db)" style="fill: none; stroke: #000000"/>
    <path d="M 160.860112 315.585972 
L 113.561921 235.800623 
" clip-path="url(#pc27512e6db)" style="fill: none; stroke: #000000"/>
    <path d="M 160.860112 315.585972 
L 188.954627 379.748873 
" clip-path="url(#pc27512e6db)" style="fill: none; stroke: #000000"/>
    <path d="M 115.915258 107.607273 
L 153.823691 151.335179 
" clip-path="url(#pc27512e6db)" style="fill: none; stroke: #000000"/>
    <path d="M 188.954627 379.748873 
L 209.005194 474.152727 
" clip-path="url(#pc27512e6db)" style="fill: none; stroke: #000000"/>
   </g>
   <g id="PathCollection_1">
    <path d="M 136.601111 240.217545 
C 137.264119 240.217545 137.900061 239.95413 138.368878 239.485312 
C 138.837695 239.016495 139.101111 238.380553 139.101111 237.717545 
C 139.101111 237.054538 138.837695 236.418596 138.368878 235.949778 
C 137.900061 235.480961 137.264119 235.217545 136.601111 235.217545 
C 135.938103 235.217545 135.302161 235.480961 134.833344 235.949778 
C 134.364527 236.418596 134.101111 237.054538 134.101111 237.717545 
C 134.101111 238.380553 134.364527 239.016495 134.833344 239.485312 
C 135.302161 239.95413 135.938103 240.217545 136.601111 240.217545 
z
" clip-path="url(#pc27512e6db)" style="fill: #ff0029; stroke: #ff0029"/>
    <path d="M 142.712366 304.033528 
C 143.860729 304.033528 144.962213 303.577278 145.774228 302.765263 
C 146.586243 301.953248 147.042493 300.851764 147.042493 299.703401 
C 147.042493 298.555038 146.586243 297.453554 145.774228 296.641539 
C 144.962213 295.829523 143.860729 295.373274 142.712366 295.373274 
C 141.564003 295.373274 140.462519 295.829523 139.650503 296.641539 
C 138.838488 297.453554 138.382239 298.555038 138.382239 299.703401 
C 138.382239 300.851764 138.838488 301.953248 139.650503 302.765263 
C 140.462519 303.577278 141.564003 304.033528 142.712366 304.033528 
z
" clip-path="url(#pc27512e6db)" style="fill: #ff0029; stroke: #ff0029"/>
    <path d="M 107.424224 178.343699 
C 108.361858 178.343699 109.261216 177.971173 109.924224 177.308165 
C 110.587232 176.645157 110.959758 175.7458 110.959758 174.808165 
C 110.959758 173.870531 110.587232 172.971173 109.924224 172.308165 
C 109.261216 171.645157 108.361858 171.272631 107.424224 171.272631 
C 106.486589 171.272631 105.587232 171.645157 104.924224 172.308165 
C 104.261216 172.971173 103.88869 173.870531 103.88869 174.808165 
C 103.88869 175.7458 104.261216 176.645157 104.924224 177.308165 
C 105.587232 177.971173 106.486589 178.343699 107.424224 178.343699 
z
" clip-path="url(#pc27512e6db)" style="fill: #ff0029; stroke: #ff0029"/>
    <path d="M 89.607814 154.383625 
C 90.756177 154.383625 91.857661 153.927376 92.669676 153.115361 
C 93.481691 152.303345 93.937941 151.201862 93.937941 150.053498 
C 93.937941 148.905135 93.481691 147.803652 92.669676 146.991636 
C 91.857661 146.179621 90.756177 145.723371 89.607814 145.723371 
C 88.459451 145.723371 87.357967 146.179621 86.545951 146.991636 
C 85.733936 147.803652 85.277687 148.905135 85.277687 150.053498 
C 85.277687 151.201862 85.733936 152.303345 86.545951 153.115361 
C 87.357967 153.927376 88.459451 154.383625 89.607814 154.383625 
z
" clip-path="url(#pc27512e6db)" style="fill: #ff0029; stroke: #ff0029"/>
    <path d="M 257.301277 155.375533 
C 258.44964 155.375533 259.551124 154.919284 260.363139 154.107268 
C 261.175155 153.295253 261.631404 152.193769 261.631404 151.045406 
C 261.631404 149.897043 261.175155 148.795559 260.363139 147.983544 
C 259.551124 147.171528 258.44964 146.715279 257.301277 146.715279 
C 256.152914 146.715279 255.05143 147.171528 254.239415 147.983544 
C 253.4274 148.795559 252.97115 149.897043 252.97115 151.045406 
C 252.97115 152.193769 253.4274 153.295253 254.239415 154.107268 
C 255.05143 154.919284 256.152914 155.375533 257.301277 155.375533 
z
" clip-path="url(#pc27512e6db)" style="fill: #ff0029; stroke: #ff0029"/>
    <path d="M 222.38547 201.584881 
C 223.048478 201.584881 223.68442 201.321466 224.153237 200.852648 
C 224.622054 200.383831 224.88547 199.747889 224.88547 199.084881 
C 224.88547 198.421874 224.622054 197.785932 224.153237 197.317114 
C 223.68442 196.848297 223.048478 196.584881 222.38547 196.584881 
C 221.722462 196.584881 221.086521 196.848297 220.617703 197.317114 
C 220.148886 197.785932 219.88547 198.421874 219.88547 199.084881 
C 219.88547 199.747889 220.148886 200.383831 220.617703 200.852648 
C 221.086521 201.321466 221.722462 201.584881 222.38547 201.584881 
z
" clip-path="url(#pc27512e6db)" style="fill: #ff0029; stroke: #ff0029"/>
    <path d="M 174.768235 269.785956 
C 176.09425 269.785956 177.366134 269.259124 178.303769 268.32149 
C 179.241403 267.383855 179.768235 266.111971 179.768235 264.785956 
C 179.768235 263.45994 179.241403 262.188056 178.303769 261.250422 
C 177.366134 260.312787 176.09425 259.785956 174.768235 259.785956 
C 173.442219 259.785956 172.170335 260.312787 171.232701 261.250422 
C 170.295066 262.188056 169.768235 263.45994 169.768235 264.785956 
C 169.768235 266.111971 170.295066 267.383855 171.232701 268.32149 
C 172.170335 269.259124 173.442219 269.785956 174.768235 269.785956 
z
" clip-path="url(#pc27512e6db)" style="fill: #ff0029; stroke: #ff0029"/>
    <path d="M 160.860112 318.085972 
C 161.523119 318.085972 162.159061 317.822556 162.627879 317.353739 
C 163.096696 316.884921 163.360112 316.248979 163.360112 315.585972 
C 163.360112 314.922964 163.096696 314.287022 162.627879 313.818205 
C 162.159061 313.349387 161.523119 313.085972 160.860112 313.085972 
C 160.197104 313.085972 159.561162 313.349387 159.092345 313.818205 
C 158.623527 314.287022 158.360112 314.922964 158.360112 315.585972 
C 158.360112 316.248979 158.623527 316.884921 159.092345 317.353739 
C 159.561162 317.822556 160.197104 318.085972 160.860112 318.085972 
z
" clip-path="url(#pc27512e6db)" style="fill: #ff0029; stroke: #ff0029"/>
    <path d="M 203.100318 337.903913 
C 204.724349 337.903913 206.282082 337.258679 207.430445 336.110316 
C 208.578808 334.961953 209.224042 333.40422 209.224042 331.780189 
C 209.224042 330.156158 208.578808 328.598425 207.430445 327.450062 
C 206.282082 326.301699 204.724349 325.656465 203.100318 325.656465 
C 201.476287 325.656465 199.918554 326.301699 198.770191 327.450062 
C 197.621828 328.598425 196.976593 330.156158 196.976593 331.780189 
C 196.976593 333.40422 197.621828 334.961953 198.770191 336.110316 
C 199.918554 337.258679 201.476287 337.903913 203.100318 337.903913 
z
" clip-path="url(#pc27512e6db)" style="fill: #ff0029; stroke: #ff0029"/>
    <path d="M 115.915258 110.107273 
C 116.578266 110.107273 117.214208 109.843857 117.683025 109.37504 
C 118.151842 108.906222 118.415258 108.27028 118.415258 107.607273 
C 118.415258 106.944265 118.151842 106.308323 117.683025 105.839506 
C 117.214208 105.370688 116.578266 105.107273 115.915258 105.107273 
C 115.252251 105.107273 114.616309 105.370688 114.147491 105.839506 
C 113.678674 106.308323 113.415258 106.944265 113.415258 107.607273 
C 113.415258 108.27028 113.678674 108.906222 114.147491 109.37504 
C 114.616309 109.843857 115.252251 110.107273 115.915258 110.107273 
z
" clip-path="url(#pc27512e6db)" style="fill: #ff0029; stroke: #ff0029"/>
    <path d="M 113.561921 240.13075 
C 114.710284 240.13075 115.811768 239.674501 116.623783 238.862485 
C 117.435798 238.05047 117.892048 236.948986 117.892048 235.800623 
C 117.892048 234.65226 117.435798 233.550776 116.623783 232.738761 
C 115.811768 231.926746 114.710284 231.470496 113.561921 231.470496 
C 112.413558 231.470496 111.312074 231.926746 110.500059 232.738761 
C 109.688043 233.550776 109.231794 234.65226 109.231794 235.800623 
C 109.231794 236.948986 109.688043 238.05047 110.500059 238.862485 
C 111.312074 239.674501 112.413558 240.13075 113.561921 240.13075 
z
" clip-path="url(#pc27512e6db)" style="fill: #ff0029; stroke: #ff0029"/>
    <path d="M 153.823691 155.665306 
C 154.972054 155.665306 156.073538 155.209056 156.885554 154.397041 
C 157.697569 153.585026 158.153818 152.483542 158.153818 151.335179 
C 158.153818 150.186816 157.697569 149.085332 156.885554 148.273317 
C 156.073538 147.461301 154.972054 147.005052 153.823691 147.005052 
C 152.675328 147.005052 151.573845 147.461301 150.761829 148.273317 
C 149.949814 149.085332 149.493564 150.186816 149.493564 151.335179 
C 149.493564 152.483542 149.949814 153.585026 150.761829 154.397041 
C 151.573845 155.209056 152.675328 155.665306 153.823691 155.665306 
z
" clip-path="url(#pc27512e6db)" style="fill: #ff0029; stroke: #ff0029"/>
    <path d="M 188.954627 383.284407 
C 189.892261 383.284407 190.791619 382.911881 191.454627 382.248873 
C 192.117634 381.585865 192.49016 380.686507 192.49016 379.748873 
C 192.49016 378.811238 192.117634 377.911881 191.454627 377.248873 
C 190.791619 376.585865 189.892261 376.213339 188.954627 376.213339 
C 188.016992 376.213339 187.117634 376.585865 186.454627 377.248873 
C 185.791619 377.911881 185.419093 378.811238 185.419093 379.748873 
C 185.419093 380.686507 185.791619 381.585865 186.454627 382.248873 
C 187.117634 382.911881 188.016992 383.284407 188.954627 383.284407 
z
" clip-path="url(#pc27512e6db)" style="fill: #ff0029; stroke: #ff0029"/>
    <path d="M 209.005194 479.152727 
C 210.33121 479.152727 211.603093 478.625896 212.540728 477.688261 
C 213.478363 476.750627 214.005194 475.478743 214.005194 474.152727 
C 214.005194 472.826712 213.478363 471.554828 212.540728 470.617193 
C 211.603093 469.679559 210.33121 469.152727 209.005194 469.152727 
C 207.679179 469.152727 206.407295 469.679559 205.46966 470.617193 
C 204.532026 471.554828 204.005194 472.826712 204.005194 474.152727 
C 204.005194 475.478743 204.532026 476.750627 205.46966 477.688261 
C 206.407295 478.625896 207.679179 479.152727 209.005194 479.152727 
z
" clip-path="url(#pc27512e6db)" style="fill: #ff0029; stroke: #ff0029"/>
    <path d="M 163.129143 380.387771 
C 164.277506 380.387771 165.37899 379.931522 166.191005 379.119506 
C 167.003021 378.307491 167.45927 377.206007 167.45927 376.057644 
C 167.45927 374.909281 167.003021 373.807797 166.191005 372.995782 
C 165.37899 372.183767 164.277506 371.727517 163.129143 371.727517 
C 161.98078 371.727517 160.879296 372.183767 160.067281 372.995782 
C 159.255266 373.807797 158.799016 374.909281 158.799016 376.057644 
C 158.799016 377.206007 159.255266 378.307491 160.067281 379.119506 
C 160.879296 379.931522 161.98078 380.387771 163.129143 380.387771 
z
" clip-path="url(#pc27512e6db)" style="fill: #ff0029; stroke: #ff0029"/>
   </g>
   <g id="text_1">
    <g clip-path="url(#pc27512e6db)">
     <!-- 11 -->
     <g transform="translate(130.874861 240.200983) scale(0.09 -0.09)">
      <defs>
       <path id="DejaVuSerif-31" d="M 909 0 
L 909 331 
L 1722 331 
L 1722 4213 
L 781 3603 
L 781 4013 
L 1919 4750 
L 2350 4750 
L 2350 331 
L 3163 331 
L 3163 0 
L 909 0 
z
" transform="scale(0.015625)"/>
      </defs>
      <use xlink:href="#DejaVuSerif-31"/>
      <use xlink:href="#DejaVuSerif-31" x="63.623047"/>
     </g>
    </g>
   </g>
   <g id="text_2">
    <g clip-path="url(#pc27512e6db)">
     <!-- 14 -->
     <g transform="translate(136.986116 302.186838) scale(0.09 -0.09)">
      <defs>
       <path id="DejaVuSerif-34" d="M 2234 1581 
L 2234 4063 
L 641 1581 
L 2234 1581 
z
M 3609 0 
L 1484 0 
L 1484 331 
L 2234 331 
L 2234 1247 
L 197 1247 
L 197 1588 
L 2241 4750 
L 2859 4750 
L 2859 1581 
L 3750 1581 
L 3750 1247 
L 2859 1247 
L 2859 331 
L 3609 331 
L 3609 0 
z
" transform="scale(0.015625)"/>
      </defs>
      <use xlink:href="#DejaVuSerif-31"/>
      <use xlink:href="#DejaVuSerif-34" x="63.623047"/>
     </g>
    </g>
   </g>
   <g id="text_3">
    <g clip-path="url(#pc27512e6db)">
     <!-- 13 -->
     <g transform="translate(101.697974 177.291603) scale(0.09 -0.09)">
      <defs>
       <path id="DejaVuSerif-33" d="M 622 4469 
Q 988 4606 1323 4678 
Q 1659 4750 1953 4750 
Q 2638 4750 3022 4454 
Q 3406 4159 3406 3634 
Q 3406 3213 3140 2930 
Q 2875 2647 2388 2547 
Q 2963 2466 3280 2130 
Q 3597 1794 3597 1259 
Q 3597 606 3158 257 
Q 2719 -91 1894 -91 
Q 1528 -91 1179 -12 
Q 831 66 488 225 
L 488 1131 
L 838 1131 
Q 869 681 1141 450 
Q 1413 219 1906 219 
Q 2384 219 2661 495 
Q 2938 772 2938 1253 
Q 2938 1803 2653 2086 
Q 2369 2369 1819 2369 
L 1522 2369 
L 1522 2688 
L 1678 2688 
Q 2225 2688 2498 2914 
Q 2772 3141 2772 3597 
Q 2772 4006 2547 4223 
Q 2322 4441 1900 4441 
Q 1478 4441 1245 4241 
Q 1013 4041 972 3647 
L 622 3647 
L 622 4469 
z
" transform="scale(0.015625)"/>
      </defs>
      <use xlink:href="#DejaVuSerif-31"/>
      <use xlink:href="#DejaVuSerif-33" x="63.623047"/>
     </g>
    </g>
   </g>
   <g id="text_4">
    <g clip-path="url(#pc27512e6db)">
     <!-- 10 -->
     <g transform="translate(83.881564 152.536936) scale(0.09 -0.09)">
      <defs>
       <path id="DejaVuSerif-30" d="M 2034 219 
Q 2513 219 2750 744 
Q 2988 1269 2988 2328 
Q 2988 3391 2750 3916 
Q 2513 4441 2034 4441 
Q 1556 4441 1318 3916 
Q 1081 3391 1081 2328 
Q 1081 1269 1318 744 
Q 1556 219 2034 219 
z
M 2034 -91 
Q 1275 -91 848 546 
Q 422 1184 422 2328 
Q 422 3475 848 4112 
Q 1275 4750 2034 4750 
Q 2797 4750 3222 4112 
Q 3647 3475 3647 2328 
Q 3647 1184 3222 546 
Q 2797 -91 2034 -91 
z
" transform="scale(0.015625)"/>
      </defs>
      <use xlink:href="#DejaVuSerif-31"/>
      <use xlink:href="#DejaVuSerif-30" x="63.623047"/>
     </g>
    </g>
   </g>
   <g id="text_5">
    <g clip-path="url(#pc27512e6db)">
     <!-- 9 -->
     <g transform="translate(254.438152 153.528844) scale(0.09 -0.09)">
      <defs>
       <path id="DejaVuSerif-39" d="M 2994 2091 
Q 2784 1856 2512 1740 
Q 2241 1625 1900 1625 
Q 1206 1625 804 2044 
Q 403 2463 403 3188 
Q 403 3897 839 4323 
Q 1275 4750 2003 4750 
Q 2794 4750 3217 4161 
Q 3641 3572 3641 2478 
Q 3641 1253 3137 581 
Q 2634 -91 1722 -91 
Q 1475 -91 1203 -44 
Q 931 3 647 97 
L 647 872 
L 997 872 
Q 1038 556 1241 387 
Q 1444 219 1784 219 
Q 2391 219 2687 676 
Q 2984 1134 2994 2091 
z
M 1978 4441 
Q 1534 4441 1298 4117 
Q 1063 3794 1063 3188 
Q 1063 2581 1298 2256 
Q 1534 1931 1978 1931 
Q 2422 1931 2658 2245 
Q 2894 2559 2894 3150 
Q 2894 3772 2656 4106 
Q 2419 4441 1978 4441 
z
" transform="scale(0.015625)"/>
      </defs>
      <use xlink:href="#DejaVuSerif-39"/>
     </g>
    </g>
   </g>
   <g id="text_6">
    <g clip-path="url(#pc27512e6db)">
     <!-- 12 -->
     <g transform="translate(216.65922 201.568319) scale(0.09 -0.09)">
      <defs>
       <path id="DejaVuSerif-32" d="M 819 3553 
L 469 3553 
L 469 4384 
Q 803 4563 1142 4656 
Q 1481 4750 1806 4750 
Q 2534 4750 2956 4397 
Q 3378 4044 3378 3438 
Q 3378 2753 2422 1800 
Q 2347 1728 2309 1691 
L 1131 513 
L 3078 513 
L 3078 1088 
L 3444 1088 
L 3444 0 
L 434 0 
L 434 341 
L 1850 1753 
Q 2319 2222 2519 2614 
Q 2719 3006 2719 3438 
Q 2719 3909 2473 4175 
Q 2228 4441 1797 4441 
Q 1350 4441 1106 4219 
Q 863 3997 819 3553 
z
" transform="scale(0.015625)"/>
      </defs>
      <use xlink:href="#DejaVuSerif-31"/>
      <use xlink:href="#DejaVuSerif-32" x="63.623047"/>
     </g>
    </g>
   </g>
   <g id="text_7">
    <g clip-path="url(#pc27512e6db)">
     <!-- 8 -->
     <g transform="translate(171.90511 267.269393) scale(0.09 -0.09)">
      <defs>
       <path id="DejaVuSerif-38" d="M 2981 1275 
Q 2981 1775 2732 2051 
Q 2484 2328 2034 2328 
Q 1584 2328 1336 2051 
Q 1088 1775 1088 1275 
Q 1088 772 1336 495 
Q 1584 219 2034 219 
Q 2484 219 2732 495 
Q 2981 772 2981 1275 
z
M 2853 3541 
Q 2853 3966 2637 4203 
Q 2422 4441 2034 4441 
Q 1650 4441 1433 4203 
Q 1216 3966 1216 3541 
Q 1216 3113 1433 2875 
Q 1650 2638 2034 2638 
Q 2422 2638 2637 2875 
Q 2853 3113 2853 3541 
z
M 2516 2484 
Q 3047 2413 3344 2092 
Q 3641 1772 3641 1275 
Q 3641 619 3225 264 
Q 2809 -91 2034 -91 
Q 1263 -91 845 264 
Q 428 619 428 1275 
Q 428 1772 725 2092 
Q 1022 2413 1556 2484 
Q 1084 2569 832 2842 
Q 581 3116 581 3541 
Q 581 4103 968 4426 
Q 1356 4750 2034 4750 
Q 2713 4750 3100 4426 
Q 3488 4103 3488 3541 
Q 3488 3116 3236 2842 
Q 2984 2569 2516 2484 
z
" transform="scale(0.015625)"/>
      </defs>
      <use xlink:href="#DejaVuSerif-38"/>
     </g>
    </g>
   </g>
   <g id="text_8">
    <g clip-path="url(#pc27512e6db)">
     <!-- 6 -->
     <g transform="translate(157.996987 318.069409) scale(0.09 -0.09)">
      <defs>
       <path id="DejaVuSerif-36" d="M 2094 219 
Q 2534 219 2771 542 
Q 3009 866 3009 1472 
Q 3009 2078 2771 2401 
Q 2534 2725 2094 2725 
Q 1647 2725 1412 2412 
Q 1178 2100 1178 1509 
Q 1178 888 1415 553 
Q 1653 219 2094 219 
z
M 1075 2569 
Q 1288 2803 1556 2918 
Q 1825 3034 2163 3034 
Q 2859 3034 3264 2615 
Q 3669 2197 3669 1472 
Q 3669 763 3233 336 
Q 2797 -91 2069 -91 
Q 1278 -91 853 498 
Q 428 1088 428 2181 
Q 428 3406 931 4078 
Q 1434 4750 2350 4750 
Q 2597 4750 2869 4703 
Q 3141 4656 3425 4563 
L 3425 3794 
L 3072 3794 
Q 3034 4109 2831 4275 
Q 2628 4441 2284 4441 
Q 1678 4441 1381 3981 
Q 1084 3522 1075 2569 
z
" transform="scale(0.015625)"/>
      </defs>
      <use xlink:href="#DejaVuSerif-36"/>
     </g>
    </g>
   </g>
   <g id="text_9">
    <g clip-path="url(#pc27512e6db)">
     <!-- 7 -->
     <g transform="translate(200.237193 334.263627) scale(0.09 -0.09)">
      <defs>
       <path id="DejaVuSerif-37" d="M 3609 4347 
L 1784 0 
L 1319 0 
L 3059 4153 
L 903 4153 
L 903 3578 
L 538 3578 
L 538 4666 
L 3609 4666 
L 3609 4347 
z
" transform="scale(0.015625)"/>
      </defs>
      <use xlink:href="#DejaVuSerif-37"/>
     </g>
    </g>
   </g>
   <g id="text_10">
    <g clip-path="url(#pc27512e6db)">
     <!-- 4 -->
     <g transform="translate(113.052133 110.09071) scale(0.09 -0.09)">
      <use xlink:href="#DejaVuSerif-34"/>
     </g>
    </g>
   </g>
   <g id="text_11">
    <g clip-path="url(#pc27512e6db)">
     <!-- 3 -->
     <g transform="translate(110.698796 238.284061) scale(0.09 -0.09)">
      <use xlink:href="#DejaVuSerif-33"/>
     </g>
    </g>
   </g>
   <g id="text_12">
    <g clip-path="url(#pc27512e6db)">
     <!-- 2 -->
     <g transform="translate(150.960566 153.818616) scale(0.09 -0.09)">
      <use xlink:href="#DejaVuSerif-32"/>
     </g>
    </g>
   </g>
   <g id="text_13">
    <g clip-path="url(#pc27512e6db)">
     <!-- 1 -->
     <g transform="translate(186.091502 382.23231) scale(0.09 -0.09)">
      <use xlink:href="#DejaVuSerif-31"/>
     </g>
    </g>
   </g>
   <g id="text_14">
    <g clip-path="url(#pc27512e6db)">
     <!-- 5 -->
     <g transform="translate(206.142069 476.636165) scale(0.09 -0.09)">
      <defs>
       <path id="DejaVuSerif-35" d="M 3219 4666 
L 3219 4153 
L 1081 4153 
L 1081 2816 
Q 1244 2928 1461 2984 
Q 1678 3041 1947 3041 
Q 2703 3041 3140 2622 
Q 3578 2203 3578 1478 
Q 3578 738 3136 323 
Q 2694 -91 1894 -91 
Q 1572 -91 1234 -12 
Q 897 66 544 225 
L 544 1131 
L 897 1131 
Q 925 688 1179 453 
Q 1434 219 1894 219 
Q 2388 219 2653 544 
Q 2919 869 2919 1478 
Q 2919 2084 2655 2407 
Q 2391 2731 1894 2731 
Q 1613 2731 1398 2631 
Q 1184 2531 1019 2322 
L 750 2322 
L 750 4666 
L 3219 4666 
z
" transform="scale(0.015625)"/>
      </defs>
      <use xlink:href="#DejaVuSerif-35"/>
     </g>
    </g>
   </g>
   <g id="text_15">
    <g clip-path="url(#pc27512e6db)">
     <!-- 0 -->
     <g transform="translate(160.266018 378.541082) scale(0.09 -0.09)">
      <use xlink:href="#DejaVuSerif-30"/>
     </g>
    </g>
   </g>
   <g id="text_16">
    <!-- marriage -->
    <g transform="translate(146.260483 63.12) scale(0.12 -0.12)">
     <defs>
      <path id="DejaVuSans-6d" d="M 3328 2828 
Q 3544 3216 3844 3400 
Q 4144 3584 4550 3584 
Q 5097 3584 5394 3201 
Q 5691 2819 5691 2113 
L 5691 0 
L 5113 0 
L 5113 2094 
Q 5113 2597 4934 2840 
Q 4756 3084 4391 3084 
Q 3944 3084 3684 2787 
Q 3425 2491 3425 1978 
L 3425 0 
L 2847 0 
L 2847 2094 
Q 2847 2600 2669 2842 
Q 2491 3084 2119 3084 
Q 1678 3084 1418 2786 
Q 1159 2488 1159 1978 
L 1159 0 
L 581 0 
L 581 3500 
L 1159 3500 
L 1159 2956 
Q 1356 3278 1631 3431 
Q 1906 3584 2284 3584 
Q 2666 3584 2933 3390 
Q 3200 3197 3328 2828 
z
" transform="scale(0.015625)"/>
      <path id="DejaVuSans-61" d="M 2194 1759 
Q 1497 1759 1228 1600 
Q 959 1441 959 1056 
Q 959 750 1161 570 
Q 1363 391 1709 391 
Q 2188 391 2477 730 
Q 2766 1069 2766 1631 
L 2766 1759 
L 2194 1759 
z
M 3341 1997 
L 3341 0 
L 2766 0 
L 2766 531 
Q 2569 213 2275 61 
Q 1981 -91 1556 -91 
Q 1019 -91 701 211 
Q 384 513 384 1019 
Q 384 1609 779 1909 
Q 1175 2209 1959 2209 
L 2766 2209 
L 2766 2266 
Q 2766 2663 2505 2880 
Q 2244 3097 1772 3097 
Q 1472 3097 1187 3025 
Q 903 2953 641 2809 
L 641 3341 
Q 956 3463 1253 3523 
Q 1550 3584 1831 3584 
Q 2591 3584 2966 3190 
Q 3341 2797 3341 1997 
z
" transform="scale(0.015625)"/>
      <path id="DejaVuSans-72" d="M 2631 2963 
Q 2534 3019 2420 3045 
Q 2306 3072 2169 3072 
Q 1681 3072 1420 2755 
Q 1159 2438 1159 1844 
L 1159 0 
L 581 0 
L 581 3500 
L 1159 3500 
L 1159 2956 
Q 1341 3275 1631 3429 
Q 1922 3584 2338 3584 
Q 2397 3584 2469 3576 
Q 2541 3569 2628 3553 
L 2631 2963 
z
" transform="scale(0.015625)"/>
      <path id="DejaVuSans-69" d="M 603 3500 
L 1178 3500 
L 1178 0 
L 603 0 
L 603 3500 
z
M 603 4863 
L 1178 4863 
L 1178 4134 
L 603 4134 
L 603 4863 
z
" transform="scale(0.015625)"/>
      <path id="DejaVuSans-67" d="M 2906 1791 
Q 2906 2416 2648 2759 
Q 2391 3103 1925 3103 
Q 1463 3103 1205 2759 
Q 947 2416 947 1791 
Q 947 1169 1205 825 
Q 1463 481 1925 481 
Q 2391 481 2648 825 
Q 2906 1169 2906 1791 
z
M 3481 434 
Q 3481 -459 3084 -895 
Q 2688 -1331 1869 -1331 
Q 1566 -1331 1297 -1286 
Q 1028 -1241 775 -1147 
L 775 -588 
Q 1028 -725 1275 -790 
Q 1522 -856 1778 -856 
Q 2344 -856 2625 -561 
Q 2906 -266 2906 331 
L 2906 616 
Q 2728 306 2450 153 
Q 2172 0 1784 0 
Q 1141 0 747 490 
Q 353 981 353 1791 
Q 353 2603 747 3093 
Q 1141 3584 1784 3584 
Q 2172 3584 2450 3431 
Q 2728 3278 2906 2969 
L 2906 3500 
L 3481 3500 
L 3481 434 
z
" transform="scale(0.015625)"/>
      <path id="DejaVuSans-65" d="M 3597 1894 
L 3597 1613 
L 953 1613 
Q 991 1019 1311 708 
Q 1631 397 2203 397 
Q 2534 397 2845 478 
Q 3156 559 3463 722 
L 3463 178 
Q 3153 47 2828 -22 
Q 2503 -91 2169 -91 
Q 1331 -91 842 396 
Q 353 884 353 1716 
Q 353 2575 817 3079 
Q 1281 3584 2069 3584 
Q 2775 3584 3186 3129 
Q 3597 2675 3597 1894 
z
M 3022 2063 
Q 3016 2534 2758 2815 
Q 2500 3097 2075 3097 
Q 1594 3097 1305 2825 
Q 1016 2553 972 2059 
L 3022 2063 
z
" transform="scale(0.015625)"/>
     </defs>
     <use xlink:href="#DejaVuSans-6d"/>
     <use xlink:href="#DejaVuSans-61" x="97.412109"/>
     <use xlink:href="#DejaVuSans-72" x="158.691406"/>
     <use xlink:href="#DejaVuSans-72" x="198.054688"/>
     <use xlink:href="#DejaVuSans-69" x="239.167969"/>
     <use xlink:href="#DejaVuSans-61" x="266.951172"/>
     <use xlink:href="#DejaVuSans-67" x="328.230469"/>
     <use xlink:href="#DejaVuSans-65" x="391.707031"/>
    </g>
   </g>
  </g>
  <g id="axes_2">
   <g id="LineCollection_2">
    <path d="M 363.629259 293.587858 
L 334.672581 389.75798 
" clip-path="url(#p6896a16b3f)" style="fill: none; stroke: #000000"/>
    <path d="M 363.629259 293.587858 
L 357.54051 107.607273 
" clip-path="url(#p6896a16b3f)" style="fill: none; stroke: #000000"/>
    <path d="M 363.629259 293.587858 
L 333.098723 209.7421 
" clip-path="url(#p6896a16b3f)" style="fill: none; stroke: #000000"/>
    <path d="M 363.629259 293.587858 
L 381.84167 392.282241 
" clip-path="url(#p6896a16b3f)" style="fill: none; stroke: #000000"/>
    <path d="M 363.629259 293.587858 
L 408.073753 380.161025 
" clip-path="url(#p6896a16b3f)" style="fill: none; stroke: #000000"/>
    <path d="M 470.718838 472.669824 
L 449.132703 389.122256 
" clip-path="url(#p6896a16b3f)" style="fill: none; stroke: #000000"/>
    <path d="M 470.718838 472.669824 
L 500.792186 460.77459 
" clip-path="url(#p6896a16b3f)" style="fill: none; stroke: #000000"/>
    <path d="M 470.718838 472.669824 
L 438.400076 474.152727 
" clip-path="url(#p6896a16b3f)" style="fill: none; stroke: #000000"/>
    <path d="M 470.718838 472.669824 
L 482.106624 381.346022 
" clip-path="url(#p6896a16b3f)" style="fill: none; stroke: #000000"/>
    <path d="M 449.132703 389.122256 
L 438.400076 474.152727 
" clip-path="url(#p6896a16b3f)" style="fill: none; stroke: #000000"/>
    <path d="M 449.132703 389.122256 
L 482.106624 381.346022 
" clip-path="url(#p6896a16b3f)" style="fill: none; stroke: #000000"/>
    <path d="M 449.132703 389.122256 
L 408.073753 380.161025 
" clip-path="url(#p6896a16b3f)" style="fill: none; stroke: #000000"/>
    <path d="M 500.792186 460.77459 
L 482.106624 381.346022 
" clip-path="url(#p6896a16b3f)" style="fill: none; stroke: #000000"/>
    <path d="M 381.84167 392.282241 
L 408.073753 380.161025 
" clip-path="url(#p6896a16b3f)" style="fill: none; stroke: #000000"/>
    <path d="M 438.400076 474.152727 
L 408.073753 380.161025 
" clip-path="url(#p6896a16b3f)" style="fill: none; stroke: #000000"/>
   </g>
   <g id="PathCollection_2">
    <path d="M 363.629259 298.587858 
C 364.955275 298.587858 366.227159 298.061027 367.164793 297.123392 
C 368.102428 296.185758 368.629259 294.913874 368.629259 293.587858 
C 368.629259 292.261843 368.102428 290.989959 367.164793 290.052324 
C 366.227159 289.11469 364.955275 288.587858 363.629259 288.587858 
C 362.303244 288.587858 361.03136 289.11469 360.093725 290.052324 
C 359.156091 290.989959 358.629259 292.261843 358.629259 293.587858 
C 358.629259 294.913874 359.156091 296.185758 360.093725 297.123392 
C 361.03136 298.061027 362.303244 298.587858 363.629259 298.587858 
z
" clip-path="url(#p6896a16b3f)" style="fill: #00ff8c; stroke: #00ff8c"/>
    <path d="M 334.672581 394.088107 
C 335.820944 394.088107 336.922428 393.631858 337.734443 392.819842 
C 338.546458 392.007827 339.002708 390.906343 339.002708 389.75798 
C 339.002708 388.609617 338.546458 387.508133 337.734443 386.696118 
C 336.922428 385.884103 335.820944 385.427853 334.672581 385.427853 
C 333.524218 385.427853 332.422734 385.884103 331.610719 386.696118 
C 330.798703 387.508133 330.342454 388.609617 330.342454 389.75798 
C 330.342454 390.906343 330.798703 392.007827 331.610719 392.819842 
C 332.422734 393.631858 333.524218 394.088107 334.672581 394.088107 
z
" clip-path="url(#p6896a16b3f)" style="fill: #00ff8c; stroke: #00ff8c"/>
    <path d="M 357.54051 111.9374 
C 358.688873 111.9374 359.790357 111.48115 360.602372 110.669135 
C 361.414387 109.85712 361.870637 108.755636 361.870637 107.607273 
C 361.870637 106.45891 361.414387 105.357426 360.602372 104.545411 
C 359.790357 103.733395 358.688873 103.277146 357.54051 103.277146 
C 356.392147 103.277146 355.290663 103.733395 354.478648 104.545411 
C 353.666632 105.357426 353.210383 106.45891 353.210383 107.607273 
C 353.210383 108.755636 353.666632 109.85712 354.478648 110.669135 
C 355.290663 111.48115 356.392147 111.9374 357.54051 111.9374 
z
" clip-path="url(#p6896a16b3f)" style="fill: #00ff8c; stroke: #00ff8c"/>
    <path d="M 333.098723 213.277634 
C 334.036357 213.277634 334.935715 212.905108 335.598723 212.2421 
C 336.261731 211.579092 336.634257 210.679735 336.634257 209.7421 
C 336.634257 208.804465 336.261731 207.905108 335.598723 207.2421 
C 334.935715 206.579092 334.036357 206.206566 333.098723 206.206566 
C 332.161088 206.206566 331.261731 206.579092 330.598723 207.2421 
C 329.935715 207.905108 329.563189 208.804465 329.563189 209.7421 
C 329.563189 210.679735 329.935715 211.579092 330.598723 212.2421 
C 331.261731 212.905108 332.161088 213.277634 333.098723 213.277634 
z
" clip-path="url(#p6896a16b3f)" style="fill: #00ff8c; stroke: #00ff8c"/>
    <path d="M 470.718838 476.205358 
C 471.656472 476.205358 472.55583 475.832832 473.218838 475.169824 
C 473.881846 474.506817 474.254372 473.607459 474.254372 472.669824 
C 474.254372 471.73219 473.881846 470.832832 473.218838 470.169824 
C 472.55583 469.506817 471.656472 469.13429 470.718838 469.13429 
C 469.781203 469.13429 468.881846 469.506817 468.218838 470.169824 
C 467.55583 470.832832 467.183304 471.73219 467.183304 472.669824 
C 467.183304 473.607459 467.55583 474.506817 468.218838 475.169824 
C 468.881846 475.832832 469.781203 476.205358 470.718838 476.205358 
z
" clip-path="url(#p6896a16b3f)" style="fill: #00ff8c; stroke: #00ff8c"/>
    <path d="M 449.132703 394.122256 
C 450.458719 394.122256 451.730602 393.595424 452.668237 392.65779 
C 453.605871 391.720155 454.132703 390.448271 454.132703 389.122256 
C 454.132703 387.79624 453.605871 386.524357 452.668237 385.586722 
C 451.730602 384.649087 450.458719 384.122256 449.132703 384.122256 
C 447.806688 384.122256 446.534804 384.649087 445.597169 385.586722 
C 444.659535 386.524357 444.132703 387.79624 444.132703 389.122256 
C 444.132703 390.448271 444.659535 391.720155 445.597169 392.65779 
C 446.534804 393.595424 447.806688 394.122256 449.132703 394.122256 
z
" clip-path="url(#p6896a16b3f)" style="fill: #00ff8c; stroke: #00ff8c"/>
    <path d="M 500.792186 466.36476 
C 502.274717 466.36476 503.696726 465.775744 504.745033 464.727437 
C 505.793341 463.67913 506.382356 462.25712 506.382356 460.77459 
C 506.382356 459.292059 505.793341 457.87005 504.745033 456.821743 
C 503.696726 455.773435 502.274717 455.18442 500.792186 455.18442 
C 499.309656 455.18442 497.887647 455.773435 496.839339 456.821743 
C 495.791032 457.87005 495.202016 459.292059 495.202016 460.77459 
C 495.202016 462.25712 495.791032 463.67913 496.839339 464.727437 
C 497.887647 465.775744 499.309656 466.36476 500.792186 466.36476 
z
" clip-path="url(#p6896a16b3f)" style="fill: #00ff8c; stroke: #00ff8c"/>
    <path d="M 381.84167 394.782241 
C 382.504678 394.782241 383.14062 394.518825 383.609437 394.050008 
C 384.078255 393.581191 384.34167 392.945249 384.34167 392.282241 
C 384.34167 391.619233 384.078255 390.983291 383.609437 390.514474 
C 383.14062 390.045657 382.504678 389.782241 381.84167 389.782241 
C 381.178663 389.782241 380.542721 390.045657 380.073903 390.514474 
C 379.605086 390.983291 379.34167 391.619233 379.34167 392.282241 
C 379.34167 392.945249 379.605086 393.581191 380.073903 394.050008 
C 380.542721 394.518825 381.178663 394.782241 381.84167 394.782241 
z
" clip-path="url(#p6896a16b3f)" style="fill: #00ff8c; stroke: #00ff8c"/>
    <path d="M 438.400076 479.152727 
C 439.726091 479.152727 440.997975 478.625896 441.935609 477.688261 
C 442.873244 476.750627 443.400076 475.478743 443.400076 474.152727 
C 443.400076 472.826712 442.873244 471.554828 441.935609 470.617193 
C 440.997975 469.679559 439.726091 469.152727 438.400076 469.152727 
C 437.07406 469.152727 435.802176 469.679559 434.864542 470.617193 
C 433.926907 471.554828 433.400076 472.826712 433.400076 474.152727 
C 433.400076 475.478743 433.926907 476.750627 434.864542 477.688261 
C 435.802176 478.625896 437.07406 479.152727 438.400076 479.152727 
z
" clip-path="url(#p6896a16b3f)" style="fill: #00ff8c; stroke: #00ff8c"/>
    <path d="M 482.106624 383.846022 
C 482.769632 383.846022 483.405574 383.582606 483.874391 383.113789 
C 484.343209 382.644972 484.606624 382.00903 484.606624 381.346022 
C 484.606624 380.683014 484.343209 380.047072 483.874391 379.578255 
C 483.405574 379.109438 482.769632 378.846022 482.106624 378.846022 
C 481.443617 378.846022 480.807675 379.109438 480.338857 379.578255 
C 479.87004 380.047072 479.606624 380.683014 479.606624 381.346022 
C 479.606624 382.00903 479.87004 382.644972 480.338857 383.113789 
C 480.807675 383.582606 481.443617 383.846022 482.106624 383.846022 
z
" clip-path="url(#p6896a16b3f)" style="fill: #00ff8c; stroke: #00ff8c"/>
    <path d="M 408.073753 382.661025 
C 408.736761 382.661025 409.372703 382.397609 409.84152 381.928792 
C 410.310338 381.459974 410.573753 380.824033 410.573753 380.161025 
C 410.573753 379.498017 410.310338 378.862075 409.84152 378.393258 
C 409.372703 377.924441 408.736761 377.661025 408.073753 377.661025 
C 407.410746 377.661025 406.774804 377.924441 406.305986 378.393258 
C 405.837169 378.862075 405.573753 379.498017 405.573753 380.161025 
C 405.573753 380.824033 405.837169 381.459974 406.305986 381.928792 
C 406.774804 382.397609 407.410746 382.661025 408.073753 382.661025 
z
" clip-path="url(#p6896a16b3f)" style="fill: #00ff8c; stroke: #00ff8c"/>
   </g>
   <g id="text_17">
    <g clip-path="url(#p6896a16b3f)">
     <!-- 8 -->
     <g transform="translate(360.766134 296.071296) scale(0.09 -0.09)">
      <use xlink:href="#DejaVuSerif-38"/>
     </g>
    </g>
   </g>
   <g id="text_18">
    <g clip-path="url(#p6896a16b3f)">
     <!-- 14 -->
     <g transform="translate(328.946331 392.241418) scale(0.09 -0.09)">
      <use xlink:href="#DejaVuSerif-31"/>
      <use xlink:href="#DejaVuSerif-34" x="63.623047"/>
     </g>
    </g>
   </g>
   <g id="text_19">
    <g clip-path="url(#p6896a16b3f)">
     <!-- 12 -->
     <g transform="translate(351.81426 110.09071) scale(0.09 -0.09)">
      <use xlink:href="#DejaVuSerif-31"/>
      <use xlink:href="#DejaVuSerif-32" x="63.623047"/>
     </g>
    </g>
   </g>
   <g id="text_20">
    <g clip-path="url(#p6896a16b3f)">
     <!-- 9 -->
     <g transform="translate(330.235598 212.225537) scale(0.09 -0.09)">
      <use xlink:href="#DejaVuSerif-39"/>
     </g>
    </g>
   </g>
   <g id="text_21">
    <g clip-path="url(#p6896a16b3f)">
     <!-- 7 -->
     <g transform="translate(467.855713 475.153262) scale(0.09 -0.09)">
      <use xlink:href="#DejaVuSerif-37"/>
     </g>
    </g>
   </g>
   <g id="text_22">
    <g clip-path="url(#p6896a16b3f)">
     <!-- 10 -->
     <g transform="translate(443.406453 391.605693) scale(0.09 -0.09)">
      <use xlink:href="#DejaVuSerif-31"/>
      <use xlink:href="#DejaVuSerif-30" x="63.623047"/>
     </g>
    </g>
   </g>
   <g id="text_23">
    <g clip-path="url(#p6896a16b3f)">
     <!-- 6 -->
     <g transform="translate(497.929061 463.258027) scale(0.09 -0.09)">
      <use xlink:href="#DejaVuSerif-36"/>
     </g>
    </g>
   </g>
   <g id="text_24">
    <g clip-path="url(#p6896a16b3f)">
     <!-- 5 -->
     <g transform="translate(378.978545 394.765678) scale(0.09 -0.09)">
      <use xlink:href="#DejaVuSerif-35"/>
     </g>
    </g>
   </g>
   <g id="text_25">
    <g clip-path="url(#p6896a16b3f)">
     <!-- 4 -->
     <g transform="translate(435.536951 476.636165) scale(0.09 -0.09)">
      <use xlink:href="#DejaVuSerif-34"/>
     </g>
    </g>
   </g>
   <g id="text_26">
    <g clip-path="url(#p6896a16b3f)">
     <!-- 3 -->
     <g transform="translate(479.243499 383.82946) scale(0.09 -0.09)">
      <use xlink:href="#DejaVuSerif-33"/>
     </g>
    </g>
   </g>
   <g id="text_27">
    <g clip-path="url(#p6896a16b3f)">
     <!-- 2 -->
     <g transform="translate(405.210628 382.644462) scale(0.09 -0.09)">
      <use xlink:href="#DejaVuSerif-32"/>
     </g>
    </g>
   </g>
   <g id="text_28">
    <!-- business -->
    <g transform="translate(390.795767 63.12) scale(0.12 -0.12)">
     <defs>
      <path id="DejaVuSans-62" d="M 3116 1747 
Q 3116 2381 2855 2742 
Q 2594 3103 2138 3103 
Q 1681 3103 1420 2742 
Q 1159 2381 1159 1747 
Q 1159 1113 1420 752 
Q 1681 391 2138 391 
Q 2594 391 2855 752 
Q 3116 1113 3116 1747 
z
M 1159 2969 
Q 1341 3281 1617 3432 
Q 1894 3584 2278 3584 
Q 2916 3584 3314 3078 
Q 3713 2572 3713 1747 
Q 3713 922 3314 415 
Q 2916 -91 2278 -91 
Q 1894 -91 1617 61 
Q 1341 213 1159 525 
L 1159 0 
L 581 0 
L 581 4863 
L 1159 4863 
L 1159 2969 
z
" transform="scale(0.015625)"/>
      <path id="DejaVuSans-75" d="M 544 1381 
L 544 3500 
L 1119 3500 
L 1119 1403 
Q 1119 906 1312 657 
Q 1506 409 1894 409 
Q 2359 409 2629 706 
Q 2900 1003 2900 1516 
L 2900 3500 
L 3475 3500 
L 3475 0 
L 2900 0 
L 2900 538 
Q 2691 219 2414 64 
Q 2138 -91 1772 -91 
Q 1169 -91 856 284 
Q 544 659 544 1381 
z
M 1991 3584 
L 1991 3584 
z
" transform="scale(0.015625)"/>
      <path id="DejaVuSans-73" d="M 2834 3397 
L 2834 2853 
Q 2591 2978 2328 3040 
Q 2066 3103 1784 3103 
Q 1356 3103 1142 2972 
Q 928 2841 928 2578 
Q 928 2378 1081 2264 
Q 1234 2150 1697 2047 
L 1894 2003 
Q 2506 1872 2764 1633 
Q 3022 1394 3022 966 
Q 3022 478 2636 193 
Q 2250 -91 1575 -91 
Q 1294 -91 989 -36 
Q 684 19 347 128 
L 347 722 
Q 666 556 975 473 
Q 1284 391 1588 391 
Q 1994 391 2212 530 
Q 2431 669 2431 922 
Q 2431 1156 2273 1281 
Q 2116 1406 1581 1522 
L 1381 1569 
Q 847 1681 609 1914 
Q 372 2147 372 2553 
Q 372 3047 722 3315 
Q 1072 3584 1716 3584 
Q 2034 3584 2315 3537 
Q 2597 3491 2834 3397 
z
" transform="scale(0.015625)"/>
      <path id="DejaVuSans-6e" d="M 3513 2113 
L 3513 0 
L 2938 0 
L 2938 2094 
Q 2938 2591 2744 2837 
Q 2550 3084 2163 3084 
Q 1697 3084 1428 2787 
Q 1159 2491 1159 1978 
L 1159 0 
L 581 0 
L 581 3500 
L 1159 3500 
L 1159 2956 
Q 1366 3272 1645 3428 
Q 1925 3584 2291 3584 
Q 2894 3584 3203 3211 
Q 3513 2838 3513 2113 
z
" transform="scale(0.015625)"/>
     </defs>
     <use xlink:href="#DejaVuSans-62"/>
     <use xlink:href="#DejaVuSans-75" x="63.476562"/>
     <use xlink:href="#DejaVuSans-73" x="126.855469"/>
     <use xlink:href="#DejaVuSans-69" x="178.955078"/>
     <use xlink:href="#DejaVuSans-6e" x="206.738281"/>
     <use xlink:href="#DejaVuSans-65" x="270.117188"/>
     <use xlink:href="#DejaVuSans-73" x="331.640625"/>
     <use xlink:href="#DejaVuSans-73" x="383.740234"/>
    </g>
   </g>
  </g>
 </g>
 <defs>
  <clipPath id="pc27512e6db">
   <rect x="72" y="69.12" width="202.909091" height="443.52"/>
  </clipPath>
  <clipPath id="p6896a16b3f">
   <rect x="315.490909" y="69.12" width="202.909091" height="443.52"/>
  </clipPath>
 </defs>
</svg>
