<?xml version="1.0" encoding="utf-8" standalone="no"?>
<!DOCTYPE svg PUBLIC "-//W3C//DTD SVG 1.1//EN"
  "http://www.w3.org/Graphics/SVG/1.1/DTD/svg11.dtd">
<svg xmlns:xlink="http://www.w3.org/1999/xlink" width="576pt" height="576pt" viewBox="0 0 576 576" xmlns="http://www.w3.org/2000/svg" version="1.1">
 <metadata>
  <rdf:RDF xmlns:dc="http://purl.org/dc/elements/1.1/" xmlns:cc="http://creativecommons.org/ns#" xmlns:rdf="http://www.w3.org/1999/02/22-rdf-syntax-ns#">
   <cc:Work>
    <dc:type rdf:resource="http://purl.org/dc/dcmitype/StillImage"/>
    <dc:date>2025-01-15T09:53:47.476309</dc:date>
    <dc:format>image/svg+xml</dc:format>
    <dc:creator>
     <cc:Agent>
      <dc:title>Matplotlib v3.9.2, https://matplotlib.org/</dc:title>
     </cc:Agent>
    </dc:creator>
   </cc:Work>
  </rdf:RDF>
 </metadata>
 <defs>
  <style type="text/css">*{stroke-linejoin: round; stroke-linecap: butt}</style>
 </defs>
 <g id="figure_1">
  <g id="patch_1">
   <path d="M 0 576 
L 576 576 
L 576 0 
L 0 0 
L 0 576 
z
" style="fill: none"/>
  </g>
  <g id="axes_1">
   <g id="LineCollection_1">
    <path d="M 150.678252 337.767342 
L 157.042053 270.936775 
" clip-path="url(#p658d50695a)" style="fill: none; stroke: #000000"/>
    <path d="M 150.678252 337.767342 
L 112.462094 369.93395 
" clip-path="url(#p658d50695a)" style="fill: none; stroke: #000000"/>
    <path d="M 150.678252 337.767342 
L 187.780332 326.382771 
" clip-path="url(#p658d50695a)" style="fill: none; stroke: #000000"/>
    <path d="M 157.042053 270.936775 
L 187.780332 326.382771 
" clip-path="url(#p658d50695a)" style="fill: none; stroke: #000000"/>
    <path d="M 157.042053 270.936775 
L 128.207033 208.775196 
" clip-path="url(#p658d50695a)" style="fill: none; stroke: #000000"/>
    <path d="M 112.462094 369.93395 
L 89.607814 390.633261 
" clip-path="url(#p658d50695a)" style="fill: none; stroke: #000000"/>
    <path d="M 112.462094 369.93395 
L 118.719289 438.994242 
" clip-path="url(#p658d50695a)" style="fill: none; stroke: #000000"/>
    <path d="M 112.462094 369.93395 
L 98.324955 300.025258 
" clip-path="url(#p658d50695a)" style="fill: none; stroke: #000000"/>
    <path d="M 89.607814 390.633261 
L 118.719289 438.994242 
" clip-path="url(#p658d50695a)" style="fill: none; stroke: #000000"/>
    <path d="M 89.607814 390.633261 
L 98.324955 300.025258 
" clip-path="url(#p658d50695a)" style="fill: none; stroke: #000000"/>
    <path d="M 257.301277 474.152727 
L 228.550284 409.385045 
" clip-path="url(#p658d50695a)" style="fill: none; stroke: #000000"/>
    <path d="M 228.550284 409.385045 
L 187.780332 326.382771 
" clip-path="url(#p658d50695a)" style="fill: none; stroke: #000000"/>
    <path d="M 187.780332 326.382771 
L 159.860022 421.192065 
" clip-path="url(#p658d50695a)" style="fill: none; stroke: #000000"/>
    <path d="M 187.780332 326.382771 
L 172.848838 200.803484 
" clip-path="url(#p658d50695a)" style="fill: none; stroke: #000000"/>
    <path d="M 187.780332 326.382771 
L 225.678802 302.288465 
" clip-path="url(#p658d50695a)" style="fill: none; stroke: #000000"/>
    <path d="M 128.207033 208.775196 
L 104.271797 125.652402 
" clip-path="url(#p658d50695a)" style="fill: none; stroke: #000000"/>
    <path d="M 128.207033 208.775196 
L 98.324955 300.025258 
" clip-path="url(#p658d50695a)" style="fill: none; stroke: #000000"/>
    <path d="M 128.207033 208.775196 
L 172.848838 200.803484 
" clip-path="url(#p658d50695a)" style="fill: none; stroke: #000000"/>
    <path d="M 118.719289 438.994242 
L 159.860022 421.192065 
" clip-path="url(#p658d50695a)" style="fill: none; stroke: #000000"/>
    <path d="M 172.848838 200.803484 
L 188.773668 107.607273 
" clip-path="url(#p658d50695a)" style="fill: none; stroke: #000000"/>
   </g>
   <g id="PathCollection_1">
    <path d="M 150.678252 340.267342 
C 151.34126 340.267342 151.977202 340.003926 152.446019 339.535109 
C 152.914836 339.066292 153.178252 338.43035 153.178252 337.767342 
C 153.178252 337.104334 152.914836 336.468393 152.446019 335.999575 
C 151.977202 335.530758 151.34126 335.267342 150.678252 335.267342 
C 150.015244 335.267342 149.379302 335.530758 148.910485 335.999575 
C 148.441668 336.468393 148.178252 337.104334 148.178252 337.767342 
C 148.178252 338.43035 148.441668 339.066292 148.910485 339.535109 
C 149.379302 340.003926 150.015244 340.267342 150.678252 340.267342 
z
" clip-path="url(#p658d50695a)" style="fill: #00ff8c; stroke: #00ff8c"/>
    <path d="M 157.042053 275.266902 
C 158.190416 275.266902 159.2919 274.810653 160.103915 273.998637 
C 160.91593 273.186622 161.37218 272.085138 161.37218 270.936775 
C 161.37218 269.788412 160.91593 268.686928 160.103915 267.874913 
C 159.2919 267.062898 158.190416 266.606648 157.042053 266.606648 
C 155.89369 266.606648 154.792206 267.062898 153.980191 267.874913 
C 153.168175 268.686928 152.711926 269.788412 152.711926 270.936775 
C 152.711926 272.085138 153.168175 273.186622 153.980191 273.998637 
C 154.792206 274.810653 155.89369 275.266902 157.042053 275.266902 
z
" clip-path="url(#p658d50695a)" style="fill: #00ff8c; stroke: #00ff8c"/>
    <path d="M 112.462094 373.469484 
C 113.399728 373.469484 114.299086 373.096958 114.962094 372.43395 
C 115.625102 371.770942 115.997628 370.871585 115.997628 369.93395 
C 115.997628 368.996315 115.625102 368.096958 114.962094 367.43395 
C 114.299086 366.770942 113.399728 366.398416 112.462094 366.398416 
C 111.524459 366.398416 110.625102 366.770942 109.962094 367.43395 
C 109.299086 368.096958 108.92656 368.996315 108.92656 369.93395 
C 108.92656 370.871585 109.299086 371.770942 109.962094 372.43395 
C 110.625102 373.096958 111.524459 373.469484 112.462094 373.469484 
z
" clip-path="url(#p658d50695a)" style="fill: #00ff8c; stroke: #00ff8c"/>
    <path d="M 89.607814 394.963388 
C 90.756177 394.963388 91.857661 394.507139 92.669676 393.695123 
C 93.481691 392.883108 93.937941 391.781624 93.937941 390.633261 
C 93.937941 389.484898 93.481691 388.383414 92.669676 387.571399 
C 91.857661 386.759384 90.756177 386.303134 89.607814 386.303134 
C 88.459451 386.303134 87.357967 386.759384 86.545951 387.571399 
C 85.733936 388.383414 85.277687 389.484898 85.277687 390.633261 
C 85.277687 391.781624 85.733936 392.883108 86.545951 393.695123 
C 87.357967 394.507139 88.459451 394.963388 89.607814 394.963388 
z
" clip-path="url(#p658d50695a)" style="fill: #00ff8c; stroke: #00ff8c"/>
    <path d="M 257.301277 478.482854 
C 258.44964 478.482854 259.551124 478.026605 260.363139 477.214589 
C 261.175155 476.402574 261.631404 475.30109 261.631404 474.152727 
C 261.631404 473.004364 261.175155 471.90288 260.363139 471.090865 
C 259.551124 470.27885 258.44964 469.8226 257.301277 469.8226 
C 256.152914 469.8226 255.05143 470.27885 254.239415 471.090865 
C 253.4274 471.90288 252.97115 473.004364 252.97115 474.152727 
C 252.97115 475.30109 253.4274 476.402574 254.239415 477.214589 
C 255.05143 478.026605 256.152914 478.482854 257.301277 478.482854 
z
" clip-path="url(#p658d50695a)" style="fill: #00ff8c; stroke: #00ff8c"/>
    <path d="M 228.550284 411.885045 
C 229.213292 411.885045 229.849234 411.62163 230.318051 411.152812 
C 230.786868 410.683995 231.050284 410.048053 231.050284 409.385045 
C 231.050284 408.722038 230.786868 408.086096 230.318051 407.617278 
C 229.849234 407.148461 229.213292 406.885045 228.550284 406.885045 
C 227.887276 406.885045 227.251335 407.148461 226.782517 407.617278 
C 226.3137 408.086096 226.050284 408.722038 226.050284 409.385045 
C 226.050284 410.048053 226.3137 410.683995 226.782517 411.152812 
C 227.251335 411.62163 227.887276 411.885045 228.550284 411.885045 
z
" clip-path="url(#p658d50695a)" style="fill: #00ff8c; stroke: #00ff8c"/>
    <path d="M 187.780332 331.382771 
C 189.106348 331.382771 190.378232 330.855939 191.315866 329.918305 
C 192.253501 328.98067 192.780332 327.708786 192.780332 326.382771 
C 192.780332 325.056755 192.253501 323.784872 191.315866 322.847237 
C 190.378232 321.909603 189.106348 321.382771 187.780332 321.382771 
C 186.454317 321.382771 185.182433 321.909603 184.244798 322.847237 
C 183.307164 323.784872 182.780332 325.056755 182.780332 326.382771 
C 182.780332 327.708786 183.307164 328.98067 184.244798 329.918305 
C 185.182433 330.855939 186.454317 331.382771 187.780332 331.382771 
z
" clip-path="url(#p658d50695a)" style="fill: #00ff8c; stroke: #00ff8c"/>
    <path d="M 128.207033 211.275196 
C 128.87004 211.275196 129.505982 211.01178 129.9748 210.542963 
C 130.443617 210.074146 130.707033 209.438204 130.707033 208.775196 
C 130.707033 208.112188 130.443617 207.476246 129.9748 207.007429 
C 129.505982 206.538612 128.87004 206.275196 128.207033 206.275196 
C 127.544025 206.275196 126.908083 206.538612 126.439266 207.007429 
C 125.970449 207.476246 125.707033 208.112188 125.707033 208.775196 
C 125.707033 209.438204 125.970449 210.074146 126.439266 210.542963 
C 126.908083 211.01178 127.544025 211.275196 128.207033 211.275196 
z
" clip-path="url(#p658d50695a)" style="fill: #00ff8c; stroke: #00ff8c"/>
    <path d="M 104.271797 131.776127 
C 105.895827 131.776127 107.45356 131.130892 108.601924 129.982529 
C 109.750287 128.834166 110.395521 127.276433 110.395521 125.652402 
C 110.395521 124.028372 109.750287 122.470638 108.601924 121.322275 
C 107.45356 120.173912 105.895827 119.528678 104.271797 119.528678 
C 102.647766 119.528678 101.090033 120.173912 99.94167 121.322275 
C 98.793306 122.470638 98.148072 124.028372 98.148072 125.652402 
C 98.148072 127.276433 98.793306 128.834166 99.94167 129.982529 
C 101.090033 131.130892 102.647766 131.776127 104.271797 131.776127 
z
" clip-path="url(#p658d50695a)" style="fill: #00ff8c; stroke: #00ff8c"/>
    <path d="M 118.719289 441.494242 
C 119.382297 441.494242 120.018239 441.230826 120.487056 440.762009 
C 120.955873 440.293191 121.219289 439.657249 121.219289 438.994242 
C 121.219289 438.331234 120.955873 437.695292 120.487056 437.226475 
C 120.018239 436.757657 119.382297 436.494242 118.719289 436.494242 
C 118.056281 436.494242 117.420339 436.757657 116.951522 437.226475 
C 116.482705 437.695292 116.219289 438.331234 116.219289 438.994242 
C 116.219289 439.657249 116.482705 440.293191 116.951522 440.762009 
C 117.420339 441.230826 118.056281 441.494242 118.719289 441.494242 
z
" clip-path="url(#p658d50695a)" style="fill: #00ff8c; stroke: #00ff8c"/>
    <path d="M 98.324955 304.355385 
C 99.473318 304.355385 100.574802 303.899135 101.386817 303.08712 
C 102.198832 302.275105 102.655082 301.173621 102.655082 300.025258 
C 102.655082 298.876895 102.198832 297.775411 101.386817 296.963396 
C 100.574802 296.15138 99.473318 295.695131 98.324955 295.695131 
C 97.176592 295.695131 96.075108 296.15138 95.263093 296.963396 
C 94.451077 297.775411 93.994828 298.876895 93.994828 300.025258 
C 93.994828 301.173621 94.451077 302.275105 95.263093 303.08712 
C 96.075108 303.899135 97.176592 304.355385 98.324955 304.355385 
z
" clip-path="url(#p658d50695a)" style="fill: #00ff8c; stroke: #00ff8c"/>
    <path d="M 159.860022 425.522192 
C 161.008385 425.522192 162.109869 425.065942 162.921884 424.253927 
C 163.733899 423.441911 164.190149 422.340428 164.190149 421.192065 
C 164.190149 420.043701 163.733899 418.942218 162.921884 418.130202 
C 162.109869 417.318187 161.008385 416.861937 159.860022 416.861937 
C 158.711659 416.861937 157.610175 417.318187 156.798159 418.130202 
C 155.986144 418.942218 155.529895 420.043701 155.529895 421.192065 
C 155.529895 422.340428 155.986144 423.441911 156.798159 424.253927 
C 157.610175 425.065942 158.711659 425.522192 159.860022 425.522192 
z
" clip-path="url(#p658d50695a)" style="fill: #00ff8c; stroke: #00ff8c"/>
    <path d="M 172.848838 204.339018 
C 173.786472 204.339018 174.68583 203.966492 175.348838 203.303484 
C 176.011845 202.640476 176.384372 201.741118 176.384372 200.803484 
C 176.384372 199.865849 176.011845 198.966492 175.348838 198.303484 
C 174.68583 197.640476 173.786472 197.26795 172.848838 197.26795 
C 171.911203 197.26795 171.011845 197.640476 170.348838 198.303484 
C 169.68583 198.966492 169.313304 199.865849 169.313304 200.803484 
C 169.313304 201.741118 169.68583 202.640476 170.348838 203.303484 
C 171.011845 203.966492 171.911203 204.339018 172.848838 204.339018 
z
" clip-path="url(#p658d50695a)" style="fill: #00ff8c; stroke: #00ff8c"/>
    <path d="M 188.773668 112.607273 
C 190.099683 112.607273 191.371567 112.080441 192.309202 111.142807 
C 193.246836 110.205172 193.773668 108.933288 193.773668 107.607273 
C 193.773668 106.281257 193.246836 105.009373 192.309202 104.071739 
C 191.371567 103.134104 190.099683 102.607273 188.773668 102.607273 
C 187.447652 102.607273 186.175768 103.134104 185.238134 104.071739 
C 184.300499 105.009373 183.773668 106.281257 183.773668 107.607273 
C 183.773668 108.933288 184.300499 110.205172 185.238134 111.142807 
C 186.175768 112.080441 187.447652 112.607273 188.773668 112.607273 
z
" clip-path="url(#p658d50695a)" style="fill: #00ff8c; stroke: #00ff8c"/>
    <path d="M 225.678802 306.618592 
C 226.827166 306.618592 227.928649 306.162342 228.740665 305.350327 
C 229.55268 304.538311 230.008929 303.436828 230.008929 302.288465 
C 230.008929 301.140102 229.55268 300.038618 228.740665 299.226602 
C 227.928649 298.414587 226.827166 297.958338 225.678802 297.958338 
C 224.530439 297.958338 223.428956 298.414587 222.61694 299.226602 
C 221.804925 300.038618 221.348675 301.140102 221.348675 302.288465 
C 221.348675 303.436828 221.804925 304.538311 222.61694 305.350327 
C 223.428956 306.162342 224.530439 306.618592 225.678802 306.618592 
z
" clip-path="url(#p658d50695a)" style="fill: #ff0029; stroke: #ff0029"/>
   </g>
   <g id="text_1">
    <g clip-path="url(#p658d50695a)">
     <!-- 11 -->
     <g transform="translate(144.952002 340.25078) scale(0.09 -0.09)">
      <defs>
       <path id="DejaVuSerif-31" d="M 909 0 
L 909 331 
L 1722 331 
L 1722 4213 
L 781 3603 
L 781 4013 
L 1919 4750 
L 2350 4750 
L 2350 331 
L 3163 331 
L 3163 0 
L 909 0 
z
" transform="scale(0.015625)"/>
      </defs>
      <use xlink:href="#DejaVuSerif-31"/>
      <use xlink:href="#DejaVuSerif-31" x="63.623047"/>
     </g>
    </g>
   </g>
   <g id="text_2">
    <g clip-path="url(#p658d50695a)">
     <!-- 14 -->
     <g transform="translate(151.315803 273.420213) scale(0.09 -0.09)">
      <defs>
       <path id="DejaVuSerif-34" d="M 2234 1581 
L 2234 4063 
L 641 1581 
L 2234 1581 
z
M 3609 0 
L 1484 0 
L 1484 331 
L 2234 331 
L 2234 1247 
L 197 1247 
L 197 1588 
L 2241 4750 
L 2859 4750 
L 2859 1581 
L 3750 1581 
L 3750 1247 
L 2859 1247 
L 2859 331 
L 3609 331 
L 3609 0 
z
" transform="scale(0.015625)"/>
      </defs>
      <use xlink:href="#DejaVuSerif-31"/>
      <use xlink:href="#DejaVuSerif-34" x="63.623047"/>
     </g>
    </g>
   </g>
   <g id="text_3">
    <g clip-path="url(#p658d50695a)">
     <!-- 13 -->
     <g transform="translate(106.735844 372.417387) scale(0.09 -0.09)">
      <defs>
       <path id="DejaVuSerif-33" d="M 622 4469 
Q 988 4606 1323 4678 
Q 1659 4750 1953 4750 
Q 2638 4750 3022 4454 
Q 3406 4159 3406 3634 
Q 3406 3213 3140 2930 
Q 2875 2647 2388 2547 
Q 2963 2466 3280 2130 
Q 3597 1794 3597 1259 
Q 3597 606 3158 257 
Q 2719 -91 1894 -91 
Q 1528 -91 1179 -12 
Q 831 66 488 225 
L 488 1131 
L 838 1131 
Q 869 681 1141 450 
Q 1413 219 1906 219 
Q 2384 219 2661 495 
Q 2938 772 2938 1253 
Q 2938 1803 2653 2086 
Q 2369 2369 1819 2369 
L 1522 2369 
L 1522 2688 
L 1678 2688 
Q 2225 2688 2498 2914 
Q 2772 3141 2772 3597 
Q 2772 4006 2547 4223 
Q 2322 4441 1900 4441 
Q 1478 4441 1245 4241 
Q 1013 4041 972 3647 
L 622 3647 
L 622 4469 
z
" transform="scale(0.015625)"/>
      </defs>
      <use xlink:href="#DejaVuSerif-31"/>
      <use xlink:href="#DejaVuSerif-33" x="63.623047"/>
     </g>
    </g>
   </g>
   <g id="text_4">
    <g clip-path="url(#p658d50695a)">
     <!-- 10 -->
     <g transform="translate(83.881564 393.116699) scale(0.09 -0.09)">
      <defs>
       <path id="DejaVuSerif-30" d="M 2034 219 
Q 2513 219 2750 744 
Q 2988 1269 2988 2328 
Q 2988 3391 2750 3916 
Q 2513 4441 2034 4441 
Q 1556 4441 1318 3916 
Q 1081 3391 1081 2328 
Q 1081 1269 1318 744 
Q 1556 219 2034 219 
z
M 2034 -91 
Q 1275 -91 848 546 
Q 422 1184 422 2328 
Q 422 3475 848 4112 
Q 1275 4750 2034 4750 
Q 2797 4750 3222 4112 
Q 3647 3475 3647 2328 
Q 3647 1184 3222 546 
Q 2797 -91 2034 -91 
z
" transform="scale(0.015625)"/>
      </defs>
      <use xlink:href="#DejaVuSerif-31"/>
      <use xlink:href="#DejaVuSerif-30" x="63.623047"/>
     </g>
    </g>
   </g>
   <g id="text_5">
    <g clip-path="url(#p658d50695a)">
     <!-- 9 -->
     <g transform="translate(254.438152 476.636165) scale(0.09 -0.09)">
      <defs>
       <path id="DejaVuSerif-39" d="M 2994 2091 
Q 2784 1856 2512 1740 
Q 2241 1625 1900 1625 
Q 1206 1625 804 2044 
Q 403 2463 403 3188 
Q 403 3897 839 4323 
Q 1275 4750 2003 4750 
Q 2794 4750 3217 4161 
Q 3641 3572 3641 2478 
Q 3641 1253 3137 581 
Q 2634 -91 1722 -91 
Q 1475 -91 1203 -44 
Q 931 3 647 97 
L 647 872 
L 997 872 
Q 1038 556 1241 387 
Q 1444 219 1784 219 
Q 2391 219 2687 676 
Q 2984 1134 2994 2091 
z
M 1978 4441 
Q 1534 4441 1298 4117 
Q 1063 3794 1063 3188 
Q 1063 2581 1298 2256 
Q 1534 1931 1978 1931 
Q 2422 1931 2658 2245 
Q 2894 2559 2894 3150 
Q 2894 3772 2656 4106 
Q 2419 4441 1978 4441 
z
" transform="scale(0.015625)"/>
      </defs>
      <use xlink:href="#DejaVuSerif-39"/>
     </g>
    </g>
   </g>
   <g id="text_6">
    <g clip-path="url(#p658d50695a)">
     <!-- 12 -->
     <g transform="translate(222.824034 411.868483) scale(0.09 -0.09)">
      <defs>
       <path id="DejaVuSerif-32" d="M 819 3553 
L 469 3553 
L 469 4384 
Q 803 4563 1142 4656 
Q 1481 4750 1806 4750 
Q 2534 4750 2956 4397 
Q 3378 4044 3378 3438 
Q 3378 2753 2422 1800 
Q 2347 1728 2309 1691 
L 1131 513 
L 3078 513 
L 3078 1088 
L 3444 1088 
L 3444 0 
L 434 0 
L 434 341 
L 1850 1753 
Q 2319 2222 2519 2614 
Q 2719 3006 2719 3438 
Q 2719 3909 2473 4175 
Q 2228 4441 1797 4441 
Q 1350 4441 1106 4219 
Q 863 3997 819 3553 
z
" transform="scale(0.015625)"/>
      </defs>
      <use xlink:href="#DejaVuSerif-31"/>
      <use xlink:href="#DejaVuSerif-32" x="63.623047"/>
     </g>
    </g>
   </g>
   <g id="text_7">
    <g clip-path="url(#p658d50695a)">
     <!-- 8 -->
     <g transform="translate(184.917207 328.866208) scale(0.09 -0.09)">
      <defs>
       <path id="DejaVuSerif-38" d="M 2981 1275 
Q 2981 1775 2732 2051 
Q 2484 2328 2034 2328 
Q 1584 2328 1336 2051 
Q 1088 1775 1088 1275 
Q 1088 772 1336 495 
Q 1584 219 2034 219 
Q 2484 219 2732 495 
Q 2981 772 2981 1275 
z
M 2853 3541 
Q 2853 3966 2637 4203 
Q 2422 4441 2034 4441 
Q 1650 4441 1433 4203 
Q 1216 3966 1216 3541 
Q 1216 3113 1433 2875 
Q 1650 2638 2034 2638 
Q 2422 2638 2637 2875 
Q 2853 3113 2853 3541 
z
M 2516 2484 
Q 3047 2413 3344 2092 
Q 3641 1772 3641 1275 
Q 3641 619 3225 264 
Q 2809 -91 2034 -91 
Q 1263 -91 845 264 
Q 428 619 428 1275 
Q 428 1772 725 2092 
Q 1022 2413 1556 2484 
Q 1084 2569 832 2842 
Q 581 3116 581 3541 
Q 581 4103 968 4426 
Q 1356 4750 2034 4750 
Q 2713 4750 3100 4426 
Q 3488 4103 3488 3541 
Q 3488 3116 3236 2842 
Q 2984 2569 2516 2484 
z
" transform="scale(0.015625)"/>
      </defs>
      <use xlink:href="#DejaVuSerif-38"/>
     </g>
    </g>
   </g>
   <g id="text_8">
    <g clip-path="url(#p658d50695a)">
     <!-- 6 -->
     <g transform="translate(125.343908 211.258633) scale(0.09 -0.09)">
      <defs>
       <path id="DejaVuSerif-36" d="M 2094 219 
Q 2534 219 2771 542 
Q 3009 866 3009 1472 
Q 3009 2078 2771 2401 
Q 2534 2725 2094 2725 
Q 1647 2725 1412 2412 
Q 1178 2100 1178 1509 
Q 1178 888 1415 553 
Q 1653 219 2094 219 
z
M 1075 2569 
Q 1288 2803 1556 2918 
Q 1825 3034 2163 3034 
Q 2859 3034 3264 2615 
Q 3669 2197 3669 1472 
Q 3669 763 3233 336 
Q 2797 -91 2069 -91 
Q 1278 -91 853 498 
Q 428 1088 428 2181 
Q 428 3406 931 4078 
Q 1434 4750 2350 4750 
Q 2597 4750 2869 4703 
Q 3141 4656 3425 4563 
L 3425 3794 
L 3072 3794 
Q 3034 4109 2831 4275 
Q 2628 4441 2284 4441 
Q 1678 4441 1381 3981 
Q 1084 3522 1075 2569 
z
" transform="scale(0.015625)"/>
      </defs>
      <use xlink:href="#DejaVuSerif-36"/>
     </g>
    </g>
   </g>
   <g id="text_9">
    <g clip-path="url(#p658d50695a)">
     <!-- 7 -->
     <g transform="translate(101.408672 128.13584) scale(0.09 -0.09)">
      <defs>
       <path id="DejaVuSerif-37" d="M 3609 4347 
L 1784 0 
L 1319 0 
L 3059 4153 
L 903 4153 
L 903 3578 
L 538 3578 
L 538 4666 
L 3609 4666 
L 3609 4347 
z
" transform="scale(0.015625)"/>
      </defs>
      <use xlink:href="#DejaVuSerif-37"/>
     </g>
    </g>
   </g>
   <g id="text_10">
    <g clip-path="url(#p658d50695a)">
     <!-- 4 -->
     <g transform="translate(115.856164 441.477679) scale(0.09 -0.09)">
      <use xlink:href="#DejaVuSerif-34"/>
     </g>
    </g>
   </g>
   <g id="text_11">
    <g clip-path="url(#p658d50695a)">
     <!-- 3 -->
     <g transform="translate(95.46183 302.508695) scale(0.09 -0.09)">
      <use xlink:href="#DejaVuSerif-33"/>
     </g>
    </g>
   </g>
   <g id="text_12">
    <g clip-path="url(#p658d50695a)">
     <!-- 2 -->
     <g transform="translate(156.996897 423.675502) scale(0.09 -0.09)">
      <use xlink:href="#DejaVuSerif-32"/>
     </g>
    </g>
   </g>
   <g id="text_13">
    <g clip-path="url(#p658d50695a)">
     <!-- 1 -->
     <g transform="translate(169.985713 203.286921) scale(0.09 -0.09)">
      <use xlink:href="#DejaVuSerif-31"/>
     </g>
    </g>
   </g>
   <g id="text_14">
    <g clip-path="url(#p658d50695a)">
     <!-- 5 -->
     <g transform="translate(185.910543 110.09071) scale(0.09 -0.09)">
      <defs>
       <path id="DejaVuSerif-35" d="M 3219 4666 
L 3219 4153 
L 1081 4153 
L 1081 2816 
Q 1244 2928 1461 2984 
Q 1678 3041 1947 3041 
Q 2703 3041 3140 2622 
Q 3578 2203 3578 1478 
Q 3578 738 3136 323 
Q 2694 -91 1894 -91 
Q 1572 -91 1234 -12 
Q 897 66 544 225 
L 544 1131 
L 897 1131 
Q 925 688 1179 453 
Q 1434 219 1894 219 
Q 2388 219 2653 544 
Q 2919 869 2919 1478 
Q 2919 2084 2655 2407 
Q 2391 2731 1894 2731 
Q 1613 2731 1398 2631 
Q 1184 2531 1019 2322 
L 750 2322 
L 750 4666 
L 3219 4666 
z
" transform="scale(0.015625)"/>
      </defs>
      <use xlink:href="#DejaVuSerif-35"/>
     </g>
    </g>
   </g>
   <g id="text_15">
    <g clip-path="url(#p658d50695a)">
     <!-- 0 -->
     <g transform="translate(222.815677 304.771902) scale(0.09 -0.09)">
      <use xlink:href="#DejaVuSerif-30"/>
     </g>
    </g>
   </g>
   <g id="text_16">
    <!-- marriage -->
    <g transform="translate(146.260483 63.12) scale(0.12 -0.12)">
     <defs>
      <path id="DejaVuSans-6d" d="M 3328 2828 
Q 3544 3216 3844 3400 
Q 4144 3584 4550 3584 
Q 5097 3584 5394 3201 
Q 5691 2819 5691 2113 
L 5691 0 
L 5113 0 
L 5113 2094 
Q 5113 2597 4934 2840 
Q 4756 3084 4391 3084 
Q 3944 3084 3684 2787 
Q 3425 2491 3425 1978 
L 3425 0 
L 2847 0 
L 2847 2094 
Q 2847 2600 2669 2842 
Q 2491 3084 2119 3084 
Q 1678 3084 1418 2786 
Q 1159 2488 1159 1978 
L 1159 0 
L 581 0 
L 581 3500 
L 1159 3500 
L 1159 2956 
Q 1356 3278 1631 3431 
Q 1906 3584 2284 3584 
Q 2666 3584 2933 3390 
Q 3200 3197 3328 2828 
z
" transform="scale(0.015625)"/>
      <path id="DejaVuSans-61" d="M 2194 1759 
Q 1497 1759 1228 1600 
Q 959 1441 959 1056 
Q 959 750 1161 570 
Q 1363 391 1709 391 
Q 2188 391 2477 730 
Q 2766 1069 2766 1631 
L 2766 1759 
L 2194 1759 
z
M 3341 1997 
L 3341 0 
L 2766 0 
L 2766 531 
Q 2569 213 2275 61 
Q 1981 -91 1556 -91 
Q 1019 -91 701 211 
Q 384 513 384 1019 
Q 384 1609 779 1909 
Q 1175 2209 1959 2209 
L 2766 2209 
L 2766 2266 
Q 2766 2663 2505 2880 
Q 2244 3097 1772 3097 
Q 1472 3097 1187 3025 
Q 903 2953 641 2809 
L 641 3341 
Q 956 3463 1253 3523 
Q 1550 3584 1831 3584 
Q 2591 3584 2966 3190 
Q 3341 2797 3341 1997 
z
" transform="scale(0.015625)"/>
      <path id="DejaVuSans-72" d="M 2631 2963 
Q 2534 3019 2420 3045 
Q 2306 3072 2169 3072 
Q 1681 3072 1420 2755 
Q 1159 2438 1159 1844 
L 1159 0 
L 581 0 
L 581 3500 
L 1159 3500 
L 1159 2956 
Q 1341 3275 1631 3429 
Q 1922 3584 2338 3584 
Q 2397 3584 2469 3576 
Q 2541 3569 2628 3553 
L 2631 2963 
z
" transform="scale(0.015625)"/>
      <path id="DejaVuSans-69" d="M 603 3500 
L 1178 3500 
L 1178 0 
L 603 0 
L 603 3500 
z
M 603 4863 
L 1178 4863 
L 1178 4134 
L 603 4134 
L 603 4863 
z
" transform="scale(0.015625)"/>
      <path id="DejaVuSans-67" d="M 2906 1791 
Q 2906 2416 2648 2759 
Q 2391 3103 1925 3103 
Q 1463 3103 1205 2759 
Q 947 2416 947 1791 
Q 947 1169 1205 825 
Q 1463 481 1925 481 
Q 2391 481 2648 825 
Q 2906 1169 2906 1791 
z
M 3481 434 
Q 3481 -459 3084 -895 
Q 2688 -1331 1869 -1331 
Q 1566 -1331 1297 -1286 
Q 1028 -1241 775 -1147 
L 775 -588 
Q 1028 -725 1275 -790 
Q 1522 -856 1778 -856 
Q 2344 -856 2625 -561 
Q 2906 -266 2906 331 
L 2906 616 
Q 2728 306 2450 153 
Q 2172 0 1784 0 
Q 1141 0 747 490 
Q 353 981 353 1791 
Q 353 2603 747 3093 
Q 1141 3584 1784 3584 
Q 2172 3584 2450 3431 
Q 2728 3278 2906 2969 
L 2906 3500 
L 3481 3500 
L 3481 434 
z
" transform="scale(0.015625)"/>
      <path id="DejaVuSans-65" d="M 3597 1894 
L 3597 1613 
L 953 1613 
Q 991 1019 1311 708 
Q 1631 397 2203 397 
Q 2534 397 2845 478 
Q 3156 559 3463 722 
L 3463 178 
Q 3153 47 2828 -22 
Q 2503 -91 2169 -91 
Q 1331 -91 842 396 
Q 353 884 353 1716 
Q 353 2575 817 3079 
Q 1281 3584 2069 3584 
Q 2775 3584 3186 3129 
Q 3597 2675 3597 1894 
z
M 3022 2063 
Q 3016 2534 2758 2815 
Q 2500 3097 2075 3097 
Q 1594 3097 1305 2825 
Q 1016 2553 972 2059 
L 3022 2063 
z
" transform="scale(0.015625)"/>
     </defs>
     <use xlink:href="#DejaVuSans-6d"/>
     <use xlink:href="#DejaVuSans-61" x="97.412109"/>
     <use xlink:href="#DejaVuSans-72" x="158.691406"/>
     <use xlink:href="#DejaVuSans-72" x="198.054688"/>
     <use xlink:href="#DejaVuSans-69" x="239.167969"/>
     <use xlink:href="#DejaVuSans-61" x="266.951172"/>
     <use xlink:href="#DejaVuSans-67" x="328.230469"/>
     <use xlink:href="#DejaVuSans-65" x="391.707031"/>
    </g>
   </g>
  </g>
  <g id="axes_2">
   <g id="LineCollection_2">
    <path d="M 426.944294 403.837647 
L 408.389548 474.152727 
" clip-path="url(#p4a1441a66b)" style="fill: none; stroke: #000000"/>
    <path d="M 426.944294 403.837647 
L 500.792186 454.185869 
" clip-path="url(#p4a1441a66b)" style="fill: none; stroke: #000000"/>
    <path d="M 426.944294 403.837647 
L 333.098723 434.039767 
" clip-path="url(#p4a1441a66b)" style="fill: none; stroke: #000000"/>
    <path d="M 426.944294 403.837647 
L 463.960594 358.05363 
" clip-path="url(#p4a1441a66b)" style="fill: none; stroke: #000000"/>
    <path d="M 426.944294 403.837647 
L 440.606571 305.073742 
" clip-path="url(#p4a1441a66b)" style="fill: none; stroke: #000000"/>
    <path d="M 429.917776 168.917496 
L 464.294312 219.395408 
" clip-path="url(#p4a1441a66b)" style="fill: none; stroke: #000000"/>
    <path d="M 429.917776 168.917496 
L 447.41009 107.607273 
" clip-path="url(#p4a1441a66b)" style="fill: none; stroke: #000000"/>
    <path d="M 429.917776 168.917496 
L 413.596945 236.251843 
" clip-path="url(#p4a1441a66b)" style="fill: none; stroke: #000000"/>
    <path d="M 429.917776 168.917496 
L 485.007933 150.780026 
" clip-path="url(#p4a1441a66b)" style="fill: none; stroke: #000000"/>
    <path d="M 464.294312 219.395408 
L 413.596945 236.251843 
" clip-path="url(#p4a1441a66b)" style="fill: none; stroke: #000000"/>
    <path d="M 464.294312 219.395408 
L 485.007933 150.780026 
" clip-path="url(#p4a1441a66b)" style="fill: none; stroke: #000000"/>
    <path d="M 464.294312 219.395408 
L 440.606571 305.073742 
" clip-path="url(#p4a1441a66b)" style="fill: none; stroke: #000000"/>
    <path d="M 447.41009 107.607273 
L 485.007933 150.780026 
" clip-path="url(#p4a1441a66b)" style="fill: none; stroke: #000000"/>
    <path d="M 463.960594 358.05363 
L 440.606571 305.073742 
" clip-path="url(#p4a1441a66b)" style="fill: none; stroke: #000000"/>
    <path d="M 413.596945 236.251843 
L 440.606571 305.073742 
" clip-path="url(#p4a1441a66b)" style="fill: none; stroke: #000000"/>
   </g>
   <g id="PathCollection_2">
    <path d="M 426.944294 408.837647 
C 428.270309 408.837647 429.542193 408.310816 430.479828 407.373181 
C 431.417462 406.435547 431.944294 405.163663 431.944294 403.837647 
C 431.944294 402.511632 431.417462 401.239748 430.479828 400.302113 
C 429.542193 399.364479 428.270309 398.837647 426.944294 398.837647 
C 425.618278 398.837647 424.346395 399.364479 423.40876 400.302113 
C 422.471125 401.239748 421.944294 402.511632 421.944294 403.837647 
C 421.944294 405.163663 422.471125 406.435547 423.40876 407.373181 
C 424.346395 408.310816 425.618278 408.837647 426.944294 408.837647 
z
" clip-path="url(#p4a1441a66b)" style="fill: #00ff8c; stroke: #00ff8c"/>
    <path d="M 408.389548 478.482854 
C 409.537911 478.482854 410.639395 478.026605 411.45141 477.214589 
C 412.263425 476.402574 412.719675 475.30109 412.719675 474.152727 
C 412.719675 473.004364 412.263425 471.90288 411.45141 471.090865 
C 410.639395 470.27885 409.537911 469.8226 408.389548 469.8226 
C 407.241185 469.8226 406.139701 470.27885 405.327686 471.090865 
C 404.51567 471.90288 404.059421 473.004364 404.059421 474.152727 
C 404.059421 475.30109 404.51567 476.402574 405.327686 477.214589 
C 406.139701 478.026605 407.241185 478.482854 408.389548 478.482854 
z
" clip-path="url(#p4a1441a66b)" style="fill: #00ff8c; stroke: #00ff8c"/>
    <path d="M 500.792186 458.515996 
C 501.940549 458.515996 503.042033 458.059747 503.854049 457.247731 
C 504.666064 456.435716 505.122313 455.334232 505.122313 454.185869 
C 505.122313 453.037506 504.666064 451.936022 503.854049 451.124007 
C 503.042033 450.311991 501.940549 449.855742 500.792186 449.855742 
C 499.643823 449.855742 498.542339 450.311991 497.730324 451.124007 
C 496.918309 451.936022 496.462059 453.037506 496.462059 454.185869 
C 496.462059 455.334232 496.918309 456.435716 497.730324 457.247731 
C 498.542339 458.059747 499.643823 458.515996 500.792186 458.515996 
z
" clip-path="url(#p4a1441a66b)" style="fill: #00ff8c; stroke: #00ff8c"/>
    <path d="M 333.098723 437.5753 
C 334.036357 437.5753 334.935715 437.202774 335.598723 436.539767 
C 336.261731 435.876759 336.634257 434.977401 336.634257 434.039767 
C 336.634257 433.102132 336.261731 432.202774 335.598723 431.539767 
C 334.935715 430.876759 334.036357 430.504233 333.098723 430.504233 
C 332.161088 430.504233 331.261731 430.876759 330.598723 431.539767 
C 329.935715 432.202774 329.563189 433.102132 329.563189 434.039767 
C 329.563189 434.977401 329.935715 435.876759 330.598723 436.539767 
C 331.261731 437.202774 332.161088 437.5753 333.098723 437.5753 
z
" clip-path="url(#p4a1441a66b)" style="fill: #00ff8c; stroke: #00ff8c"/>
    <path d="M 429.917776 172.45303 
C 430.85541 172.45303 431.754768 172.080504 432.417776 171.417496 
C 433.080783 170.754489 433.45331 169.855131 433.45331 168.917496 
C 433.45331 167.979862 433.080783 167.080504 432.417776 166.417496 
C 431.754768 165.754489 430.85541 165.381963 429.917776 165.381963 
C 428.980141 165.381963 428.080783 165.754489 427.417776 166.417496 
C 426.754768 167.080504 426.382242 167.979862 426.382242 168.917496 
C 426.382242 169.855131 426.754768 170.754489 427.417776 171.417496 
C 428.080783 172.080504 428.980141 172.45303 429.917776 172.45303 
z
" clip-path="url(#p4a1441a66b)" style="fill: #00ff8c; stroke: #00ff8c"/>
    <path d="M 464.294312 224.395408 
C 465.620328 224.395408 466.892212 223.868577 467.829846 222.930942 
C 468.767481 221.993308 469.294312 220.721424 469.294312 219.395408 
C 469.294312 218.069393 468.767481 216.797509 467.829846 215.859874 
C 466.892212 214.92224 465.620328 214.395408 464.294312 214.395408 
C 462.968297 214.395408 461.696413 214.92224 460.758779 215.859874 
C 459.821144 216.797509 459.294312 218.069393 459.294312 219.395408 
C 459.294312 220.721424 459.821144 221.993308 460.758779 222.930942 
C 461.696413 223.868577 462.968297 224.395408 464.294312 224.395408 
z
" clip-path="url(#p4a1441a66b)" style="fill: #00ff8c; stroke: #00ff8c"/>
    <path d="M 447.41009 113.197443 
C 448.892621 113.197443 450.31463 112.608427 451.362937 111.56012 
C 452.411245 110.511813 453.00026 109.089803 453.00026 107.607273 
C 453.00026 106.124742 452.411245 104.702733 451.362937 103.654426 
C 450.31463 102.606118 448.892621 102.017103 447.41009 102.017103 
C 445.92756 102.017103 444.50555 102.606118 443.457243 103.654426 
C 442.408936 104.702733 441.81992 106.124742 441.81992 107.607273 
C 441.81992 109.089803 442.408936 110.511813 443.457243 111.56012 
C 444.50555 112.608427 445.92756 113.197443 447.41009 113.197443 
z
" clip-path="url(#p4a1441a66b)" style="fill: #00ff8c; stroke: #00ff8c"/>
    <path d="M 463.960594 360.55363 
C 464.623602 360.55363 465.259544 360.290214 465.728361 359.821397 
C 466.197179 359.352579 466.460594 358.716638 466.460594 358.05363 
C 466.460594 357.390622 466.197179 356.75468 465.728361 356.285863 
C 465.259544 355.817046 464.623602 355.55363 463.960594 355.55363 
C 463.297587 355.55363 462.661645 355.817046 462.192828 356.285863 
C 461.72401 356.75468 461.460594 357.390622 461.460594 358.05363 
C 461.460594 358.716638 461.72401 359.352579 462.192828 359.821397 
C 462.661645 360.290214 463.297587 360.55363 463.960594 360.55363 
z
" clip-path="url(#p4a1441a66b)" style="fill: #00ff8c; stroke: #00ff8c"/>
    <path d="M 413.596945 241.251843 
C 414.922961 241.251843 416.194844 240.725012 417.132479 239.787377 
C 418.070114 238.849743 418.596945 237.577859 418.596945 236.251843 
C 418.596945 234.925828 418.070114 233.653944 417.132479 232.716309 
C 416.194844 231.778675 414.922961 231.251843 413.596945 231.251843 
C 412.27093 231.251843 410.999046 231.778675 410.061411 232.716309 
C 409.123777 233.653944 408.596945 234.925828 408.596945 236.251843 
C 408.596945 237.577859 409.123777 238.849743 410.061411 239.787377 
C 410.999046 240.725012 412.27093 241.251843 413.596945 241.251843 
z
" clip-path="url(#p4a1441a66b)" style="fill: #00ff8c; stroke: #00ff8c"/>
    <path d="M 485.007933 153.280026 
C 485.67094 153.280026 486.306882 153.016611 486.7757 152.547793 
C 487.244517 152.078976 487.507933 151.443034 487.507933 150.780026 
C 487.507933 150.117019 487.244517 149.481077 486.7757 149.012259 
C 486.306882 148.543442 485.67094 148.280026 485.007933 148.280026 
C 484.344925 148.280026 483.708983 148.543442 483.240166 149.012259 
C 482.771348 149.481077 482.507933 150.117019 482.507933 150.780026 
C 482.507933 151.443034 482.771348 152.078976 483.240166 152.547793 
C 483.708983 153.016611 484.344925 153.280026 485.007933 153.280026 
z
" clip-path="url(#p4a1441a66b)" style="fill: #00ff8c; stroke: #00ff8c"/>
    <path d="M 440.606571 307.573742 
C 441.269578 307.573742 441.90552 307.310326 442.374338 306.841508 
C 442.843155 306.372691 443.106571 305.736749 443.106571 305.073742 
C 443.106571 304.410734 442.843155 303.774792 442.374338 303.305975 
C 441.90552 302.837157 441.269578 302.573742 440.606571 302.573742 
C 439.943563 302.573742 439.307621 302.837157 438.838804 303.305975 
C 438.369986 303.774792 438.106571 304.410734 438.106571 305.073742 
C 438.106571 305.736749 438.369986 306.372691 438.838804 306.841508 
C 439.307621 307.310326 439.943563 307.573742 440.606571 307.573742 
z
" clip-path="url(#p4a1441a66b)" style="fill: #00ff8c; stroke: #00ff8c"/>
   </g>
   <g id="text_17">
    <g clip-path="url(#p4a1441a66b)">
     <!-- 8 -->
     <g transform="translate(424.081169 406.321085) scale(0.09 -0.09)">
      <use xlink:href="#DejaVuSerif-38"/>
     </g>
    </g>
   </g>
   <g id="text_18">
    <g clip-path="url(#p4a1441a66b)">
     <!-- 14 -->
     <g transform="translate(402.663298 476.636165) scale(0.09 -0.09)">
      <use xlink:href="#DejaVuSerif-31"/>
      <use xlink:href="#DejaVuSerif-34" x="63.623047"/>
     </g>
    </g>
   </g>
   <g id="text_19">
    <g clip-path="url(#p4a1441a66b)">
     <!-- 12 -->
     <g transform="translate(495.065936 456.669306) scale(0.09 -0.09)">
      <use xlink:href="#DejaVuSerif-31"/>
      <use xlink:href="#DejaVuSerif-32" x="63.623047"/>
     </g>
    </g>
   </g>
   <g id="text_20">
    <g clip-path="url(#p4a1441a66b)">
     <!-- 9 -->
     <g transform="translate(330.235598 436.523204) scale(0.09 -0.09)">
      <use xlink:href="#DejaVuSerif-39"/>
     </g>
    </g>
   </g>
   <g id="text_21">
    <g clip-path="url(#p4a1441a66b)">
     <!-- 7 -->
     <g transform="translate(427.054651 171.400934) scale(0.09 -0.09)">
      <use xlink:href="#DejaVuSerif-37"/>
     </g>
    </g>
   </g>
   <g id="text_22">
    <g clip-path="url(#p4a1441a66b)">
     <!-- 10 -->
     <g transform="translate(458.568062 221.878846) scale(0.09 -0.09)">
      <use xlink:href="#DejaVuSerif-31"/>
      <use xlink:href="#DejaVuSerif-30" x="63.623047"/>
     </g>
    </g>
   </g>
   <g id="text_23">
    <g clip-path="url(#p4a1441a66b)">
     <!-- 6 -->
     <g transform="translate(444.546965 110.09071) scale(0.09 -0.09)">
      <use xlink:href="#DejaVuSerif-36"/>
     </g>
    </g>
   </g>
   <g id="text_24">
    <g clip-path="url(#p4a1441a66b)">
     <!-- 5 -->
     <g transform="translate(461.097469 360.537067) scale(0.09 -0.09)">
      <use xlink:href="#DejaVuSerif-35"/>
     </g>
    </g>
   </g>
   <g id="text_25">
    <g clip-path="url(#p4a1441a66b)">
     <!-- 4 -->
     <g transform="translate(410.73382 238.735281) scale(0.09 -0.09)">
      <use xlink:href="#DejaVuSerif-34"/>
     </g>
    </g>
   </g>
   <g id="text_26">
    <g clip-path="url(#p4a1441a66b)">
     <!-- 3 -->
     <g transform="translate(482.144808 153.263464) scale(0.09 -0.09)">
      <use xlink:href="#DejaVuSerif-33"/>
     </g>
    </g>
   </g>
   <g id="text_27">
    <g clip-path="url(#p4a1441a66b)">
     <!-- 2 -->
     <g transform="translate(437.743446 307.557179) scale(0.09 -0.09)">
      <use xlink:href="#DejaVuSerif-32"/>
     </g>
    </g>
   </g>
   <g id="text_28">
    <!-- business -->
    <g transform="translate(390.795767 63.12) scale(0.12 -0.12)">
     <defs>
      <path id="DejaVuSans-62" d="M 3116 1747 
Q 3116 2381 2855 2742 
Q 2594 3103 2138 3103 
Q 1681 3103 1420 2742 
Q 1159 2381 1159 1747 
Q 1159 1113 1420 752 
Q 1681 391 2138 391 
Q 2594 391 2855 752 
Q 3116 1113 3116 1747 
z
M 1159 2969 
Q 1341 3281 1617 3432 
Q 1894 3584 2278 3584 
Q 2916 3584 3314 3078 
Q 3713 2572 3713 1747 
Q 3713 922 3314 415 
Q 2916 -91 2278 -91 
Q 1894 -91 1617 61 
Q 1341 213 1159 525 
L 1159 0 
L 581 0 
L 581 4863 
L 1159 4863 
L 1159 2969 
z
" transform="scale(0.015625)"/>
      <path id="DejaVuSans-75" d="M 544 1381 
L 544 3500 
L 1119 3500 
L 1119 1403 
Q 1119 906 1312 657 
Q 1506 409 1894 409 
Q 2359 409 2629 706 
Q 2900 1003 2900 1516 
L 2900 3500 
L 3475 3500 
L 3475 0 
L 2900 0 
L 2900 538 
Q 2691 219 2414 64 
Q 2138 -91 1772 -91 
Q 1169 -91 856 284 
Q 544 659 544 1381 
z
M 1991 3584 
L 1991 3584 
z
" transform="scale(0.015625)"/>
      <path id="DejaVuSans-73" d="M 2834 3397 
L 2834 2853 
Q 2591 2978 2328 3040 
Q 2066 3103 1784 3103 
Q 1356 3103 1142 2972 
Q 928 2841 928 2578 
Q 928 2378 1081 2264 
Q 1234 2150 1697 2047 
L 1894 2003 
Q 2506 1872 2764 1633 
Q 3022 1394 3022 966 
Q 3022 478 2636 193 
Q 2250 -91 1575 -91 
Q 1294 -91 989 -36 
Q 684 19 347 128 
L 347 722 
Q 666 556 975 473 
Q 1284 391 1588 391 
Q 1994 391 2212 530 
Q 2431 669 2431 922 
Q 2431 1156 2273 1281 
Q 2116 1406 1581 1522 
L 1381 1569 
Q 847 1681 609 1914 
Q 372 2147 372 2553 
Q 372 3047 722 3315 
Q 1072 3584 1716 3584 
Q 2034 3584 2315 3537 
Q 2597 3491 2834 3397 
z
" transform="scale(0.015625)"/>
      <path id="DejaVuSans-6e" d="M 3513 2113 
L 3513 0 
L 2938 0 
L 2938 2094 
Q 2938 2591 2744 2837 
Q 2550 3084 2163 3084 
Q 1697 3084 1428 2787 
Q 1159 2491 1159 1978 
L 1159 0 
L 581 0 
L 581 3500 
L 1159 3500 
L 1159 2956 
Q 1366 3272 1645 3428 
Q 1925 3584 2291 3584 
Q 2894 3584 3203 3211 
Q 3513 2838 3513 2113 
z
" transform="scale(0.015625)"/>
     </defs>
     <use xlink:href="#DejaVuSans-62"/>
     <use xlink:href="#DejaVuSans-75" x="63.476562"/>
     <use xlink:href="#DejaVuSans-73" x="126.855469"/>
     <use xlink:href="#DejaVuSans-69" x="178.955078"/>
     <use xlink:href="#DejaVuSans-6e" x="206.738281"/>
     <use xlink:href="#DejaVuSans-65" x="270.117188"/>
     <use xlink:href="#DejaVuSans-73" x="331.640625"/>
     <use xlink:href="#DejaVuSans-73" x="383.740234"/>
    </g>
   </g>
  </g>
 </g>
 <defs>
  <clipPath id="p658d50695a">
   <rect x="72" y="69.12" width="202.909091" height="443.52"/>
  </clipPath>
  <clipPath id="p4a1441a66b">
   <rect x="315.490909" y="69.12" width="202.909091" height="443.52"/>
  </clipPath>
 </defs>
</svg>
