<?xml version="1.0" encoding="utf-8" standalone="no"?>
<!DOCTYPE svg PUBLIC "-//W3C//DTD SVG 1.1//EN"
  "http://www.w3.org/Graphics/SVG/1.1/DTD/svg11.dtd">
<svg xmlns:xlink="http://www.w3.org/1999/xlink" width="576pt" height="576pt" viewBox="0 0 576 576" xmlns="http://www.w3.org/2000/svg" version="1.1">
 <metadata>
  <rdf:RDF xmlns:dc="http://purl.org/dc/elements/1.1/" xmlns:cc="http://creativecommons.org/ns#" xmlns:rdf="http://www.w3.org/1999/02/22-rdf-syntax-ns#">
   <cc:Work>
    <dc:type rdf:resource="http://purl.org/dc/dcmitype/StillImage"/>
    <dc:date>2025-01-15T09:53:56.257614</dc:date>
    <dc:format>image/svg+xml</dc:format>
    <dc:creator>
     <cc:Agent>
      <dc:title>Matplotlib v3.9.2, https://matplotlib.org/</dc:title>
     </cc:Agent>
    </dc:creator>
   </cc:Work>
  </rdf:RDF>
 </metadata>
 <defs>
  <style type="text/css">*{stroke-linejoin: round; stroke-linecap: butt}</style>
 </defs>
 <g id="figure_1">
  <g id="patch_1">
   <path d="M 0 576 
L 576 576 
L 576 0 
L 0 0 
L 0 576 
z
" style="fill: none"/>
  </g>
  <g id="axes_1">
   <g id="LineCollection_1">
    <path d="M 399.222797 207.875238 
L 428.161189 201.236897 
" clip-path="url(#p4a2aaabbff)" style="fill: none; stroke: #c4c4c4"/>
    <path d="M 399.222797 207.875238 
L 446.346378 182.931735 
" clip-path="url(#p4a2aaabbff)" style="fill: none; stroke: #c4c4c4"/>
    <path d="M 399.222797 207.875238 
L 305.908817 107.607273 
" clip-path="url(#p4a2aaabbff)" style="fill: none; stroke: #c4c4c4"/>
    <path d="M 428.161189 201.236897 
L 305.908817 107.607273 
" clip-path="url(#p4a2aaabbff)" style="fill: none; stroke: #c4c4c4"/>
    <path d="M 428.161189 201.236897 
L 233.128152 121.447464 
" clip-path="url(#p4a2aaabbff)" style="fill: none; stroke: #c4c4c4"/>
    <path d="M 446.346378 182.931735 
L 445.20744 157.49652 
" clip-path="url(#p4a2aaabbff)" style="fill: none; stroke: #c4c4c4"/>
    <path d="M 446.346378 182.931735 
L 121.977865 209.340081 
" clip-path="url(#p4a2aaabbff)" style="fill: none; stroke: #c4c4c4"/>
    <path d="M 446.346378 182.931735 
L 110.73719 275.785221 
" clip-path="url(#p4a2aaabbff)" style="fill: none; stroke: #c4c4c4"/>
    <path d="M 445.20744 157.49652 
L 121.977865 209.340081 
" clip-path="url(#p4a2aaabbff)" style="fill: none; stroke: #c4c4c4"/>
    <path d="M 445.20744 157.49652 
L 110.73719 275.785221 
" clip-path="url(#p4a2aaabbff)" style="fill: none; stroke: #c4c4c4"/>
    <path d="M 445.20744 157.49652 
L 167.013374 155.993533 
" clip-path="url(#p4a2aaabbff)" style="fill: none; stroke: #c4c4c4"/>
    <path d="M 445.20744 157.49652 
L 141.887598 346.429002 
" clip-path="url(#p4a2aaabbff)" style="fill: none; stroke: #c4c4c4"/>
    <path d="M 420.166884 131.563864 
L 371.767485 112.627711 
" clip-path="url(#p4a2aaabbff)" style="fill: none; stroke: #c4c4c4"/>
    <path d="M 420.166884 131.563864 
L 305.908817 107.607273 
" clip-path="url(#p4a2aaabbff)" style="fill: none; stroke: #c4c4c4"/>
    <path d="M 371.767485 112.627711 
L 305.908817 107.607273 
" clip-path="url(#p4a2aaabbff)" style="fill: none; stroke: #c4c4c4"/>
    <path d="M 305.908817 107.607273 
L 141.887598 346.429002 
" clip-path="url(#p4a2aaabbff)" style="fill: none; stroke: #c4c4c4"/>
    <path d="M 305.908817 107.607273 
L 217.986621 410.354804 
" clip-path="url(#p4a2aaabbff)" style="fill: none; stroke: #c4c4c4"/>
    <path d="M 305.908817 107.607273 
L 479.66281 474.152727 
" clip-path="url(#p4a2aaabbff)" style="fill: none; stroke: #c4c4c4"/>
    <path d="M 305.908817 107.607273 
L 334.474859 456.238069 
" clip-path="url(#p4a2aaabbff)" style="fill: none; stroke: #c4c4c4"/>
    <path d="M 233.128152 121.447464 
L 167.013374 155.993533 
" clip-path="url(#p4a2aaabbff)" style="fill: none; stroke: #c4c4c4"/>
    <path d="M 233.128152 121.447464 
L 110.73719 275.785221 
" clip-path="url(#p4a2aaabbff)" style="fill: none; stroke: #c4c4c4"/>
    <path d="M 233.128152 121.447464 
L 217.986621 410.354804 
" clip-path="url(#p4a2aaabbff)" style="fill: none; stroke: #c4c4c4"/>
    <path d="M 167.013374 155.993533 
L 121.977865 209.340081 
" clip-path="url(#p4a2aaabbff)" style="fill: none; stroke: #c4c4c4"/>
    <path d="M 167.013374 155.993533 
L 110.73719 275.785221 
" clip-path="url(#p4a2aaabbff)" style="fill: none; stroke: #c4c4c4"/>
    <path d="M 121.977865 209.340081 
L 141.887598 346.429002 
" clip-path="url(#p4a2aaabbff)" style="fill: none; stroke: #c4c4c4"/>
    <path d="M 141.887598 346.429002 
L 334.474859 456.238069 
" clip-path="url(#p4a2aaabbff)" style="fill: none; stroke: #c4c4c4"/>
    <path d="M 217.986621 410.354804 
L 334.474859 456.238069 
" clip-path="url(#p4a2aaabbff)" style="fill: none; stroke: #c4c4c4"/>
   </g>
   <g id="PathCollection_1">
    <path d="M 399.222797 210.375238 
C 399.885805 210.375238 400.521747 210.111822 400.990564 209.643005 
C 401.459381 209.174187 401.722797 208.538245 401.722797 207.875238 
C 401.722797 207.21223 401.459381 206.576288 400.990564 206.107471 
C 400.521747 205.638654 399.885805 205.375238 399.222797 205.375238 
C 398.559789 205.375238 397.923848 205.638654 397.45503 206.107471 
C 396.986213 206.576288 396.722797 207.21223 396.722797 207.875238 
C 396.722797 208.538245 396.986213 209.174187 397.45503 209.643005 
C 397.923848 210.111822 398.559789 210.375238 399.222797 210.375238 
z
" clip-path="url(#p4a2aaabbff)" style="fill: #5cff00; stroke: #5cff00"/>
    <path d="M 428.161189 205.567024 
C 429.309552 205.567024 430.411036 205.110775 431.223051 204.29876 
C 432.035067 203.486744 432.491316 202.385261 432.491316 201.236897 
C 432.491316 200.088534 432.035067 198.987051 431.223051 198.175035 
C 430.411036 197.36302 429.309552 196.90677 428.161189 196.90677 
C 427.012826 196.90677 425.911342 197.36302 425.099327 198.175035 
C 424.287312 198.987051 423.831062 200.088534 423.831062 201.236897 
C 423.831062 202.385261 424.287312 203.486744 425.099327 204.29876 
C 425.911342 205.110775 427.012826 205.567024 428.161189 205.567024 
z
" clip-path="url(#p4a2aaabbff)" style="fill: #5cff00; stroke: #5cff00"/>
    <path d="M 446.346378 187.931735 
C 447.672394 187.931735 448.944278 187.404903 449.881912 186.467269 
C 450.819547 185.529634 451.346378 184.25775 451.346378 182.931735 
C 451.346378 181.605719 450.819547 180.333835 449.881912 179.396201 
C 448.944278 178.458566 447.672394 177.931735 446.346378 177.931735 
C 445.020363 177.931735 443.748479 178.458566 442.810844 179.396201 
C 441.87321 180.333835 441.346378 181.605719 441.346378 182.931735 
C 441.346378 184.25775 441.87321 185.529634 442.810844 186.467269 
C 443.748479 187.404903 445.020363 187.931735 446.346378 187.931735 
z
" clip-path="url(#p4a2aaabbff)" style="fill: #5cff00; stroke: #5cff00"/>
    <path d="M 445.20744 162.49652 
C 446.533455 162.49652 447.805339 161.969689 448.742973 161.032054 
C 449.680608 160.09442 450.20744 158.822536 450.20744 157.49652 
C 450.20744 156.170505 449.680608 154.898621 448.742973 153.960986 
C 447.805339 153.023352 446.533455 152.49652 445.20744 152.49652 
C 443.881424 152.49652 442.60954 153.023352 441.671906 153.960986 
C 440.734271 154.898621 440.20744 156.170505 440.20744 157.49652 
C 440.20744 158.822536 440.734271 160.09442 441.671906 161.032054 
C 442.60954 161.969689 443.881424 162.49652 445.20744 162.49652 
z
" clip-path="url(#p4a2aaabbff)" style="fill: #5cff00; stroke: #5cff00"/>
    <path d="M 420.166884 136.563864 
C 421.492899 136.563864 422.764783 136.037032 423.702418 135.099398 
C 424.640052 134.161763 425.166884 132.889879 425.166884 131.563864 
C 425.166884 130.237848 424.640052 128.965965 423.702418 128.02833 
C 422.764783 127.090695 421.492899 126.563864 420.166884 126.563864 
C 418.840868 126.563864 417.568984 127.090695 416.63135 128.02833 
C 415.693715 128.965965 415.166884 130.237848 415.166884 131.563864 
C 415.166884 132.889879 415.693715 134.161763 416.63135 135.099398 
C 417.568984 136.037032 418.840868 136.563864 420.166884 136.563864 
z
" clip-path="url(#p4a2aaabbff)" style="fill: #5cff00; stroke: #5cff00"/>
    <path d="M 371.767485 116.957838 
C 372.915848 116.957838 374.017332 116.501589 374.829347 115.689573 
C 375.641362 114.877558 376.097612 113.776074 376.097612 112.627711 
C 376.097612 111.479348 375.641362 110.377864 374.829347 109.565849 
C 374.017332 108.753834 372.915848 108.297584 371.767485 108.297584 
C 370.619122 108.297584 369.517638 108.753834 368.705623 109.565849 
C 367.893607 110.377864 367.437358 111.479348 367.437358 112.627711 
C 367.437358 113.776074 367.893607 114.877558 368.705623 115.689573 
C 369.517638 116.501589 370.619122 116.957838 371.767485 116.957838 
z
" clip-path="url(#p4a2aaabbff)" style="fill: #5cff00; stroke: #5cff00"/>
    <path d="M 305.908817 112.607273 
C 307.234832 112.607273 308.506716 112.080441 309.444351 111.142807 
C 310.381985 110.205172 310.908817 108.933288 310.908817 107.607273 
C 310.908817 106.281257 310.381985 105.009373 309.444351 104.071739 
C 308.506716 103.134104 307.234832 102.607273 305.908817 102.607273 
C 304.582801 102.607273 303.310917 103.134104 302.373283 104.071739 
C 301.435648 105.009373 300.908817 106.281257 300.908817 107.607273 
C 300.908817 108.933288 301.435648 110.205172 302.373283 111.142807 
C 303.310917 112.080441 304.582801 112.607273 305.908817 112.607273 
z
" clip-path="url(#p4a2aaabbff)" style="fill: #5cff00; stroke: #5cff00"/>
    <path d="M 233.128152 126.447464 
C 234.454167 126.447464 235.726051 125.920633 236.663685 124.982998 
C 237.60132 124.045364 238.128152 122.77348 238.128152 121.447464 
C 238.128152 120.121449 237.60132 118.849565 236.663685 117.91193 
C 235.726051 116.974296 234.454167 116.447464 233.128152 116.447464 
C 231.802136 116.447464 230.530252 116.974296 229.592618 117.91193 
C 228.654983 118.849565 228.128152 120.121449 228.128152 121.447464 
C 228.128152 122.77348 228.654983 124.045364 229.592618 124.982998 
C 230.530252 125.920633 231.802136 126.447464 233.128152 126.447464 
z
" clip-path="url(#p4a2aaabbff)" style="fill: #5cff00; stroke: #5cff00"/>
    <path d="M 167.013374 163.064601 
C 168.888643 163.064601 170.687359 162.319548 172.013374 160.993533 
C 173.33939 159.667517 174.084442 157.868802 174.084442 155.993533 
C 174.084442 154.118264 173.33939 152.319548 172.013374 150.993533 
C 170.687359 149.667517 168.888643 148.922465 167.013374 148.922465 
C 165.138105 148.922465 163.33939 149.667517 162.013374 150.993533 
C 160.687359 152.319548 159.942306 154.118264 159.942306 155.993533 
C 159.942306 157.868802 160.687359 159.667517 162.013374 160.993533 
C 163.33939 162.319548 165.138105 163.064601 167.013374 163.064601 
z
" clip-path="url(#p4a2aaabbff)" style="fill: #5cff00; stroke: #5cff00"/>
    <path d="M 121.977865 212.875615 
C 122.9155 212.875615 123.814858 212.503089 124.477865 211.840081 
C 125.140873 211.177073 125.513399 210.277715 125.513399 209.340081 
C 125.513399 208.402446 125.140873 207.503089 124.477865 206.840081 
C 123.814858 206.177073 122.9155 205.804547 121.977865 205.804547 
C 121.040231 205.804547 120.140873 206.177073 119.477865 206.840081 
C 118.814858 207.503089 118.442331 208.402446 118.442331 209.340081 
C 118.442331 210.277715 118.814858 211.177073 119.477865 211.840081 
C 120.140873 212.503089 121.040231 212.875615 121.977865 212.875615 
z
" clip-path="url(#p4a2aaabbff)" style="fill: #5cff00; stroke: #5cff00"/>
    <path d="M 110.73719 281.375391 
C 112.21972 281.375391 113.64173 280.786376 114.690037 279.738068 
C 115.738344 278.689761 116.32736 277.267752 116.32736 275.785221 
C 116.32736 274.302691 115.738344 272.880682 114.690037 271.832374 
C 113.64173 270.784067 112.21972 270.195051 110.73719 270.195051 
C 109.25466 270.195051 107.83265 270.784067 106.784343 271.832374 
C 105.736036 272.880682 105.14702 274.302691 105.14702 275.785221 
C 105.14702 277.267752 105.736036 278.689761 106.784343 279.738068 
C 107.83265 280.786376 109.25466 281.375391 110.73719 281.375391 
z
" clip-path="url(#p4a2aaabbff)" style="fill: #5cff00; stroke: #5cff00"/>
    <path d="M 141.887598 350.759129 
C 143.035961 350.759129 144.137445 350.30288 144.94946 349.490864 
C 145.761475 348.678849 146.217725 347.577365 146.217725 346.429002 
C 146.217725 345.280639 145.761475 344.179155 144.94946 343.36714 
C 144.137445 342.555125 143.035961 342.098875 141.887598 342.098875 
C 140.739235 342.098875 139.637751 342.555125 138.825735 343.36714 
C 138.01372 344.179155 137.557471 345.280639 137.557471 346.429002 
C 137.557471 347.577365 138.01372 348.678849 138.825735 349.490864 
C 139.637751 350.30288 140.739235 350.759129 141.887598 350.759129 
z
" clip-path="url(#p4a2aaabbff)" style="fill: #5cff00; stroke: #5cff00"/>
    <path d="M 217.986621 413.890338 
C 218.924256 413.890338 219.823614 413.517812 220.486621 412.854804 
C 221.149629 412.191796 221.522155 411.292438 221.522155 410.354804 
C 221.522155 409.417169 221.149629 408.517812 220.486621 407.854804 
C 219.823614 407.191796 218.924256 406.81927 217.986621 406.81927 
C 217.048987 406.81927 216.149629 407.191796 215.486621 407.854804 
C 214.823614 408.517812 214.451087 409.417169 214.451087 410.354804 
C 214.451087 411.292438 214.823614 412.191796 215.486621 412.854804 
C 216.149629 413.517812 217.048987 413.890338 217.986621 413.890338 
z
" clip-path="url(#p4a2aaabbff)" style="fill: #5cff00; stroke: #5cff00"/>
    <path d="M 334.474859 461.238069 
C 335.800874 461.238069 337.072758 460.711237 338.010393 459.773602 
C 338.948027 458.835968 339.474859 457.564084 339.474859 456.238069 
C 339.474859 454.912053 338.948027 453.640169 338.010393 452.702535 
C 337.072758 451.7649 335.800874 451.238069 334.474859 451.238069 
C 333.148843 451.238069 331.87696 451.7649 330.939325 452.702535 
C 330.00169 453.640169 329.474859 454.912053 329.474859 456.238069 
C 329.474859 457.564084 330.00169 458.835968 330.939325 459.773602 
C 331.87696 460.711237 333.148843 461.238069 334.474859 461.238069 
z
" clip-path="url(#p4a2aaabbff)" style="fill: #5cff00; stroke: #5cff00"/>
    <path d="M 479.66281 478.482854 
C 480.811173 478.482854 481.912657 478.026605 482.724672 477.214589 
C 483.536687 476.402574 483.992937 475.30109 483.992937 474.152727 
C 483.992937 473.004364 483.536687 471.90288 482.724672 471.090865 
C 481.912657 470.27885 480.811173 469.8226 479.66281 469.8226 
C 478.514447 469.8226 477.412963 470.27885 476.600948 471.090865 
C 475.788932 471.90288 475.332683 473.004364 475.332683 474.152727 
C 475.332683 475.30109 475.788932 476.402574 476.600948 477.214589 
C 477.412963 478.026605 478.514447 478.482854 479.66281 478.482854 
z
" clip-path="url(#p4a2aaabbff)" style="fill: #ff0029; stroke: #ff0029"/>
   </g>
   <g id="text_1">
    <g clip-path="url(#p4a2aaabbff)">
     <!-- 11 -->
     <g transform="translate(393.496547 210.358675) scale(0.09 -0.09)">
      <defs>
       <path id="DejaVuSerif-31" d="M 909 0 
L 909 331 
L 1722 331 
L 1722 4213 
L 781 3603 
L 781 4013 
L 1919 4750 
L 2350 4750 
L 2350 331 
L 3163 331 
L 3163 0 
L 909 0 
z
" transform="scale(0.015625)"/>
      </defs>
      <use xlink:href="#DejaVuSerif-31"/>
      <use xlink:href="#DejaVuSerif-31" x="63.623047"/>
     </g>
    </g>
   </g>
   <g id="text_2">
    <g clip-path="url(#p4a2aaabbff)">
     <!-- 14 -->
     <g transform="translate(422.434939 203.720335) scale(0.09 -0.09)">
      <defs>
       <path id="DejaVuSerif-34" d="M 2234 1581 
L 2234 4063 
L 641 1581 
L 2234 1581 
z
M 3609 0 
L 1484 0 
L 1484 331 
L 2234 331 
L 2234 1247 
L 197 1247 
L 197 1588 
L 2241 4750 
L 2859 4750 
L 2859 1581 
L 3750 1581 
L 3750 1247 
L 2859 1247 
L 2859 331 
L 3609 331 
L 3609 0 
z
" transform="scale(0.015625)"/>
      </defs>
      <use xlink:href="#DejaVuSerif-31"/>
      <use xlink:href="#DejaVuSerif-34" x="63.623047"/>
     </g>
    </g>
   </g>
   <g id="text_3">
    <g clip-path="url(#p4a2aaabbff)">
     <!-- 13 -->
     <g transform="translate(440.620128 185.415172) scale(0.09 -0.09)">
      <defs>
       <path id="DejaVuSerif-33" d="M 622 4469 
Q 988 4606 1323 4678 
Q 1659 4750 1953 4750 
Q 2638 4750 3022 4454 
Q 3406 4159 3406 3634 
Q 3406 3213 3140 2930 
Q 2875 2647 2388 2547 
Q 2963 2466 3280 2130 
Q 3597 1794 3597 1259 
Q 3597 606 3158 257 
Q 2719 -91 1894 -91 
Q 1528 -91 1179 -12 
Q 831 66 488 225 
L 488 1131 
L 838 1131 
Q 869 681 1141 450 
Q 1413 219 1906 219 
Q 2384 219 2661 495 
Q 2938 772 2938 1253 
Q 2938 1803 2653 2086 
Q 2369 2369 1819 2369 
L 1522 2369 
L 1522 2688 
L 1678 2688 
Q 2225 2688 2498 2914 
Q 2772 3141 2772 3597 
Q 2772 4006 2547 4223 
Q 2322 4441 1900 4441 
Q 1478 4441 1245 4241 
Q 1013 4041 972 3647 
L 622 3647 
L 622 4469 
z
" transform="scale(0.015625)"/>
      </defs>
      <use xlink:href="#DejaVuSerif-31"/>
      <use xlink:href="#DejaVuSerif-33" x="63.623047"/>
     </g>
    </g>
   </g>
   <g id="text_4">
    <g clip-path="url(#p4a2aaabbff)">
     <!-- 10 -->
     <g transform="translate(439.48119 159.979958) scale(0.09 -0.09)">
      <defs>
       <path id="DejaVuSerif-30" d="M 2034 219 
Q 2513 219 2750 744 
Q 2988 1269 2988 2328 
Q 2988 3391 2750 3916 
Q 2513 4441 2034 4441 
Q 1556 4441 1318 3916 
Q 1081 3391 1081 2328 
Q 1081 1269 1318 744 
Q 1556 219 2034 219 
z
M 2034 -91 
Q 1275 -91 848 546 
Q 422 1184 422 2328 
Q 422 3475 848 4112 
Q 1275 4750 2034 4750 
Q 2797 4750 3222 4112 
Q 3647 3475 3647 2328 
Q 3647 1184 3222 546 
Q 2797 -91 2034 -91 
z
" transform="scale(0.015625)"/>
      </defs>
      <use xlink:href="#DejaVuSerif-31"/>
      <use xlink:href="#DejaVuSerif-30" x="63.623047"/>
     </g>
    </g>
   </g>
   <g id="text_5">
    <g clip-path="url(#p4a2aaabbff)">
     <!-- 9 -->
     <g transform="translate(417.303759 134.047301) scale(0.09 -0.09)">
      <defs>
       <path id="DejaVuSerif-39" d="M 2994 2091 
Q 2784 1856 2512 1740 
Q 2241 1625 1900 1625 
Q 1206 1625 804 2044 
Q 403 2463 403 3188 
Q 403 3897 839 4323 
Q 1275 4750 2003 4750 
Q 2794 4750 3217 4161 
Q 3641 3572 3641 2478 
Q 3641 1253 3137 581 
Q 2634 -91 1722 -91 
Q 1475 -91 1203 -44 
Q 931 3 647 97 
L 647 872 
L 997 872 
Q 1038 556 1241 387 
Q 1444 219 1784 219 
Q 2391 219 2687 676 
Q 2984 1134 2994 2091 
z
M 1978 4441 
Q 1534 4441 1298 4117 
Q 1063 3794 1063 3188 
Q 1063 2581 1298 2256 
Q 1534 1931 1978 1931 
Q 2422 1931 2658 2245 
Q 2894 2559 2894 3150 
Q 2894 3772 2656 4106 
Q 2419 4441 1978 4441 
z
" transform="scale(0.015625)"/>
      </defs>
      <use xlink:href="#DejaVuSerif-39"/>
     </g>
    </g>
   </g>
   <g id="text_6">
    <g clip-path="url(#p4a2aaabbff)">
     <!-- 12 -->
     <g transform="translate(366.041235 115.111149) scale(0.09 -0.09)">
      <defs>
       <path id="DejaVuSerif-32" d="M 819 3553 
L 469 3553 
L 469 4384 
Q 803 4563 1142 4656 
Q 1481 4750 1806 4750 
Q 2534 4750 2956 4397 
Q 3378 4044 3378 3438 
Q 3378 2753 2422 1800 
Q 2347 1728 2309 1691 
L 1131 513 
L 3078 513 
L 3078 1088 
L 3444 1088 
L 3444 0 
L 434 0 
L 434 341 
L 1850 1753 
Q 2319 2222 2519 2614 
Q 2719 3006 2719 3438 
Q 2719 3909 2473 4175 
Q 2228 4441 1797 4441 
Q 1350 4441 1106 4219 
Q 863 3997 819 3553 
z
" transform="scale(0.015625)"/>
      </defs>
      <use xlink:href="#DejaVuSerif-31"/>
      <use xlink:href="#DejaVuSerif-32" x="63.623047"/>
     </g>
    </g>
   </g>
   <g id="text_7">
    <g clip-path="url(#p4a2aaabbff)">
     <!-- 8 -->
     <g transform="translate(303.045692 110.09071) scale(0.09 -0.09)">
      <defs>
       <path id="DejaVuSerif-38" d="M 2981 1275 
Q 2981 1775 2732 2051 
Q 2484 2328 2034 2328 
Q 1584 2328 1336 2051 
Q 1088 1775 1088 1275 
Q 1088 772 1336 495 
Q 1584 219 2034 219 
Q 2484 219 2732 495 
Q 2981 772 2981 1275 
z
M 2853 3541 
Q 2853 3966 2637 4203 
Q 2422 4441 2034 4441 
Q 1650 4441 1433 4203 
Q 1216 3966 1216 3541 
Q 1216 3113 1433 2875 
Q 1650 2638 2034 2638 
Q 2422 2638 2637 2875 
Q 2853 3113 2853 3541 
z
M 2516 2484 
Q 3047 2413 3344 2092 
Q 3641 1772 3641 1275 
Q 3641 619 3225 264 
Q 2809 -91 2034 -91 
Q 1263 -91 845 264 
Q 428 619 428 1275 
Q 428 1772 725 2092 
Q 1022 2413 1556 2484 
Q 1084 2569 832 2842 
Q 581 3116 581 3541 
Q 581 4103 968 4426 
Q 1356 4750 2034 4750 
Q 2713 4750 3100 4426 
Q 3488 4103 3488 3541 
Q 3488 3116 3236 2842 
Q 2984 2569 2516 2484 
z
" transform="scale(0.015625)"/>
      </defs>
      <use xlink:href="#DejaVuSerif-38"/>
     </g>
    </g>
   </g>
   <g id="text_8">
    <g clip-path="url(#p4a2aaabbff)">
     <!-- 6 -->
     <g transform="translate(230.265027 123.930902) scale(0.09 -0.09)">
      <defs>
       <path id="DejaVuSerif-36" d="M 2094 219 
Q 2534 219 2771 542 
Q 3009 866 3009 1472 
Q 3009 2078 2771 2401 
Q 2534 2725 2094 2725 
Q 1647 2725 1412 2412 
Q 1178 2100 1178 1509 
Q 1178 888 1415 553 
Q 1653 219 2094 219 
z
M 1075 2569 
Q 1288 2803 1556 2918 
Q 1825 3034 2163 3034 
Q 2859 3034 3264 2615 
Q 3669 2197 3669 1472 
Q 3669 763 3233 336 
Q 2797 -91 2069 -91 
Q 1278 -91 853 498 
Q 428 1088 428 2181 
Q 428 3406 931 4078 
Q 1434 4750 2350 4750 
Q 2597 4750 2869 4703 
Q 3141 4656 3425 4563 
L 3425 3794 
L 3072 3794 
Q 3034 4109 2831 4275 
Q 2628 4441 2284 4441 
Q 1678 4441 1381 3981 
Q 1084 3522 1075 2569 
z
" transform="scale(0.015625)"/>
      </defs>
      <use xlink:href="#DejaVuSerif-36"/>
     </g>
    </g>
   </g>
   <g id="text_9">
    <g clip-path="url(#p4a2aaabbff)">
     <!-- 7 -->
     <g transform="translate(164.150249 158.47697) scale(0.09 -0.09)">
      <defs>
       <path id="DejaVuSerif-37" d="M 3609 4347 
L 1784 0 
L 1319 0 
L 3059 4153 
L 903 4153 
L 903 3578 
L 538 3578 
L 538 4666 
L 3609 4666 
L 3609 4347 
z
" transform="scale(0.015625)"/>
      </defs>
      <use xlink:href="#DejaVuSerif-37"/>
     </g>
    </g>
   </g>
   <g id="text_10">
    <g clip-path="url(#p4a2aaabbff)">
     <!-- 4 -->
     <g transform="translate(119.11474 211.823518) scale(0.09 -0.09)">
      <use xlink:href="#DejaVuSerif-34"/>
     </g>
    </g>
   </g>
   <g id="text_11">
    <g clip-path="url(#p4a2aaabbff)">
     <!-- 3 -->
     <g transform="translate(107.874065 278.268659) scale(0.09 -0.09)">
      <use xlink:href="#DejaVuSerif-33"/>
     </g>
    </g>
   </g>
   <g id="text_12">
    <g clip-path="url(#p4a2aaabbff)">
     <!-- 2 -->
     <g transform="translate(139.024473 348.91244) scale(0.09 -0.09)">
      <use xlink:href="#DejaVuSerif-32"/>
     </g>
    </g>
   </g>
   <g id="text_13">
    <g clip-path="url(#p4a2aaabbff)">
     <!-- 1 -->
     <g transform="translate(215.123496 412.838241) scale(0.09 -0.09)">
      <use xlink:href="#DejaVuSerif-31"/>
     </g>
    </g>
   </g>
   <g id="text_14">
    <g clip-path="url(#p4a2aaabbff)">
     <!-- 5 -->
     <g transform="translate(331.611734 458.721506) scale(0.09 -0.09)">
      <defs>
       <path id="DejaVuSerif-35" d="M 3219 4666 
L 3219 4153 
L 1081 4153 
L 1081 2816 
Q 1244 2928 1461 2984 
Q 1678 3041 1947 3041 
Q 2703 3041 3140 2622 
Q 3578 2203 3578 1478 
Q 3578 738 3136 323 
Q 2694 -91 1894 -91 
Q 1572 -91 1234 -12 
Q 897 66 544 225 
L 544 1131 
L 897 1131 
Q 925 688 1179 453 
Q 1434 219 1894 219 
Q 2388 219 2653 544 
Q 2919 869 2919 1478 
Q 2919 2084 2655 2407 
Q 2391 2731 1894 2731 
Q 1613 2731 1398 2631 
Q 1184 2531 1019 2322 
L 750 2322 
L 750 4666 
L 3219 4666 
z
" transform="scale(0.015625)"/>
      </defs>
      <use xlink:href="#DejaVuSerif-35"/>
     </g>
    </g>
   </g>
   <g id="text_15">
    <g clip-path="url(#p4a2aaabbff)">
     <!-- 0 -->
     <g transform="translate(476.799685 476.636165) scale(0.09 -0.09)">
      <use xlink:href="#DejaVuSerif-30"/>
     </g>
    </g>
   </g>
  </g>
 </g>
 <defs>
  <clipPath id="p4a2aaabbff">
   <rect x="72" y="69.12" width="446.4" height="443.52"/>
  </clipPath>
 </defs>
</svg>
