<?xml version="1.0" encoding="utf-8" standalone="no"?>
<!DOCTYPE svg PUBLIC "-//W3C//DTD SVG 1.1//EN"
  "http://www.w3.org/Graphics/SVG/1.1/DTD/svg11.dtd">
<svg xmlns:xlink="http://www.w3.org/1999/xlink" width="576pt" height="576pt" viewBox="0 0 576 576" xmlns="http://www.w3.org/2000/svg" version="1.1">
 <metadata>
  <rdf:RDF xmlns:dc="http://purl.org/dc/elements/1.1/" xmlns:cc="http://creativecommons.org/ns#" xmlns:rdf="http://www.w3.org/1999/02/22-rdf-syntax-ns#">
   <cc:Work>
    <dc:type rdf:resource="http://purl.org/dc/dcmitype/StillImage"/>
    <dc:date>2025-01-15T09:53:56.445313</dc:date>
    <dc:format>image/svg+xml</dc:format>
    <dc:creator>
     <cc:Agent>
      <dc:title>Matplotlib v3.9.2, https://matplotlib.org/</dc:title>
     </cc:Agent>
    </dc:creator>
   </cc:Work>
  </rdf:RDF>
 </metadata>
 <defs>
  <style type="text/css">*{stroke-linejoin: round; stroke-linecap: butt}</style>
 </defs>
 <g id="figure_1">
  <g id="patch_1">
   <path d="M 0 576 
L 576 576 
L 576 0 
L 0 0 
L 0 576 
z
" style="fill: none"/>
  </g>
  <g id="axes_1">
   <g id="LineCollection_1">
    <path d="M 258.814836 249.642669 
L 267.310587 181.590405 
" clip-path="url(#pc78624947f)" style="fill: none; stroke: #c4c4c4"/>
    <path d="M 258.814836 249.642669 
L 180.428689 359.613956 
" clip-path="url(#pc78624947f)" style="fill: none; stroke: #c4c4c4"/>
    <path d="M 258.814836 249.642669 
L 367.061848 249.496866 
" clip-path="url(#pc78624947f)" style="fill: none; stroke: #c4c4c4"/>
    <path d="M 267.310587 181.590405 
L 367.061848 249.496866 
" clip-path="url(#pc78624947f)" style="fill: none; stroke: #c4c4c4"/>
    <path d="M 267.310587 181.590405 
L 186.002957 278.662779 
" clip-path="url(#pc78624947f)" style="fill: none; stroke: #c4c4c4"/>
    <path d="M 180.428689 359.613956 
L 172.537024 431.279268 
" clip-path="url(#pc78624947f)" style="fill: none; stroke: #c4c4c4"/>
    <path d="M 180.428689 359.613956 
L 197.609002 474.152727 
" clip-path="url(#pc78624947f)" style="fill: none; stroke: #c4c4c4"/>
    <path d="M 180.428689 359.613956 
L 110.73719 343.059305 
" clip-path="url(#pc78624947f)" style="fill: none; stroke: #c4c4c4"/>
    <path d="M 172.537024 431.279268 
L 197.609002 474.152727 
" clip-path="url(#pc78624947f)" style="fill: none; stroke: #c4c4c4"/>
    <path d="M 172.537024 431.279268 
L 110.73719 343.059305 
" clip-path="url(#pc78624947f)" style="fill: none; stroke: #c4c4c4"/>
    <path d="M 172.537024 431.279268 
L 120.952241 410.292971 
" clip-path="url(#pc78624947f)" style="fill: none; stroke: #c4c4c4"/>
    <path d="M 172.537024 431.279268 
L 285.035709 404.327935 
" clip-path="url(#pc78624947f)" style="fill: none; stroke: #c4c4c4"/>
    <path d="M 479.66281 266.921922 
L 472.470831 198.510802 
" clip-path="url(#pc78624947f)" style="fill: none; stroke: #c4c4c4"/>
    <path d="M 479.66281 266.921922 
L 367.061848 249.496866 
" clip-path="url(#pc78624947f)" style="fill: none; stroke: #c4c4c4"/>
    <path d="M 472.470831 198.510802 
L 367.061848 249.496866 
" clip-path="url(#pc78624947f)" style="fill: none; stroke: #c4c4c4"/>
    <path d="M 367.061848 249.496866 
L 285.035709 404.327935 
" clip-path="url(#pc78624947f)" style="fill: none; stroke: #c4c4c4"/>
    <path d="M 367.061848 249.496866 
L 303.017369 296.591278 
" clip-path="url(#pc78624947f)" style="fill: none; stroke: #c4c4c4"/>
    <path d="M 367.061848 249.496866 
L 416.084468 107.607273 
" clip-path="url(#pc78624947f)" style="fill: none; stroke: #c4c4c4"/>
    <path d="M 367.061848 249.496866 
L 363.205628 363.967084 
" clip-path="url(#pc78624947f)" style="fill: none; stroke: #c4c4c4"/>
    <path d="M 186.002957 278.662779 
L 120.952241 410.292971 
" clip-path="url(#pc78624947f)" style="fill: none; stroke: #c4c4c4"/>
    <path d="M 186.002957 278.662779 
L 110.73719 343.059305 
" clip-path="url(#pc78624947f)" style="fill: none; stroke: #c4c4c4"/>
    <path d="M 186.002957 278.662779 
L 303.017369 296.591278 
" clip-path="url(#pc78624947f)" style="fill: none; stroke: #c4c4c4"/>
    <path d="M 120.952241 410.292971 
L 197.609002 474.152727 
" clip-path="url(#pc78624947f)" style="fill: none; stroke: #c4c4c4"/>
    <path d="M 120.952241 410.292971 
L 110.73719 343.059305 
" clip-path="url(#pc78624947f)" style="fill: none; stroke: #c4c4c4"/>
    <path d="M 197.609002 474.152727 
L 285.035709 404.327935 
" clip-path="url(#pc78624947f)" style="fill: none; stroke: #c4c4c4"/>
    <path d="M 285.035709 404.327935 
L 363.205628 363.967084 
" clip-path="url(#pc78624947f)" style="fill: none; stroke: #c4c4c4"/>
    <path d="M 303.017369 296.591278 
L 363.205628 363.967084 
" clip-path="url(#pc78624947f)" style="fill: none; stroke: #c4c4c4"/>
   </g>
   <g id="PathCollection_1">
    <path d="M 258.814836 252.142669 
C 259.477844 252.142669 260.113786 251.879254 260.582603 251.410436 
C 261.051421 250.941619 261.314836 250.305677 261.314836 249.642669 
C 261.314836 248.979662 261.051421 248.34372 260.582603 247.874902 
C 260.113786 247.406085 259.477844 247.142669 258.814836 247.142669 
C 258.151829 247.142669 257.515887 247.406085 257.047069 247.874902 
C 256.578252 248.34372 256.314836 248.979662 256.314836 249.642669 
C 256.314836 250.305677 256.578252 250.941619 257.047069 251.410436 
C 257.515887 251.879254 258.151829 252.142669 258.814836 252.142669 
z
" clip-path="url(#pc78624947f)" style="fill: #5cff00; stroke: #5cff00"/>
    <path d="M 267.310587 185.920532 
C 268.45895 185.920532 269.560433 185.464283 270.372449 184.652267 
C 271.184464 183.840252 271.640714 182.738768 271.640714 181.590405 
C 271.640714 180.442042 271.184464 179.340558 270.372449 178.528543 
C 269.560433 177.716527 268.45895 177.260278 267.310587 177.260278 
C 266.162223 177.260278 265.06074 177.716527 264.248724 178.528543 
C 263.436709 179.340558 262.98046 180.442042 262.98046 181.590405 
C 262.98046 182.738768 263.436709 183.840252 264.248724 184.652267 
C 265.06074 185.464283 266.162223 185.920532 267.310587 185.920532 
z
" clip-path="url(#pc78624947f)" style="fill: #5cff00; stroke: #5cff00"/>
    <path d="M 180.428689 364.613956 
C 181.754704 364.613956 183.026588 364.087124 183.964223 363.149489 
C 184.901857 362.211855 185.428689 360.939971 185.428689 359.613956 
C 185.428689 358.28794 184.901857 357.016056 183.964223 356.078422 
C 183.026588 355.140787 181.754704 354.613956 180.428689 354.613956 
C 179.102673 354.613956 177.83079 355.140787 176.893155 356.078422 
C 175.95552 357.016056 175.428689 358.28794 175.428689 359.613956 
C 175.428689 360.939971 175.95552 362.211855 176.893155 363.149489 
C 177.83079 364.087124 179.102673 364.613956 180.428689 364.613956 
z
" clip-path="url(#pc78624947f)" style="fill: #5cff00; stroke: #5cff00"/>
    <path d="M 172.537024 436.279268 
C 173.863039 436.279268 175.134923 435.752436 176.072558 434.814802 
C 177.010192 433.877167 177.537024 432.605283 177.537024 431.279268 
C 177.537024 429.953252 177.010192 428.681369 176.072558 427.743734 
C 175.134923 426.806099 173.863039 426.279268 172.537024 426.279268 
C 171.211008 426.279268 169.939124 426.806099 169.00149 427.743734 
C 168.063855 428.681369 167.537024 429.953252 167.537024 431.279268 
C 167.537024 432.605283 168.063855 433.877167 169.00149 434.814802 
C 169.939124 435.752436 171.211008 436.279268 172.537024 436.279268 
z
" clip-path="url(#pc78624947f)" style="fill: #5cff00; stroke: #5cff00"/>
    <path d="M 479.66281 271.921922 
C 480.988825 271.921922 482.260709 271.395091 483.198344 270.457456 
C 484.135978 269.519822 484.66281 268.247938 484.66281 266.921922 
C 484.66281 265.595907 484.135978 264.324023 483.198344 263.386389 
C 482.260709 262.448754 480.988825 261.921922 479.66281 261.921922 
C 478.336794 261.921922 477.064911 262.448754 476.127276 263.386389 
C 475.189641 264.324023 474.66281 265.595907 474.66281 266.921922 
C 474.66281 268.247938 475.189641 269.519822 476.127276 270.457456 
C 477.064911 271.395091 478.336794 271.921922 479.66281 271.921922 
z
" clip-path="url(#pc78624947f)" style="fill: #5cff00; stroke: #5cff00"/>
    <path d="M 472.470831 202.840929 
C 473.619194 202.840929 474.720678 202.384679 475.532693 201.572664 
C 476.344708 200.760649 476.800958 199.659165 476.800958 198.510802 
C 476.800958 197.362439 476.344708 196.260955 475.532693 195.44894 
C 474.720678 194.636924 473.619194 194.180675 472.470831 194.180675 
C 471.322468 194.180675 470.220984 194.636924 469.408969 195.44894 
C 468.596953 196.260955 468.140704 197.362439 468.140704 198.510802 
C 468.140704 199.659165 468.596953 200.760649 469.408969 201.572664 
C 470.220984 202.384679 471.322468 202.840929 472.470831 202.840929 
z
" clip-path="url(#pc78624947f)" style="fill: #5cff00; stroke: #5cff00"/>
    <path d="M 367.061848 254.496866 
C 368.387864 254.496866 369.659748 253.970034 370.597382 253.0324 
C 371.535017 252.094765 372.061848 250.822881 372.061848 249.496866 
C 372.061848 248.17085 371.535017 246.898966 370.597382 245.961332 
C 369.659748 245.023697 368.387864 244.496866 367.061848 244.496866 
C 365.735833 244.496866 364.463949 245.023697 363.526314 245.961332 
C 362.58868 246.898966 362.061848 248.17085 362.061848 249.496866 
C 362.061848 250.822881 362.58868 252.094765 363.526314 253.0324 
C 364.463949 253.970034 365.735833 254.496866 367.061848 254.496866 
z
" clip-path="url(#pc78624947f)" style="fill: #5cff00; stroke: #5cff00"/>
    <path d="M 186.002957 283.662779 
C 187.328972 283.662779 188.600856 283.135948 189.538491 282.198313 
C 190.476125 281.260678 191.002957 279.988795 191.002957 278.662779 
C 191.002957 277.336764 190.476125 276.06488 189.538491 275.127245 
C 188.600856 274.189611 187.328972 273.662779 186.002957 273.662779 
C 184.676941 273.662779 183.405058 274.189611 182.467423 275.127245 
C 181.529789 276.06488 181.002957 277.336764 181.002957 278.662779 
C 181.002957 279.988795 181.529789 281.260678 182.467423 282.198313 
C 183.405058 283.135948 184.676941 283.662779 186.002957 283.662779 
z
" clip-path="url(#pc78624947f)" style="fill: #5cff00; stroke: #5cff00"/>
    <path d="M 120.952241 417.364038 
C 122.82751 417.364038 124.626226 416.618986 125.952241 415.292971 
C 127.278257 413.966955 128.023309 412.16824 128.023309 410.292971 
C 128.023309 408.417702 127.278257 406.618986 125.952241 405.292971 
C 124.626226 403.966955 122.82751 403.221903 120.952241 403.221903 
C 119.076972 403.221903 117.278257 403.966955 115.952241 405.292971 
C 114.626226 406.618986 113.881173 408.417702 113.881173 410.292971 
C 113.881173 412.16824 114.626226 413.966955 115.952241 415.292971 
C 117.278257 416.618986 119.076972 417.364038 120.952241 417.364038 
z
" clip-path="url(#pc78624947f)" style="fill: #5cff00; stroke: #5cff00"/>
    <path d="M 197.609002 477.688261 
C 198.546636 477.688261 199.445994 477.315735 200.109002 476.652727 
C 200.772009 475.98972 201.144536 475.090362 201.144536 474.152727 
C 201.144536 473.215093 200.772009 472.315735 200.109002 471.652727 
C 199.445994 470.98972 198.546636 470.617193 197.609002 470.617193 
C 196.671367 470.617193 195.772009 470.98972 195.109002 471.652727 
C 194.445994 472.315735 194.073468 473.215093 194.073468 474.152727 
C 194.073468 475.090362 194.445994 475.98972 195.109002 476.652727 
C 195.772009 477.315735 196.671367 477.688261 197.609002 477.688261 
z
" clip-path="url(#pc78624947f)" style="fill: #5cff00; stroke: #5cff00"/>
    <path d="M 110.73719 348.649475 
C 112.21972 348.649475 113.64173 348.060459 114.690037 347.012152 
C 115.738344 345.963844 116.32736 344.541835 116.32736 343.059305 
C 116.32736 341.576774 115.738344 340.154765 114.690037 339.106458 
C 113.64173 338.05815 112.21972 337.469135 110.73719 337.469135 
C 109.25466 337.469135 107.83265 338.05815 106.784343 339.106458 
C 105.736036 340.154765 105.14702 341.576774 105.14702 343.059305 
C 105.14702 344.541835 105.736036 345.963844 106.784343 347.012152 
C 107.83265 348.060459 109.25466 348.649475 110.73719 348.649475 
z
" clip-path="url(#pc78624947f)" style="fill: #5cff00; stroke: #5cff00"/>
    <path d="M 285.035709 408.658062 
C 286.184072 408.658062 287.285556 408.201812 288.097571 407.389797 
C 288.909587 406.577782 289.365836 405.476298 289.365836 404.327935 
C 289.365836 403.179572 288.909587 402.078088 288.097571 401.266073 
C 287.285556 400.454057 286.184072 399.997808 285.035709 399.997808 
C 283.887346 399.997808 282.785862 400.454057 281.973847 401.266073 
C 281.161832 402.078088 280.705582 403.179572 280.705582 404.327935 
C 280.705582 405.476298 281.161832 406.577782 281.973847 407.389797 
C 282.785862 408.201812 283.887346 408.658062 285.035709 408.658062 
z
" clip-path="url(#pc78624947f)" style="fill: #5cff00; stroke: #5cff00"/>
    <path d="M 303.017369 300.126812 
C 303.955003 300.126812 304.854361 299.754286 305.517369 299.091278 
C 306.180376 298.428271 306.552902 297.528913 306.552902 296.591278 
C 306.552902 295.653644 306.180376 294.754286 305.517369 294.091278 
C 304.854361 293.428271 303.955003 293.055744 303.017369 293.055744 
C 302.079734 293.055744 301.180376 293.428271 300.517369 294.091278 
C 299.854361 294.754286 299.481835 295.653644 299.481835 296.591278 
C 299.481835 297.528913 299.854361 298.428271 300.517369 299.091278 
C 301.180376 299.754286 302.079734 300.126812 303.017369 300.126812 
z
" clip-path="url(#pc78624947f)" style="fill: #5cff00; stroke: #5cff00"/>
    <path d="M 363.205628 368.967084 
C 364.531643 368.967084 365.803527 368.440253 366.741162 367.502618 
C 367.678796 366.564984 368.205628 365.2931 368.205628 363.967084 
C 368.205628 362.641069 367.678796 361.369185 366.741162 360.431551 
C 365.803527 359.493916 364.531643 358.967084 363.205628 358.967084 
C 361.879612 358.967084 360.607728 359.493916 359.670094 360.431551 
C 358.732459 361.369185 358.205628 362.641069 358.205628 363.967084 
C 358.205628 365.2931 358.732459 366.564984 359.670094 367.502618 
C 360.607728 368.440253 361.879612 368.967084 363.205628 368.967084 
z
" clip-path="url(#pc78624947f)" style="fill: #5cff00; stroke: #5cff00"/>
    <path d="M 416.084468 111.9374 
C 417.232831 111.9374 418.334315 111.48115 419.14633 110.669135 
C 419.958346 109.85712 420.414595 108.755636 420.414595 107.607273 
C 420.414595 106.45891 419.958346 105.357426 419.14633 104.545411 
C 418.334315 103.733395 417.232831 103.277146 416.084468 103.277146 
C 414.936105 103.277146 413.834621 103.733395 413.022606 104.545411 
C 412.210591 105.357426 411.754341 106.45891 411.754341 107.607273 
C 411.754341 108.755636 412.210591 109.85712 413.022606 110.669135 
C 413.834621 111.48115 414.936105 111.9374 416.084468 111.9374 
z
" clip-path="url(#pc78624947f)" style="fill: #ff0029; stroke: #ff0029"/>
   </g>
   <g id="text_1">
    <g clip-path="url(#pc78624947f)">
     <!-- 11 -->
     <g transform="translate(253.088586 252.126107) scale(0.09 -0.09)">
      <defs>
       <path id="DejaVuSerif-31" d="M 909 0 
L 909 331 
L 1722 331 
L 1722 4213 
L 781 3603 
L 781 4013 
L 1919 4750 
L 2350 4750 
L 2350 331 
L 3163 331 
L 3163 0 
L 909 0 
z
" transform="scale(0.015625)"/>
      </defs>
      <use xlink:href="#DejaVuSerif-31"/>
      <use xlink:href="#DejaVuSerif-31" x="63.623047"/>
     </g>
    </g>
   </g>
   <g id="text_2">
    <g clip-path="url(#pc78624947f)">
     <!-- 14 -->
     <g transform="translate(261.584337 184.073842) scale(0.09 -0.09)">
      <defs>
       <path id="DejaVuSerif-34" d="M 2234 1581 
L 2234 4063 
L 641 1581 
L 2234 1581 
z
M 3609 0 
L 1484 0 
L 1484 331 
L 2234 331 
L 2234 1247 
L 197 1247 
L 197 1588 
L 2241 4750 
L 2859 4750 
L 2859 1581 
L 3750 1581 
L 3750 1247 
L 2859 1247 
L 2859 331 
L 3609 331 
L 3609 0 
z
" transform="scale(0.015625)"/>
      </defs>
      <use xlink:href="#DejaVuSerif-31"/>
      <use xlink:href="#DejaVuSerif-34" x="63.623047"/>
     </g>
    </g>
   </g>
   <g id="text_3">
    <g clip-path="url(#pc78624947f)">
     <!-- 13 -->
     <g transform="translate(174.702439 362.097393) scale(0.09 -0.09)">
      <defs>
       <path id="DejaVuSerif-33" d="M 622 4469 
Q 988 4606 1323 4678 
Q 1659 4750 1953 4750 
Q 2638 4750 3022 4454 
Q 3406 4159 3406 3634 
Q 3406 3213 3140 2930 
Q 2875 2647 2388 2547 
Q 2963 2466 3280 2130 
Q 3597 1794 3597 1259 
Q 3597 606 3158 257 
Q 2719 -91 1894 -91 
Q 1528 -91 1179 -12 
Q 831 66 488 225 
L 488 1131 
L 838 1131 
Q 869 681 1141 450 
Q 1413 219 1906 219 
Q 2384 219 2661 495 
Q 2938 772 2938 1253 
Q 2938 1803 2653 2086 
Q 2369 2369 1819 2369 
L 1522 2369 
L 1522 2688 
L 1678 2688 
Q 2225 2688 2498 2914 
Q 2772 3141 2772 3597 
Q 2772 4006 2547 4223 
Q 2322 4441 1900 4441 
Q 1478 4441 1245 4241 
Q 1013 4041 972 3647 
L 622 3647 
L 622 4469 
z
" transform="scale(0.015625)"/>
      </defs>
      <use xlink:href="#DejaVuSerif-31"/>
      <use xlink:href="#DejaVuSerif-33" x="63.623047"/>
     </g>
    </g>
   </g>
   <g id="text_4">
    <g clip-path="url(#pc78624947f)">
     <!-- 10 -->
     <g transform="translate(166.810774 433.762705) scale(0.09 -0.09)">
      <defs>
       <path id="DejaVuSerif-30" d="M 2034 219 
Q 2513 219 2750 744 
Q 2988 1269 2988 2328 
Q 2988 3391 2750 3916 
Q 2513 4441 2034 4441 
Q 1556 4441 1318 3916 
Q 1081 3391 1081 2328 
Q 1081 1269 1318 744 
Q 1556 219 2034 219 
z
M 2034 -91 
Q 1275 -91 848 546 
Q 422 1184 422 2328 
Q 422 3475 848 4112 
Q 1275 4750 2034 4750 
Q 2797 4750 3222 4112 
Q 3647 3475 3647 2328 
Q 3647 1184 3222 546 
Q 2797 -91 2034 -91 
z
" transform="scale(0.015625)"/>
      </defs>
      <use xlink:href="#DejaVuSerif-31"/>
      <use xlink:href="#DejaVuSerif-30" x="63.623047"/>
     </g>
    </g>
   </g>
   <g id="text_5">
    <g clip-path="url(#pc78624947f)">
     <!-- 9 -->
     <g transform="translate(476.799685 269.40536) scale(0.09 -0.09)">
      <defs>
       <path id="DejaVuSerif-39" d="M 2994 2091 
Q 2784 1856 2512 1740 
Q 2241 1625 1900 1625 
Q 1206 1625 804 2044 
Q 403 2463 403 3188 
Q 403 3897 839 4323 
Q 1275 4750 2003 4750 
Q 2794 4750 3217 4161 
Q 3641 3572 3641 2478 
Q 3641 1253 3137 581 
Q 2634 -91 1722 -91 
Q 1475 -91 1203 -44 
Q 931 3 647 97 
L 647 872 
L 997 872 
Q 1038 556 1241 387 
Q 1444 219 1784 219 
Q 2391 219 2687 676 
Q 2984 1134 2994 2091 
z
M 1978 4441 
Q 1534 4441 1298 4117 
Q 1063 3794 1063 3188 
Q 1063 2581 1298 2256 
Q 1534 1931 1978 1931 
Q 2422 1931 2658 2245 
Q 2894 2559 2894 3150 
Q 2894 3772 2656 4106 
Q 2419 4441 1978 4441 
z
" transform="scale(0.015625)"/>
      </defs>
      <use xlink:href="#DejaVuSerif-39"/>
     </g>
    </g>
   </g>
   <g id="text_6">
    <g clip-path="url(#pc78624947f)">
     <!-- 12 -->
     <g transform="translate(466.744581 200.994239) scale(0.09 -0.09)">
      <defs>
       <path id="DejaVuSerif-32" d="M 819 3553 
L 469 3553 
L 469 4384 
Q 803 4563 1142 4656 
Q 1481 4750 1806 4750 
Q 2534 4750 2956 4397 
Q 3378 4044 3378 3438 
Q 3378 2753 2422 1800 
Q 2347 1728 2309 1691 
L 1131 513 
L 3078 513 
L 3078 1088 
L 3444 1088 
L 3444 0 
L 434 0 
L 434 341 
L 1850 1753 
Q 2319 2222 2519 2614 
Q 2719 3006 2719 3438 
Q 2719 3909 2473 4175 
Q 2228 4441 1797 4441 
Q 1350 4441 1106 4219 
Q 863 3997 819 3553 
z
" transform="scale(0.015625)"/>
      </defs>
      <use xlink:href="#DejaVuSerif-31"/>
      <use xlink:href="#DejaVuSerif-32" x="63.623047"/>
     </g>
    </g>
   </g>
   <g id="text_7">
    <g clip-path="url(#pc78624947f)">
     <!-- 8 -->
     <g transform="translate(364.198723 251.980303) scale(0.09 -0.09)">
      <defs>
       <path id="DejaVuSerif-38" d="M 2981 1275 
Q 2981 1775 2732 2051 
Q 2484 2328 2034 2328 
Q 1584 2328 1336 2051 
Q 1088 1775 1088 1275 
Q 1088 772 1336 495 
Q 1584 219 2034 219 
Q 2484 219 2732 495 
Q 2981 772 2981 1275 
z
M 2853 3541 
Q 2853 3966 2637 4203 
Q 2422 4441 2034 4441 
Q 1650 4441 1433 4203 
Q 1216 3966 1216 3541 
Q 1216 3113 1433 2875 
Q 1650 2638 2034 2638 
Q 2422 2638 2637 2875 
Q 2853 3113 2853 3541 
z
M 2516 2484 
Q 3047 2413 3344 2092 
Q 3641 1772 3641 1275 
Q 3641 619 3225 264 
Q 2809 -91 2034 -91 
Q 1263 -91 845 264 
Q 428 619 428 1275 
Q 428 1772 725 2092 
Q 1022 2413 1556 2484 
Q 1084 2569 832 2842 
Q 581 3116 581 3541 
Q 581 4103 968 4426 
Q 1356 4750 2034 4750 
Q 2713 4750 3100 4426 
Q 3488 4103 3488 3541 
Q 3488 3116 3236 2842 
Q 2984 2569 2516 2484 
z
" transform="scale(0.015625)"/>
      </defs>
      <use xlink:href="#DejaVuSerif-38"/>
     </g>
    </g>
   </g>
   <g id="text_8">
    <g clip-path="url(#pc78624947f)">
     <!-- 6 -->
     <g transform="translate(183.139832 281.146217) scale(0.09 -0.09)">
      <defs>
       <path id="DejaVuSerif-36" d="M 2094 219 
Q 2534 219 2771 542 
Q 3009 866 3009 1472 
Q 3009 2078 2771 2401 
Q 2534 2725 2094 2725 
Q 1647 2725 1412 2412 
Q 1178 2100 1178 1509 
Q 1178 888 1415 553 
Q 1653 219 2094 219 
z
M 1075 2569 
Q 1288 2803 1556 2918 
Q 1825 3034 2163 3034 
Q 2859 3034 3264 2615 
Q 3669 2197 3669 1472 
Q 3669 763 3233 336 
Q 2797 -91 2069 -91 
Q 1278 -91 853 498 
Q 428 1088 428 2181 
Q 428 3406 931 4078 
Q 1434 4750 2350 4750 
Q 2597 4750 2869 4703 
Q 3141 4656 3425 4563 
L 3425 3794 
L 3072 3794 
Q 3034 4109 2831 4275 
Q 2628 4441 2284 4441 
Q 1678 4441 1381 3981 
Q 1084 3522 1075 2569 
z
" transform="scale(0.015625)"/>
      </defs>
      <use xlink:href="#DejaVuSerif-36"/>
     </g>
    </g>
   </g>
   <g id="text_9">
    <g clip-path="url(#pc78624947f)">
     <!-- 7 -->
     <g transform="translate(118.089116 412.776408) scale(0.09 -0.09)">
      <defs>
       <path id="DejaVuSerif-37" d="M 3609 4347 
L 1784 0 
L 1319 0 
L 3059 4153 
L 903 4153 
L 903 3578 
L 538 3578 
L 538 4666 
L 3609 4666 
L 3609 4347 
z
" transform="scale(0.015625)"/>
      </defs>
      <use xlink:href="#DejaVuSerif-37"/>
     </g>
    </g>
   </g>
   <g id="text_10">
    <g clip-path="url(#pc78624947f)">
     <!-- 4 -->
     <g transform="translate(194.745877 476.636165) scale(0.09 -0.09)">
      <use xlink:href="#DejaVuSerif-34"/>
     </g>
    </g>
   </g>
   <g id="text_11">
    <g clip-path="url(#pc78624947f)">
     <!-- 3 -->
     <g transform="translate(107.874065 345.542742) scale(0.09 -0.09)">
      <use xlink:href="#DejaVuSerif-33"/>
     </g>
    </g>
   </g>
   <g id="text_12">
    <g clip-path="url(#pc78624947f)">
     <!-- 2 -->
     <g transform="translate(282.172584 406.811372) scale(0.09 -0.09)">
      <use xlink:href="#DejaVuSerif-32"/>
     </g>
    </g>
   </g>
   <g id="text_13">
    <g clip-path="url(#pc78624947f)">
     <!-- 1 -->
     <g transform="translate(300.154244 299.074716) scale(0.09 -0.09)">
      <use xlink:href="#DejaVuSerif-31"/>
     </g>
    </g>
   </g>
   <g id="text_14">
    <g clip-path="url(#pc78624947f)">
     <!-- 5 -->
     <g transform="translate(360.342503 366.450522) scale(0.09 -0.09)">
      <defs>
       <path id="DejaVuSerif-35" d="M 3219 4666 
L 3219 4153 
L 1081 4153 
L 1081 2816 
Q 1244 2928 1461 2984 
Q 1678 3041 1947 3041 
Q 2703 3041 3140 2622 
Q 3578 2203 3578 1478 
Q 3578 738 3136 323 
Q 2694 -91 1894 -91 
Q 1572 -91 1234 -12 
Q 897 66 544 225 
L 544 1131 
L 897 1131 
Q 925 688 1179 453 
Q 1434 219 1894 219 
Q 2388 219 2653 544 
Q 2919 869 2919 1478 
Q 2919 2084 2655 2407 
Q 2391 2731 1894 2731 
Q 1613 2731 1398 2631 
Q 1184 2531 1019 2322 
L 750 2322 
L 750 4666 
L 3219 4666 
z
" transform="scale(0.015625)"/>
      </defs>
      <use xlink:href="#DejaVuSerif-35"/>
     </g>
    </g>
   </g>
   <g id="text_15">
    <g clip-path="url(#pc78624947f)">
     <!-- 0 -->
     <g transform="translate(413.221343 110.09071) scale(0.09 -0.09)">
      <use xlink:href="#DejaVuSerif-30"/>
     </g>
    </g>
   </g>
  </g>
 </g>
 <defs>
  <clipPath id="pc78624947f">
   <rect x="72" y="69.12" width="446.4" height="443.52"/>
  </clipPath>
 </defs>
</svg>
