<?xml version="1.0" encoding="utf-8" standalone="no"?>
<!DOCTYPE svg PUBLIC "-//W3C//DTD SVG 1.1//EN"
  "http://www.w3.org/Graphics/SVG/1.1/DTD/svg11.dtd">
<svg xmlns:xlink="http://www.w3.org/1999/xlink" width="576pt" height="576pt" viewBox="0 0 576 576" xmlns="http://www.w3.org/2000/svg" version="1.1">
 <metadata>
  <rdf:RDF xmlns:dc="http://purl.org/dc/elements/1.1/" xmlns:cc="http://creativecommons.org/ns#" xmlns:rdf="http://www.w3.org/1999/02/22-rdf-syntax-ns#">
   <cc:Work>
    <dc:type rdf:resource="http://purl.org/dc/dcmitype/StillImage"/>
    <dc:date>2025-01-15T09:53:52.029541</dc:date>
    <dc:format>image/svg+xml</dc:format>
    <dc:creator>
     <cc:Agent>
      <dc:title>Matplotlib v3.9.2, https://matplotlib.org/</dc:title>
     </cc:Agent>
    </dc:creator>
   </cc:Work>
  </rdf:RDF>
 </metadata>
 <defs>
  <style type="text/css">*{stroke-linejoin: round; stroke-linecap: butt}</style>
 </defs>
 <g id="figure_1">
  <g id="patch_1">
   <path d="M 0 576 
L 576 576 
L 576 0 
L 0 0 
L 0 576 
z
" style="fill: none"/>
  </g>
  <g id="axes_1">
   <g id="LineCollection_1">
    <path d="M 225.985535 337.280462 
L 204.14453 298.351823 
" clip-path="url(#pc7d271c666)" style="fill: none; stroke: #c4c4c4"/>
    <path d="M 225.985535 337.280462 
L 334.477811 422.347922 
" clip-path="url(#pc7d271c666)" style="fill: none; stroke: #c4c4c4"/>
    <path d="M 225.985535 337.280462 
L 262.534384 217.599254 
" clip-path="url(#pc7d271c666)" style="fill: none; stroke: #c4c4c4"/>
    <path d="M 204.14453 298.351823 
L 262.534384 217.599254 
" clip-path="url(#pc7d271c666)" style="fill: none; stroke: #c4c4c4"/>
    <path d="M 204.14453 298.351823 
L 318.163666 378.53438 
" clip-path="url(#pc7d271c666)" style="fill: none; stroke: #c4c4c4"/>
    <path d="M 334.477811 422.347922 
L 426.046196 411.902197 
" clip-path="url(#pc7d271c666)" style="fill: none; stroke: #c4c4c4"/>
    <path d="M 334.477811 422.347922 
L 479.66281 394.253134 
" clip-path="url(#pc7d271c666)" style="fill: none; stroke: #c4c4c4"/>
    <path d="M 334.477811 422.347922 
L 355.475017 474.152727 
" clip-path="url(#pc7d271c666)" style="fill: none; stroke: #c4c4c4"/>
    <path d="M 426.046196 411.902197 
L 479.66281 394.253134 
" clip-path="url(#pc7d271c666)" style="fill: none; stroke: #c4c4c4"/>
    <path d="M 426.046196 411.902197 
L 355.475017 474.152727 
" clip-path="url(#pc7d271c666)" style="fill: none; stroke: #c4c4c4"/>
    <path d="M 426.046196 411.902197 
L 435.500603 460.5813 
" clip-path="url(#pc7d271c666)" style="fill: none; stroke: #c4c4c4"/>
    <path d="M 426.046196 411.902197 
L 419.099665 302.853181 
" clip-path="url(#pc7d271c666)" style="fill: none; stroke: #c4c4c4"/>
    <path d="M 281.419154 107.607273 
L 206.449618 112.998561 
" clip-path="url(#pc7d271c666)" style="fill: none; stroke: #c4c4c4"/>
    <path d="M 281.419154 107.607273 
L 262.534384 217.599254 
" clip-path="url(#pc7d271c666)" style="fill: none; stroke: #c4c4c4"/>
    <path d="M 206.449618 112.998561 
L 262.534384 217.599254 
" clip-path="url(#pc7d271c666)" style="fill: none; stroke: #c4c4c4"/>
    <path d="M 262.534384 217.599254 
L 419.099665 302.853181 
" clip-path="url(#pc7d271c666)" style="fill: none; stroke: #c4c4c4"/>
    <path d="M 262.534384 217.599254 
L 332.618637 271.496259 
" clip-path="url(#pc7d271c666)" style="fill: none; stroke: #c4c4c4"/>
    <path d="M 262.534384 217.599254 
L 110.73719 169.285397 
" clip-path="url(#pc7d271c666)" style="fill: none; stroke: #c4c4c4"/>
    <path d="M 262.534384 217.599254 
L 395.999838 219.394161 
" clip-path="url(#pc7d271c666)" style="fill: none; stroke: #c4c4c4"/>
    <path d="M 318.163666 378.53438 
L 435.500603 460.5813 
" clip-path="url(#pc7d271c666)" style="fill: none; stroke: #c4c4c4"/>
    <path d="M 318.163666 378.53438 
L 355.475017 474.152727 
" clip-path="url(#pc7d271c666)" style="fill: none; stroke: #c4c4c4"/>
    <path d="M 318.163666 378.53438 
L 332.618637 271.496259 
" clip-path="url(#pc7d271c666)" style="fill: none; stroke: #c4c4c4"/>
    <path d="M 435.500603 460.5813 
L 479.66281 394.253134 
" clip-path="url(#pc7d271c666)" style="fill: none; stroke: #c4c4c4"/>
    <path d="M 435.500603 460.5813 
L 355.475017 474.152727 
" clip-path="url(#pc7d271c666)" style="fill: none; stroke: #c4c4c4"/>
    <path d="M 479.66281 394.253134 
L 419.099665 302.853181 
" clip-path="url(#pc7d271c666)" style="fill: none; stroke: #c4c4c4"/>
    <path d="M 419.099665 302.853181 
L 395.999838 219.394161 
" clip-path="url(#pc7d271c666)" style="fill: none; stroke: #c4c4c4"/>
    <path d="M 332.618637 271.496259 
L 395.999838 219.394161 
" clip-path="url(#pc7d271c666)" style="fill: none; stroke: #c4c4c4"/>
   </g>
   <g id="PathCollection_1">
    <path d="M 225.985535 339.780462 
C 226.648542 339.780462 227.284484 339.517046 227.753302 339.048229 
C 228.222119 338.579412 228.485535 337.94347 228.485535 337.280462 
C 228.485535 336.617454 228.222119 335.981512 227.753302 335.512695 
C 227.284484 335.043878 226.648542 334.780462 225.985535 334.780462 
C 225.322527 334.780462 224.686585 335.043878 224.217768 335.512695 
C 223.748951 335.981512 223.485535 336.617454 223.485535 337.280462 
C 223.485535 337.94347 223.748951 338.579412 224.217768 339.048229 
C 224.686585 339.517046 225.322527 339.780462 225.985535 339.780462 
z
" clip-path="url(#pc7d271c666)" style="fill: #02aff9; stroke: #02aff9"/>
    <path d="M 204.14453 302.68195 
C 205.292893 302.68195 206.394376 302.225701 207.206392 301.413686 
C 208.018407 300.60167 208.474657 299.500187 208.474657 298.351823 
C 208.474657 297.20346 208.018407 296.101977 207.206392 295.289961 
C 206.394376 294.477946 205.292893 294.021696 204.14453 294.021696 
C 202.996166 294.021696 201.894683 294.477946 201.082667 295.289961 
C 200.270652 296.101977 199.814402 297.20346 199.814402 298.351823 
C 199.814402 299.500187 200.270652 300.60167 201.082667 301.413686 
C 201.894683 302.225701 202.996166 302.68195 204.14453 302.68195 
z
" clip-path="url(#pc7d271c666)" style="fill: #02aff9; stroke: #02aff9"/>
    <path d="M 334.477811 427.347922 
C 335.803827 427.347922 337.075711 426.821091 338.013345 425.883456 
C 338.95098 424.945822 339.477811 423.673938 339.477811 422.347922 
C 339.477811 421.021907 338.95098 419.750023 338.013345 418.812388 
C 337.075711 417.874754 335.803827 417.347922 334.477811 417.347922 
C 333.151796 417.347922 331.879912 417.874754 330.942277 418.812388 
C 330.004643 419.750023 329.477811 421.021907 329.477811 422.347922 
C 329.477811 423.673938 330.004643 424.945822 330.942277 425.883456 
C 331.879912 426.821091 333.151796 427.347922 334.477811 427.347922 
z
" clip-path="url(#pc7d271c666)" style="fill: #02aff9; stroke: #02aff9"/>
    <path d="M 426.046196 416.902197 
C 427.372212 416.902197 428.644095 416.375365 429.58173 415.437731 
C 430.519365 414.500096 431.046196 413.228212 431.046196 411.902197 
C 431.046196 410.576181 430.519365 409.304297 429.58173 408.366663 
C 428.644095 407.429028 427.372212 406.902197 426.046196 406.902197 
C 424.720181 406.902197 423.448297 407.429028 422.510662 408.366663 
C 421.573028 409.304297 421.046196 410.576181 421.046196 411.902197 
C 421.046196 413.228212 421.573028 414.500096 422.510662 415.437731 
C 423.448297 416.375365 424.720181 416.902197 426.046196 416.902197 
z
" clip-path="url(#pc7d271c666)" style="fill: #02aff9; stroke: #02aff9"/>
    <path d="M 281.419154 112.607273 
C 282.74517 112.607273 284.017054 112.080441 284.954688 111.142807 
C 285.892323 110.205172 286.419154 108.933288 286.419154 107.607273 
C 286.419154 106.281257 285.892323 105.009373 284.954688 104.071739 
C 284.017054 103.134104 282.74517 102.607273 281.419154 102.607273 
C 280.093139 102.607273 278.821255 103.134104 277.88362 104.071739 
C 276.945986 105.009373 276.419154 106.281257 276.419154 107.607273 
C 276.419154 108.933288 276.945986 110.205172 277.88362 111.142807 
C 278.821255 112.080441 280.093139 112.607273 281.419154 112.607273 
z
" clip-path="url(#pc7d271c666)" style="fill: #02aff9; stroke: #02aff9"/>
    <path d="M 206.449618 117.328688 
C 207.597981 117.328688 208.699465 116.872439 209.51148 116.060424 
C 210.323496 115.248408 210.779745 114.146924 210.779745 112.998561 
C 210.779745 111.850198 210.323496 110.748714 209.51148 109.936699 
C 208.699465 109.124684 207.597981 108.668434 206.449618 108.668434 
C 205.301255 108.668434 204.199771 109.124684 203.387756 109.936699 
C 202.575741 110.748714 202.119491 111.850198 202.119491 112.998561 
C 202.119491 114.146924 202.575741 115.248408 203.387756 116.060424 
C 204.199771 116.872439 205.301255 117.328688 206.449618 117.328688 
z
" clip-path="url(#pc7d271c666)" style="fill: #02aff9; stroke: #02aff9"/>
    <path d="M 262.534384 222.599254 
C 263.8604 222.599254 265.132283 222.072422 266.069918 221.134788 
C 267.007552 220.197153 267.534384 218.925269 267.534384 217.599254 
C 267.534384 216.273238 267.007552 215.001355 266.069918 214.06372 
C 265.132283 213.126085 263.8604 212.599254 262.534384 212.599254 
C 261.208369 212.599254 259.936485 213.126085 258.99885 214.06372 
C 258.061216 215.001355 257.534384 216.273238 257.534384 217.599254 
C 257.534384 218.925269 258.061216 220.197153 258.99885 221.134788 
C 259.936485 222.072422 261.208369 222.599254 262.534384 222.599254 
z
" clip-path="url(#pc7d271c666)" style="fill: #02aff9; stroke: #02aff9"/>
    <path d="M 318.163666 383.53438 
C 319.489682 383.53438 320.761565 383.007549 321.6992 382.069914 
C 322.636835 381.13228 323.163666 379.860396 323.163666 378.53438 
C 323.163666 377.208365 322.636835 375.936481 321.6992 374.998847 
C 320.761565 374.061212 319.489682 373.53438 318.163666 373.53438 
C 316.837651 373.53438 315.565767 374.061212 314.628132 374.998847 
C 313.690498 375.936481 313.163666 377.208365 313.163666 378.53438 
C 313.163666 379.860396 313.690498 381.13228 314.628132 382.069914 
C 315.565767 383.007549 316.837651 383.53438 318.163666 383.53438 
z
" clip-path="url(#pc7d271c666)" style="fill: #02aff9; stroke: #02aff9"/>
    <path d="M 435.500603 467.652368 
C 437.375872 467.652368 439.174587 466.907316 440.500603 465.5813 
C 441.826618 464.255285 442.571671 462.456569 442.571671 460.5813 
C 442.571671 458.706031 441.826618 456.907316 440.500603 455.5813 
C 439.174587 454.255285 437.375872 453.510232 435.500603 453.510232 
C 433.625334 453.510232 431.826618 454.255285 430.500603 455.5813 
C 429.174587 456.907316 428.429535 458.706031 428.429535 460.5813 
C 428.429535 462.456569 429.174587 464.255285 430.500603 465.5813 
C 431.826618 466.907316 433.625334 467.652368 435.500603 467.652368 
z
" clip-path="url(#pc7d271c666)" style="fill: #02aff9; stroke: #02aff9"/>
    <path d="M 479.66281 397.788668 
C 480.600444 397.788668 481.499802 397.416142 482.16281 396.753134 
C 482.825818 396.090126 483.198344 395.190769 483.198344 394.253134 
C 483.198344 393.3155 482.825818 392.416142 482.16281 391.753134 
C 481.499802 391.090126 480.600444 390.7176 479.66281 390.7176 
C 478.725175 390.7176 477.825818 391.090126 477.16281 391.753134 
C 476.499802 392.416142 476.127276 393.3155 476.127276 394.253134 
C 476.127276 395.190769 476.499802 396.090126 477.16281 396.753134 
C 477.825818 397.416142 478.725175 397.788668 479.66281 397.788668 
z
" clip-path="url(#pc7d271c666)" style="fill: #02aff9; stroke: #02aff9"/>
    <path d="M 355.475017 479.742897 
C 356.957547 479.742897 358.379557 479.153882 359.427864 478.105574 
C 360.476171 477.057267 361.065187 475.635258 361.065187 474.152727 
C 361.065187 472.670197 360.476171 471.248187 359.427864 470.19988 
C 358.379557 469.151573 356.957547 468.562557 355.475017 468.562557 
C 353.992487 468.562557 352.570477 469.151573 351.52217 470.19988 
C 350.473863 471.248187 349.884847 472.670197 349.884847 474.152727 
C 349.884847 475.635258 350.473863 477.057267 351.52217 478.105574 
C 352.570477 479.153882 353.992487 479.742897 355.475017 479.742897 
z
" clip-path="url(#pc7d271c666)" style="fill: #02aff9; stroke: #02aff9"/>
    <path d="M 419.099665 307.183308 
C 420.248029 307.183308 421.349512 306.727059 422.161528 305.915044 
C 422.973543 305.103028 423.429792 304.001544 423.429792 302.853181 
C 423.429792 301.704818 422.973543 300.603335 422.161528 299.791319 
C 421.349512 298.979304 420.248029 298.523054 419.099665 298.523054 
C 417.951302 298.523054 416.849819 298.979304 416.037803 299.791319 
C 415.225788 300.603335 414.769538 301.704818 414.769538 302.853181 
C 414.769538 304.001544 415.225788 305.103028 416.037803 305.915044 
C 416.849819 306.727059 417.951302 307.183308 419.099665 307.183308 
z
" clip-path="url(#pc7d271c666)" style="fill: #02aff9; stroke: #02aff9"/>
    <path d="M 332.618637 275.031793 
C 333.556272 275.031793 334.45563 274.659267 335.118637 273.996259 
C 335.781645 273.333251 336.154171 272.433893 336.154171 271.496259 
C 336.154171 270.558624 335.781645 269.659267 335.118637 268.996259 
C 334.45563 268.333251 333.556272 267.960725 332.618637 267.960725 
C 331.681003 267.960725 330.781645 268.333251 330.118637 268.996259 
C 329.45563 269.659267 329.083103 270.558624 329.083103 271.496259 
C 329.083103 272.433893 329.45563 273.333251 330.118637 273.996259 
C 330.781645 274.659267 331.681003 275.031793 332.618637 275.031793 
z
" clip-path="url(#pc7d271c666)" style="fill: #02aff9; stroke: #02aff9"/>
    <path d="M 395.999838 224.394161 
C 397.325853 224.394161 398.597737 223.867329 399.535372 222.929695 
C 400.473006 221.99206 400.999838 220.720176 400.999838 219.394161 
C 400.999838 218.068145 400.473006 216.796262 399.535372 215.858627 
C 398.597737 214.920992 397.325853 214.394161 395.999838 214.394161 
C 394.673822 214.394161 393.401938 214.920992 392.464304 215.858627 
C 391.526669 216.796262 390.999838 218.068145 390.999838 219.394161 
C 390.999838 220.720176 391.526669 221.99206 392.464304 222.929695 
C 393.401938 223.867329 394.673822 224.394161 395.999838 224.394161 
z
" clip-path="url(#pc7d271c666)" style="fill: #02aff9; stroke: #02aff9"/>
    <path d="M 110.73719 173.615524 
C 111.885553 173.615524 112.987037 173.159274 113.799052 172.347259 
C 114.611068 171.535243 115.067317 170.43376 115.067317 169.285397 
C 115.067317 168.137033 114.611068 167.03555 113.799052 166.223534 
C 112.987037 165.411519 111.885553 164.955269 110.73719 164.955269 
C 109.588827 164.955269 108.487343 165.411519 107.675328 166.223534 
C 106.863313 167.03555 106.407063 168.137033 106.407063 169.285397 
C 106.407063 170.43376 106.863313 171.535243 107.675328 172.347259 
C 108.487343 173.159274 109.588827 173.615524 110.73719 173.615524 
z
" clip-path="url(#pc7d271c666)" style="fill: #02aff9; stroke: #02aff9"/>
   </g>
   <g id="text_1">
    <g clip-path="url(#pc7d271c666)">
     <!-- 11 -->
     <g transform="translate(220.259285 339.763899) scale(0.09 -0.09)">
      <defs>
       <path id="DejaVuSerif-31" d="M 909 0 
L 909 331 
L 1722 331 
L 1722 4213 
L 781 3603 
L 781 4013 
L 1919 4750 
L 2350 4750 
L 2350 331 
L 3163 331 
L 3163 0 
L 909 0 
z
" transform="scale(0.015625)"/>
      </defs>
      <use xlink:href="#DejaVuSerif-31"/>
      <use xlink:href="#DejaVuSerif-31" x="63.623047"/>
     </g>
    </g>
   </g>
   <g id="text_2">
    <g clip-path="url(#pc7d271c666)">
     <!-- 14 -->
     <g transform="translate(198.41828 300.835261) scale(0.09 -0.09)">
      <defs>
       <path id="DejaVuSerif-34" d="M 2234 1581 
L 2234 4063 
L 641 1581 
L 2234 1581 
z
M 3609 0 
L 1484 0 
L 1484 331 
L 2234 331 
L 2234 1247 
L 197 1247 
L 197 1588 
L 2241 4750 
L 2859 4750 
L 2859 1581 
L 3750 1581 
L 3750 1247 
L 2859 1247 
L 2859 331 
L 3609 331 
L 3609 0 
z
" transform="scale(0.015625)"/>
      </defs>
      <use xlink:href="#DejaVuSerif-31"/>
      <use xlink:href="#DejaVuSerif-34" x="63.623047"/>
     </g>
    </g>
   </g>
   <g id="text_3">
    <g clip-path="url(#pc7d271c666)">
     <!-- 13 -->
     <g transform="translate(328.751561 424.83136) scale(0.09 -0.09)">
      <defs>
       <path id="DejaVuSerif-33" d="M 622 4469 
Q 988 4606 1323 4678 
Q 1659 4750 1953 4750 
Q 2638 4750 3022 4454 
Q 3406 4159 3406 3634 
Q 3406 3213 3140 2930 
Q 2875 2647 2388 2547 
Q 2963 2466 3280 2130 
Q 3597 1794 3597 1259 
Q 3597 606 3158 257 
Q 2719 -91 1894 -91 
Q 1528 -91 1179 -12 
Q 831 66 488 225 
L 488 1131 
L 838 1131 
Q 869 681 1141 450 
Q 1413 219 1906 219 
Q 2384 219 2661 495 
Q 2938 772 2938 1253 
Q 2938 1803 2653 2086 
Q 2369 2369 1819 2369 
L 1522 2369 
L 1522 2688 
L 1678 2688 
Q 2225 2688 2498 2914 
Q 2772 3141 2772 3597 
Q 2772 4006 2547 4223 
Q 2322 4441 1900 4441 
Q 1478 4441 1245 4241 
Q 1013 4041 972 3647 
L 622 3647 
L 622 4469 
z
" transform="scale(0.015625)"/>
      </defs>
      <use xlink:href="#DejaVuSerif-31"/>
      <use xlink:href="#DejaVuSerif-33" x="63.623047"/>
     </g>
    </g>
   </g>
   <g id="text_4">
    <g clip-path="url(#pc7d271c666)">
     <!-- 10 -->
     <g transform="translate(420.319946 414.385634) scale(0.09 -0.09)">
      <defs>
       <path id="DejaVuSerif-30" d="M 2034 219 
Q 2513 219 2750 744 
Q 2988 1269 2988 2328 
Q 2988 3391 2750 3916 
Q 2513 4441 2034 4441 
Q 1556 4441 1318 3916 
Q 1081 3391 1081 2328 
Q 1081 1269 1318 744 
Q 1556 219 2034 219 
z
M 2034 -91 
Q 1275 -91 848 546 
Q 422 1184 422 2328 
Q 422 3475 848 4112 
Q 1275 4750 2034 4750 
Q 2797 4750 3222 4112 
Q 3647 3475 3647 2328 
Q 3647 1184 3222 546 
Q 2797 -91 2034 -91 
z
" transform="scale(0.015625)"/>
      </defs>
      <use xlink:href="#DejaVuSerif-31"/>
      <use xlink:href="#DejaVuSerif-30" x="63.623047"/>
     </g>
    </g>
   </g>
   <g id="text_5">
    <g clip-path="url(#pc7d271c666)">
     <!-- 9 -->
     <g transform="translate(278.556029 110.09071) scale(0.09 -0.09)">
      <defs>
       <path id="DejaVuSerif-39" d="M 2994 2091 
Q 2784 1856 2512 1740 
Q 2241 1625 1900 1625 
Q 1206 1625 804 2044 
Q 403 2463 403 3188 
Q 403 3897 839 4323 
Q 1275 4750 2003 4750 
Q 2794 4750 3217 4161 
Q 3641 3572 3641 2478 
Q 3641 1253 3137 581 
Q 2634 -91 1722 -91 
Q 1475 -91 1203 -44 
Q 931 3 647 97 
L 647 872 
L 997 872 
Q 1038 556 1241 387 
Q 1444 219 1784 219 
Q 2391 219 2687 676 
Q 2984 1134 2994 2091 
z
M 1978 4441 
Q 1534 4441 1298 4117 
Q 1063 3794 1063 3188 
Q 1063 2581 1298 2256 
Q 1534 1931 1978 1931 
Q 2422 1931 2658 2245 
Q 2894 2559 2894 3150 
Q 2894 3772 2656 4106 
Q 2419 4441 1978 4441 
z
" transform="scale(0.015625)"/>
      </defs>
      <use xlink:href="#DejaVuSerif-39"/>
     </g>
    </g>
   </g>
   <g id="text_6">
    <g clip-path="url(#pc7d271c666)">
     <!-- 12 -->
     <g transform="translate(200.723368 115.481999) scale(0.09 -0.09)">
      <defs>
       <path id="DejaVuSerif-32" d="M 819 3553 
L 469 3553 
L 469 4384 
Q 803 4563 1142 4656 
Q 1481 4750 1806 4750 
Q 2534 4750 2956 4397 
Q 3378 4044 3378 3438 
Q 3378 2753 2422 1800 
Q 2347 1728 2309 1691 
L 1131 513 
L 3078 513 
L 3078 1088 
L 3444 1088 
L 3444 0 
L 434 0 
L 434 341 
L 1850 1753 
Q 2319 2222 2519 2614 
Q 2719 3006 2719 3438 
Q 2719 3909 2473 4175 
Q 2228 4441 1797 4441 
Q 1350 4441 1106 4219 
Q 863 3997 819 3553 
z
" transform="scale(0.015625)"/>
      </defs>
      <use xlink:href="#DejaVuSerif-31"/>
      <use xlink:href="#DejaVuSerif-32" x="63.623047"/>
     </g>
    </g>
   </g>
   <g id="text_7">
    <g clip-path="url(#pc7d271c666)">
     <!-- 8 -->
     <g transform="translate(259.671259 220.082691) scale(0.09 -0.09)">
      <defs>
       <path id="DejaVuSerif-38" d="M 2981 1275 
Q 2981 1775 2732 2051 
Q 2484 2328 2034 2328 
Q 1584 2328 1336 2051 
Q 1088 1775 1088 1275 
Q 1088 772 1336 495 
Q 1584 219 2034 219 
Q 2484 219 2732 495 
Q 2981 772 2981 1275 
z
M 2853 3541 
Q 2853 3966 2637 4203 
Q 2422 4441 2034 4441 
Q 1650 4441 1433 4203 
Q 1216 3966 1216 3541 
Q 1216 3113 1433 2875 
Q 1650 2638 2034 2638 
Q 2422 2638 2637 2875 
Q 2853 3113 2853 3541 
z
M 2516 2484 
Q 3047 2413 3344 2092 
Q 3641 1772 3641 1275 
Q 3641 619 3225 264 
Q 2809 -91 2034 -91 
Q 1263 -91 845 264 
Q 428 619 428 1275 
Q 428 1772 725 2092 
Q 1022 2413 1556 2484 
Q 1084 2569 832 2842 
Q 581 3116 581 3541 
Q 581 4103 968 4426 
Q 1356 4750 2034 4750 
Q 2713 4750 3100 4426 
Q 3488 4103 3488 3541 
Q 3488 3116 3236 2842 
Q 2984 2569 2516 2484 
z
" transform="scale(0.015625)"/>
      </defs>
      <use xlink:href="#DejaVuSerif-38"/>
     </g>
    </g>
   </g>
   <g id="text_8">
    <g clip-path="url(#pc7d271c666)">
     <!-- 6 -->
     <g transform="translate(315.300541 381.017818) scale(0.09 -0.09)">
      <defs>
       <path id="DejaVuSerif-36" d="M 2094 219 
Q 2534 219 2771 542 
Q 3009 866 3009 1472 
Q 3009 2078 2771 2401 
Q 2534 2725 2094 2725 
Q 1647 2725 1412 2412 
Q 1178 2100 1178 1509 
Q 1178 888 1415 553 
Q 1653 219 2094 219 
z
M 1075 2569 
Q 1288 2803 1556 2918 
Q 1825 3034 2163 3034 
Q 2859 3034 3264 2615 
Q 3669 2197 3669 1472 
Q 3669 763 3233 336 
Q 2797 -91 2069 -91 
Q 1278 -91 853 498 
Q 428 1088 428 2181 
Q 428 3406 931 4078 
Q 1434 4750 2350 4750 
Q 2597 4750 2869 4703 
Q 3141 4656 3425 4563 
L 3425 3794 
L 3072 3794 
Q 3034 4109 2831 4275 
Q 2628 4441 2284 4441 
Q 1678 4441 1381 3981 
Q 1084 3522 1075 2569 
z
" transform="scale(0.015625)"/>
      </defs>
      <use xlink:href="#DejaVuSerif-36"/>
     </g>
    </g>
   </g>
   <g id="text_9">
    <g clip-path="url(#pc7d271c666)">
     <!-- 7 -->
     <g transform="translate(432.637478 463.064738) scale(0.09 -0.09)">
      <defs>
       <path id="DejaVuSerif-37" d="M 3609 4347 
L 1784 0 
L 1319 0 
L 3059 4153 
L 903 4153 
L 903 3578 
L 538 3578 
L 538 4666 
L 3609 4666 
L 3609 4347 
z
" transform="scale(0.015625)"/>
      </defs>
      <use xlink:href="#DejaVuSerif-37"/>
     </g>
    </g>
   </g>
   <g id="text_10">
    <g clip-path="url(#pc7d271c666)">
     <!-- 4 -->
     <g transform="translate(476.799685 396.736572) scale(0.09 -0.09)">
      <use xlink:href="#DejaVuSerif-34"/>
     </g>
    </g>
   </g>
   <g id="text_11">
    <g clip-path="url(#pc7d271c666)">
     <!-- 3 -->
     <g transform="translate(352.611892 476.636165) scale(0.09 -0.09)">
      <use xlink:href="#DejaVuSerif-33"/>
     </g>
    </g>
   </g>
   <g id="text_12">
    <g clip-path="url(#pc7d271c666)">
     <!-- 2 -->
     <g transform="translate(416.23654 305.336619) scale(0.09 -0.09)">
      <use xlink:href="#DejaVuSerif-32"/>
     </g>
    </g>
   </g>
   <g id="text_13">
    <g clip-path="url(#pc7d271c666)">
     <!-- 1 -->
     <g transform="translate(329.755512 273.979696) scale(0.09 -0.09)">
      <use xlink:href="#DejaVuSerif-31"/>
     </g>
    </g>
   </g>
   <g id="text_14">
    <g clip-path="url(#pc7d271c666)">
     <!-- 5 -->
     <g transform="translate(393.136713 221.877598) scale(0.09 -0.09)">
      <defs>
       <path id="DejaVuSerif-35" d="M 3219 4666 
L 3219 4153 
L 1081 4153 
L 1081 2816 
Q 1244 2928 1461 2984 
Q 1678 3041 1947 3041 
Q 2703 3041 3140 2622 
Q 3578 2203 3578 1478 
Q 3578 738 3136 323 
Q 2694 -91 1894 -91 
Q 1572 -91 1234 -12 
Q 897 66 544 225 
L 544 1131 
L 897 1131 
Q 925 688 1179 453 
Q 1434 219 1894 219 
Q 2388 219 2653 544 
Q 2919 869 2919 1478 
Q 2919 2084 2655 2407 
Q 2391 2731 1894 2731 
Q 1613 2731 1398 2631 
Q 1184 2531 1019 2322 
L 750 2322 
L 750 4666 
L 3219 4666 
z
" transform="scale(0.015625)"/>
      </defs>
      <use xlink:href="#DejaVuSerif-35"/>
     </g>
    </g>
   </g>
   <g id="text_15">
    <g clip-path="url(#pc7d271c666)">
     <!-- 0 -->
     <g transform="translate(107.874065 171.768834) scale(0.09 -0.09)">
      <use xlink:href="#DejaVuSerif-30"/>
     </g>
    </g>
   </g>
  </g>
 </g>
 <defs>
  <clipPath id="pc7d271c666">
   <rect x="72" y="69.12" width="446.4" height="443.52"/>
  </clipPath>
 </defs>
</svg>
